<?xml version="1.0" encoding="iso-8859-1"?>
<!-- Generator: Adobe Illustrator 16.0.0, SVG Export Plug-In . SVG Version: 6.00 Build 0)  -->
<!DOCTYPE svg PUBLIC "-//W3C//DTD SVG 1.1//EN" "http://www.w3.org/Graphics/SVG/1.1/DTD/svg11.dtd">
<svg version="1.1" id="&#xB808;&#xC774;&#xC5B4;_1" xmlns="http://www.w3.org/2000/svg" xmlns:xlink="http://www.w3.org/1999/xlink"
	 x="0px" y="0px" width="122.264px" height="743.704px" viewBox="0 0 122.264 743.704"
	 style="enable-background:new 0 0 122.264 743.704;" xml:space="preserve">
<g>
	<path style="fill:#7C8FC8;" d="M23.108,74.386V36.323L1.583,29.676V0l115.22,42.258v26.114L1.583,110.947V81.113L23.108,74.386z
		 M44.553,42.97v24.769l39.963-12.424L44.553,42.97z"/>
	<path style="fill:#7C8FC8;" d="M87.207,138.802l-10.051,0.87c7.756,5.908,11.633,14.06,11.633,24.453
		c0,8.916-2.664,15.576-7.992,19.981c-5.329,4.405-13.348,6.688-24.057,6.846H1.583v-26.748h54.05c4.325,0,7.504-0.871,9.534-2.612
		c2.031-1.741,3.048-4.906,3.048-9.496c0-5.224-2.058-9.101-6.174-11.633H1.583v-26.669h85.624V138.802z"/>
	<path style="fill:#7C8FC8;" d="M109.285,205.512c3.799,0,6.91,1.371,9.338,4.115c2.426,2.743,3.641,6.304,3.641,10.684
		c0,4.378-1.215,7.939-3.641,10.683c-2.428,2.742-5.539,4.115-9.338,4.115s-6.912-1.373-9.338-4.115
		c-2.427-2.744-3.64-6.305-3.64-10.683c0-4.38,1.213-7.941,3.64-10.684C102.373,206.883,105.486,205.512,109.285,205.512z
		 M1.583,233.842v-26.747h85.624v26.747H1.583z"/>
	<path style="fill:#7C8FC8;" d="M87.207,275.466l-10.051,0.872c7.756,6.065,11.633,14.216,11.633,24.453
		c0,10.814-4.3,18.122-12.898,21.919c8.599,5.803,12.898,14.191,12.898,25.164c0,17.357-10.499,26.273-31.495,26.749H1.583v-26.749
		h54.05c4.377,0,7.569-0.739,9.574-2.215c2.004-1.479,3.008-4.169,3.008-8.072c0-5.275-2.349-9.206-7.044-11.792l-1.107,0.08H1.583
		v-26.748h53.891c4.484,0,7.729-0.713,9.733-2.137c2.004-1.424,3.008-4.143,3.008-8.151c0-5.117-2.349-9.021-7.044-11.711H1.583
		v-26.668h85.624V275.466z"/>
	<path style="fill:#7C8FC8;" d="M1.583,438.088c1.741-0.949,4.299-1.795,7.677-2.532c-6.174-4.907-9.259-11.765-9.259-20.575
		c0-8.071,2.439-14.93,7.318-20.574c4.881-5.646,11.014-8.468,18.4-8.468c9.285,0,16.301,3.429,21.05,10.287
		c4.747,6.857,7.12,16.828,7.12,29.912v8.23h4.534c7.898,0,11.848-3.402,11.848-10.208c0-6.331-3.128-9.497-9.383-9.497v-26.667
		c8.271,0,14.99,3.521,20.154,10.563c5.163,7.043,7.746,16.025,7.746,26.945c0,10.921-2.664,19.546-7.992,25.877
		c-5.329,6.331-12.636,9.576-21.921,9.734H20.972c-7.862,0.104-13.875,1.317-18.044,3.641H1.583V438.088z M18.993,421.391
		c0,3.323,0.711,6.08,2.137,8.27c1.424,2.188,3.033,3.759,4.827,4.708h13.69v-7.756c0-9.285-4.169-13.927-12.504-13.927
		c-2.428,0-4.392,0.817-5.896,2.453C19.744,416.773,18.993,418.858,18.993,421.391z"/>
	<path style="fill:#7C8FC8;" d="M108.494,506.935H87.207v14.086H68.689v-14.086H29.518c-3.219,0-5.46,0.579-6.726,1.74
		c-1.268,1.16-1.9,3.455-1.9,6.885c0,2.638,0.159,4.854,0.476,6.647H2.296c-1.53-4.802-2.295-9.813-2.295-15.036
		c0-9.18,2.163-15.958,6.489-20.337c4.324-4.379,10.893-6.568,19.704-6.568h42.495v-10.92h18.518v10.92h21.287V506.935z"/>
	<path style="fill:#7C8FC8;" d="M109.285,531.308c3.799,0,6.91,1.371,9.338,4.115c2.426,2.742,3.641,6.304,3.641,10.684
		c0,4.378-1.215,7.939-3.641,10.682c-2.428,2.743-5.539,4.115-9.338,4.115s-6.912-1.372-9.338-4.115
		c-2.427-2.742-3.64-6.304-3.64-10.682c0-4.38,1.213-7.941,3.64-10.684C102.373,532.679,105.486,531.308,109.285,531.308z
		 M1.583,559.638v-26.747h85.624v26.747H1.583z"/>
	<path style="fill:#7C8FC8;" d="M45.186,572.694c8.547,0,16.156,1.662,22.83,4.986s11.804,8.098,15.393,14.323
		c3.586,6.225,5.381,13.532,5.381,21.92c0,12.819-3.971,22.922-11.91,30.309c-7.94,7.386-18.741,11.079-32.405,11.079h-0.949
		c-13.348,0-23.938-3.708-31.772-11.118C3.917,636.78,0,626.743,0,614.083c0-12.188,3.652-21.975,10.961-29.36
		c7.306-7.387,17.211-11.368,29.714-11.949L45.186,572.694z M43.524,599.363c-7.913,0-13.718,1.239-17.41,3.72
		c-3.693,2.479-5.539,6.146-5.539,11c0,9.495,7.306,14.349,21.92,14.56h2.69c15.353,0,23.028-4.906,23.028-14.719
		c0-8.916-6.621-13.743-19.862-14.481L43.524,599.363z"/>
	<path style="fill:#7C8FC8;" d="M87.206,691.555l-10.05,0.87c7.755,5.907,11.633,14.059,11.633,24.453
		c0,8.915-2.665,15.575-7.992,19.98c-5.33,4.404-13.349,6.688-24.058,6.846H1.583v-26.748h54.049c4.325,0,7.505-0.87,9.535-2.611
		c2.031-1.741,3.047-4.906,3.047-9.495c0-5.224-2.058-9.102-6.173-11.634H1.583v-26.668h85.623V691.555z"/>
</g>
</svg>
