<?xml version="1.0" encoding="iso-8859-1"?>
<!-- Generator: Adobe Illustrator 16.0.0, SVG Export Plug-In . SVG Version: 6.00 Build 0)  -->
<!DOCTYPE svg PUBLIC "-//W3C//DTD SVG 1.1//EN" "http://www.w3.org/Graphics/SVG/1.1/DTD/svg11.dtd">
<svg version="1.1" xmlns="http://www.w3.org/2000/svg" xmlns:xlink="http://www.w3.org/1999/xlink" x="0px" y="0px"
	 width="99.036px" height="99.035px" viewBox="0 0 99.036 99.035" style="enable-background:new 0 0 99.036 99.035;"
	 xml:space="preserve">
<g id="_x31_6">
	<path style="fill:#262626;" d="M553.278,0c13.682,0,26.047,5.538,35.014,14.504c8.966,8.966,14.504,21.332,14.504,35.013
		s-5.538,26.047-14.504,35.013c-8.967,8.966-21.332,14.504-35.014,14.504c-13.683,0-26.048-5.538-35.013-14.504
		c-8.968-8.966-14.506-21.332-14.506-35.013s5.538-26.047,14.506-35.013C527.23,5.538,539.596,0,553.278,0L553.278,0z
		 M585.55,17.246c-8.254-8.253-19.658-13.381-32.271-13.381c-12.614,0-24.019,5.128-32.272,13.381
		c-8.279,8.253-13.38,19.659-13.38,32.271c0,12.613,5.101,24.019,13.38,32.299c8.254,8.253,19.658,13.353,32.272,13.353
		c12.613,0,24.018-5.1,32.271-13.353c8.28-8.28,13.38-19.686,13.38-32.299C598.93,36.905,593.83,25.499,585.55,17.246L585.55,17.246
		z"/>
	<path style="fill:#262626;" d="M-76.415,123.027c13.682,0,26.048,5.565,35.014,14.504c8.966,8.966,14.504,21.359,14.504,35.042
		c0,13.653-5.539,26.047-14.504,35.012c-8.966,8.939-21.332,14.505-35.014,14.505s-26.047-5.566-35.013-14.505
		c-8.966-8.965-14.504-21.359-14.504-35.012c0-13.683,5.539-26.075,14.504-35.042C-102.462,128.592-90.097,123.027-76.415,123.027
		L-76.415,123.027z M-44.116,140.273c-8.28-8.254-19.687-13.353-32.299-13.353c-12.612,0-24.019,5.099-32.271,13.353
		c-8.253,8.253-13.38,19.687-13.38,32.299c0,12.584,5.127,24.019,13.38,32.271c8.253,8.252,19.66,13.38,32.271,13.38
		c12.612,0,24.019-5.127,32.299-13.38c8.253-8.253,13.353-19.687,13.353-32.271C-30.763,159.959-35.863,148.526-44.116,140.273
		L-44.116,140.273z"/>
	<path style="fill:#262626;" d="M49.518,123.027c13.682,0,26.075,5.565,35.013,14.504c8.966,8.966,14.505,21.359,14.505,35.042
		c0,13.653-5.539,26.047-14.505,35.012c-8.938,8.939-21.332,14.505-35.013,14.505c-13.654,0-26.047-5.566-35.013-14.505
		C5.539,198.62,0,186.226,0,172.572c0-13.683,5.539-26.075,14.505-35.042C23.471,128.592,35.864,123.027,49.518,123.027
		L49.518,123.027z M81.817,140.273c-8.281-8.254-19.687-13.353-32.299-13.353c-12.585,0-24.019,5.099-32.271,13.353
		c-8.254,8.253-13.381,19.687-13.381,32.299c0,12.584,5.127,24.019,13.381,32.271c8.252,8.252,19.686,13.38,32.271,13.38
		c12.613,0,24.019-5.127,32.299-13.38c8.253-8.253,13.353-19.687,13.353-32.271C95.17,159.959,90.07,148.526,81.817,140.273
		L81.817,140.273z"/>
	<path style="fill:#262626;" d="M175.479,123.027c13.654,0,26.047,5.565,35.013,14.504c8.938,8.966,14.505,21.359,14.505,35.042
		c0,13.653-5.566,26.047-14.505,35.012c-8.966,8.939-21.359,14.505-35.013,14.505c-13.682,0-26.075-5.566-35.041-14.505
		c-8.939-8.965-14.505-21.359-14.505-35.012c0-13.683,5.565-26.075,14.505-35.042C149.404,128.592,161.797,123.027,175.479,123.027
		L175.479,123.027z M207.75,140.273c-8.252-8.254-19.687-13.353-32.271-13.353c-12.613,0-24.046,5.099-32.299,13.353
		c-8.253,8.253-13.353,19.687-13.353,32.299c0,12.584,5.1,24.019,13.353,32.271c8.253,8.252,19.687,13.38,32.299,13.38
		c12.584,0,24.019-5.127,32.271-13.38c8.253-8.253,13.381-19.687,13.381-32.271C221.131,159.959,216.003,148.526,207.75,140.273
		L207.75,140.273z"/>
	<path style="fill:#262626;" d="M301.411,123.027c13.655,0,26.049,5.565,35.014,14.504c8.966,8.966,14.506,21.359,14.506,35.042
		c0,13.653-5.54,26.047-14.506,35.012c-8.965,8.939-21.358,14.505-35.014,14.505c-13.682,0-26.075-5.566-35.013-14.505
		c-8.966-8.965-14.504-21.359-14.504-35.012c0-13.683,5.538-26.075,14.504-35.042C275.336,128.592,287.729,123.027,301.411,123.027
		L301.411,123.027z M333.684,140.273c-8.253-8.254-19.658-13.353-32.272-13.353c-12.612,0-24.018,5.099-32.299,13.353
		c-8.252,8.253-13.352,19.687-13.352,32.299c0,12.584,5.1,24.019,13.352,32.271c8.281,8.252,19.687,13.38,32.299,13.38
		c12.614,0,24.02-5.127,32.272-13.38c8.253-8.253,13.38-19.687,13.38-32.271C347.063,159.959,341.937,148.526,333.684,140.273
		L333.684,140.273z"/>
	<path style="fill:#262626;" d="M427.345,123.027c13.683,0,26.048,5.565,35.014,14.504c8.965,8.966,14.505,21.359,14.505,35.042
		c0,13.653-5.54,26.047-14.505,35.012c-8.966,8.939-21.331,14.505-35.014,14.505s-26.048-5.566-35.014-14.505
		c-8.965-8.965-14.504-21.359-14.504-35.012c0-13.683,5.539-26.075,14.504-35.042C401.297,128.592,413.662,123.027,427.345,123.027
		L427.345,123.027z M459.617,140.273c-8.254-8.254-19.66-13.353-32.272-13.353s-24.019,5.099-32.272,13.353
		c-8.278,8.253-13.379,19.687-13.379,32.299c0,12.584,5.101,24.019,13.379,32.271c8.254,8.252,19.66,13.38,32.272,13.38
		s24.019-5.127,32.272-13.38c8.279-8.253,13.378-19.687,13.378-32.271C472.995,159.959,467.896,148.526,459.617,140.273
		L459.617,140.273z"/>
	<path style="fill:#262626;" d="M553.278,123.027c13.682,0,26.047,5.565,35.014,14.504c8.966,8.966,14.504,21.359,14.504,35.042
		c0,13.653-5.538,26.047-14.504,35.012c-8.967,8.939-21.332,14.505-35.014,14.505c-13.683,0-26.048-5.566-35.013-14.505
		c-8.968-8.965-14.506-21.359-14.506-35.012c0-13.683,5.538-26.075,14.506-35.042C527.23,128.592,539.596,123.027,553.278,123.027
		L553.278,123.027z M585.55,140.273c-8.254-8.254-19.658-13.353-32.271-13.353c-12.614,0-24.019,5.099-32.272,13.353
		c-8.279,8.253-13.38,19.687-13.38,32.299c0,12.584,5.101,24.019,13.38,32.271c8.254,8.252,19.658,13.38,32.272,13.38
		c12.613,0,24.018-5.127,32.271-13.38c8.28-8.253,13.38-19.687,13.38-32.271C598.93,159.959,593.83,148.526,585.55,140.273
		L585.55,140.273z"/>
	<path style="fill:#262626;" d="M-76.415,246.081c13.682,0,26.048,5.538,35.014,14.504c8.966,8.966,14.504,21.332,14.504,35.013
		c0,13.682-5.539,26.048-14.504,35.013c-8.966,8.967-21.332,14.505-35.014,14.505s-26.047-5.539-35.013-14.505
		c-8.966-8.965-14.504-21.331-14.504-35.013c0-13.682,5.539-26.047,14.504-35.013C-102.462,251.619-90.097,246.081-76.415,246.081
		L-76.415,246.081z M-44.116,263.327c-8.28-8.281-19.687-13.38-32.299-13.38c-12.612,0-24.019,5.1-32.271,13.38
		c-8.253,8.253-13.38,19.659-13.38,32.271c0,12.613,5.127,24.02,13.38,32.271c8.253,8.281,19.66,13.38,32.271,13.38
		c12.612,0,24.019-5.1,32.299-13.38c8.253-8.252,13.353-19.659,13.353-32.271C-30.763,282.986-35.863,271.58-44.116,263.327
		L-44.116,263.327z"/>
	<path style="fill:#262626;" d="M49.518,246.081c13.682,0,26.075,5.538,35.013,14.504c8.966,8.966,14.505,21.332,14.505,35.013
		c0,13.682-5.539,26.048-14.505,35.013c-8.938,8.967-21.332,14.505-35.013,14.505c-13.654,0-26.047-5.539-35.013-14.505
		C5.539,321.646,0,309.28,0,295.598c0-13.682,5.539-26.047,14.505-35.013C23.471,251.619,35.864,246.081,49.518,246.081
		L49.518,246.081z M81.817,263.327c-8.281-8.281-19.687-13.38-32.299-13.38c-12.585,0-24.019,5.1-32.271,13.38
		c-8.254,8.253-13.381,19.659-13.381,32.271c0,12.613,5.127,24.02,13.381,32.271c8.252,8.281,19.686,13.38,32.271,13.38
		c12.613,0,24.019-5.1,32.299-13.38c8.253-8.252,13.353-19.659,13.353-32.271C95.17,282.986,90.07,271.58,81.817,263.327
		L81.817,263.327z"/>
	<path style="fill:#262626;" d="M175.479,246.081c13.654,0,26.047,5.538,35.013,14.504c8.938,8.966,14.505,21.332,14.505,35.013
		c0,13.682-5.566,26.048-14.505,35.013c-8.966,8.967-21.359,14.505-35.013,14.505c-13.682,0-26.075-5.539-35.041-14.505
		c-8.939-8.965-14.505-21.331-14.505-35.013c0-13.682,5.565-26.047,14.505-35.013C149.404,251.619,161.797,246.081,175.479,246.081
		L175.479,246.081z M207.75,263.327c-8.252-8.281-19.687-13.38-32.271-13.38c-12.613,0-24.046,5.1-32.299,13.38
		c-8.253,8.253-13.353,19.659-13.353,32.271c0,12.613,5.1,24.02,13.353,32.271c8.253,8.281,19.687,13.38,32.299,13.38
		c12.584,0,24.019-5.1,32.271-13.38c8.253-8.252,13.381-19.659,13.381-32.271C221.131,282.986,216.003,271.58,207.75,263.327
		L207.75,263.327z"/>
	<path style="fill:#262626;" d="M301.411,246.081c13.655,0,26.049,5.538,35.014,14.504c8.966,8.966,14.506,21.332,14.506,35.013
		c0,13.682-5.54,26.048-14.506,35.013c-8.965,8.967-21.358,14.505-35.014,14.505c-13.682,0-26.075-5.539-35.013-14.505
		c-8.966-8.965-14.504-21.331-14.504-35.013c0-13.682,5.538-26.047,14.504-35.013C275.336,251.619,287.729,246.081,301.411,246.081
		L301.411,246.081z M333.684,263.327c-8.253-8.281-19.658-13.38-32.272-13.38c-12.612,0-24.018,5.1-32.299,13.38
		c-8.252,8.253-13.352,19.659-13.352,32.271c0,12.613,5.1,24.02,13.352,32.271c8.281,8.281,19.687,13.38,32.299,13.38
		c12.614,0,24.02-5.1,32.272-13.38c8.253-8.252,13.38-19.659,13.38-32.271C347.063,282.986,341.937,271.58,333.684,263.327
		L333.684,263.327z"/>
	<path style="fill:#262626;" d="M427.345,246.081c13.683,0,26.048,5.538,35.014,14.504c8.965,8.966,14.505,21.332,14.505,35.013
		c0,13.682-5.54,26.048-14.505,35.013c-8.966,8.967-21.331,14.505-35.014,14.505s-26.048-5.539-35.014-14.505
		c-8.965-8.965-14.504-21.331-14.504-35.013c0-13.682,5.539-26.047,14.504-35.013C401.297,251.619,413.662,246.081,427.345,246.081
		L427.345,246.081z M459.617,263.327c-8.254-8.281-19.66-13.38-32.272-13.38s-24.019,5.1-32.272,13.38
		c-8.278,8.253-13.379,19.659-13.379,32.271c0,12.613,5.101,24.02,13.379,32.271c8.254,8.281,19.66,13.38,32.272,13.38
		s24.019-5.1,32.272-13.38c8.279-8.252,13.378-19.659,13.378-32.271C472.995,282.986,467.896,271.58,459.617,263.327
		L459.617,263.327z"/>
	<path style="fill:#262626;" d="M553.278,246.081c13.682,0,26.047,5.538,35.014,14.504c8.966,8.966,14.504,21.332,14.504,35.013
		c0,13.682-5.538,26.048-14.504,35.013c-8.967,8.967-21.332,14.505-35.014,14.505c-13.683,0-26.048-5.539-35.013-14.505
		c-8.968-8.965-14.506-21.331-14.506-35.013c0-13.682,5.538-26.047,14.506-35.013C527.23,251.619,539.596,246.081,553.278,246.081
		L553.278,246.081z M585.55,263.327c-8.254-8.281-19.658-13.38-32.271-13.38c-12.614,0-24.019,5.1-32.272,13.38
		c-8.279,8.253-13.38,19.659-13.38,32.271c0,12.613,5.101,24.02,13.38,32.271c8.254,8.281,19.658,13.38,32.272,13.38
		c12.613,0,24.018-5.1,32.271-13.38c8.28-8.252,13.38-19.659,13.38-32.271C598.93,282.986,593.83,271.58,585.55,263.327
		L585.55,263.327z"/>
	<path style="fill:#262626;" d="M-76.415,369.107c13.682,0,26.048,5.54,35.014,14.504c8.966,8.967,14.504,21.359,14.504,35.014
		c0,13.683-5.539,26.048-14.504,35.015c-8.966,8.965-21.332,14.504-35.014,14.504s-26.047-5.539-35.013-14.504
		c-8.966-8.967-14.504-21.332-14.504-35.015c0-13.654,5.539-26.047,14.504-35.014C-102.462,374.647-90.097,369.107-76.415,369.107
		L-76.415,369.107z M-44.116,386.354c-8.28-8.253-19.687-13.381-32.299-13.381c-12.612,0-24.019,5.128-32.271,13.381
		c-8.253,8.253-13.38,19.659-13.38,32.271c0,12.613,5.127,24.019,13.38,32.299c8.253,8.253,19.66,13.354,32.271,13.354
		c12.612,0,24.019-5.101,32.299-13.354c8.253-8.28,13.353-19.686,13.353-32.299C-30.763,406.013-35.863,394.607-44.116,386.354
		L-44.116,386.354z"/>
	<path style="fill:#262626;" d="M49.518,369.107c13.682,0,26.075,5.54,35.013,14.504c8.966,8.967,14.505,21.359,14.505,35.014
		c0,13.683-5.539,26.048-14.505,35.015c-8.938,8.965-21.332,14.504-35.013,14.504c-13.654,0-26.047-5.539-35.013-14.504
		C5.539,444.672,0,432.307,0,418.625c0-13.654,5.539-26.047,14.505-35.014C23.471,374.647,35.864,369.107,49.518,369.107
		L49.518,369.107z M81.817,386.354c-8.281-8.253-19.687-13.381-32.299-13.381c-12.585,0-24.019,5.128-32.271,13.381
		c-8.254,8.253-13.381,19.659-13.381,32.271c0,12.613,5.127,24.019,13.381,32.299c8.252,8.253,19.686,13.354,32.271,13.354
		c12.613,0,24.019-5.101,32.299-13.354c8.253-8.28,13.353-19.686,13.353-32.299C95.17,406.013,90.07,394.607,81.817,386.354
		L81.817,386.354z"/>
	<path style="fill:#262626;" d="M175.479,369.107c13.654,0,26.047,5.54,35.013,14.504c8.938,8.967,14.505,21.359,14.505,35.014
		c0,13.683-5.566,26.048-14.505,35.015c-8.966,8.965-21.359,14.504-35.013,14.504c-13.682,0-26.075-5.539-35.041-14.504
		c-8.939-8.967-14.505-21.332-14.505-35.015c0-13.654,5.565-26.047,14.505-35.014C149.404,374.647,161.797,369.107,175.479,369.107
		L175.479,369.107z M207.75,386.354c-8.252-8.253-19.687-13.381-32.271-13.381c-12.613,0-24.046,5.128-32.299,13.381
		s-13.353,19.659-13.353,32.271c0,12.613,5.1,24.019,13.353,32.299c8.253,8.253,19.687,13.354,32.299,13.354
		c12.584,0,24.019-5.101,32.271-13.354c8.253-8.28,13.381-19.686,13.381-32.299C221.131,406.013,216.003,394.607,207.75,386.354
		L207.75,386.354z"/>
	<path style="fill:#262626;" d="M301.411,369.107c13.655,0,26.049,5.54,35.014,14.504c8.966,8.967,14.506,21.359,14.506,35.014
		c0,13.683-5.54,26.048-14.506,35.015c-8.965,8.965-21.358,14.504-35.014,14.504c-13.682,0-26.075-5.539-35.013-14.504
		c-8.966-8.967-14.504-21.332-14.504-35.015c0-13.654,5.538-26.047,14.504-35.014C275.336,374.647,287.729,369.107,301.411,369.107
		L301.411,369.107z M333.684,386.354c-8.253-8.253-19.658-13.381-32.272-13.381c-12.612,0-24.018,5.128-32.299,13.381
		c-8.252,8.253-13.352,19.659-13.352,32.271c0,12.613,5.1,24.019,13.352,32.299c8.281,8.253,19.687,13.354,32.299,13.354
		c12.614,0,24.02-5.101,32.272-13.354c8.253-8.28,13.38-19.686,13.38-32.299C347.063,406.013,341.937,394.607,333.684,386.354
		L333.684,386.354z"/>
	<path style="fill:#262626;" d="M427.345,369.107c13.683,0,26.048,5.54,35.014,14.504c8.965,8.967,14.505,21.359,14.505,35.014
		c0,13.683-5.54,26.048-14.505,35.015c-8.966,8.965-21.331,14.504-35.014,14.504s-26.048-5.539-35.014-14.504
		c-8.965-8.967-14.504-21.332-14.504-35.015c0-13.654,5.539-26.047,14.504-35.014C401.297,374.647,413.662,369.107,427.345,369.107
		L427.345,369.107z M459.617,386.354c-8.254-8.253-19.66-13.381-32.272-13.381s-24.019,5.128-32.272,13.381
		c-8.278,8.253-13.379,19.659-13.379,32.271c0,12.613,5.101,24.019,13.379,32.299c8.254,8.253,19.66,13.354,32.272,13.354
		s24.019-5.101,32.272-13.354c8.279-8.28,13.378-19.686,13.378-32.299C472.995,406.013,467.896,394.607,459.617,386.354
		L459.617,386.354z"/>
	<path style="fill:#262626;" d="M553.278,369.107c13.682,0,26.047,5.54,35.014,14.504c8.966,8.967,14.504,21.359,14.504,35.014
		c0,13.683-5.538,26.048-14.504,35.015c-8.967,8.965-21.332,14.504-35.014,14.504c-13.683,0-26.048-5.539-35.013-14.504
		c-8.968-8.967-14.506-21.332-14.506-35.015c0-13.654,5.538-26.047,14.506-35.014C527.23,374.647,539.596,369.107,553.278,369.107
		L553.278,369.107z M585.55,386.354c-8.254-8.253-19.658-13.381-32.271-13.381c-12.614,0-24.019,5.128-32.272,13.381
		c-8.279,8.253-13.38,19.659-13.38,32.271c0,12.613,5.101,24.019,13.38,32.299c8.254,8.253,19.658,13.354,32.272,13.354
		c12.613,0,24.018-5.101,32.271-13.354c8.28-8.28,13.38-19.686,13.38-32.299C598.93,406.013,593.83,394.607,585.55,386.354
		L585.55,386.354z"/>
	<path style="fill:#262626;" d="M-76.415,492.133c13.682,0,26.048,5.568,35.014,14.505c8.966,8.967,14.504,21.358,14.504,35.042
		c0,13.653-5.539,26.046-14.504,35.014c-8.966,8.965-21.332,14.503-35.014,14.503s-26.047-5.538-35.013-14.503
		c-8.966-8.968-14.504-21.36-14.504-35.014c0-13.684,5.539-26.075,14.504-35.042C-102.462,497.702-90.097,492.133-76.415,492.133
		L-76.415,492.133z M-44.116,509.381c-8.28-8.254-19.687-13.354-32.299-13.354c-12.612,0-24.019,5.101-32.271,13.354
		c-8.253,8.279-13.38,19.686-13.38,32.299c0,12.584,5.127,24.018,13.38,32.27c8.253,8.254,19.66,13.381,32.271,13.381
		c12.612,0,24.019-5.127,32.299-13.381c8.253-8.252,13.353-19.686,13.353-32.27C-30.763,529.067-35.863,517.661-44.116,509.381
		L-44.116,509.381z"/>
	<path style="fill:#262626;" d="M49.518,492.133c13.682,0,26.075,5.568,35.013,14.505c8.966,8.967,14.505,21.358,14.505,35.042
		c0,13.653-5.539,26.046-14.505,35.014c-8.938,8.965-21.332,14.503-35.013,14.503c-13.654,0-26.047-5.538-35.013-14.503
		C5.539,567.726,0,555.333,0,541.68c0-13.684,5.539-26.075,14.505-35.042C23.471,497.702,35.864,492.133,49.518,492.133
		L49.518,492.133z M81.817,509.381c-8.281-8.254-19.687-13.354-32.299-13.354c-12.585,0-24.019,5.101-32.271,13.354
		c-8.254,8.279-13.381,19.686-13.381,32.299c0,12.584,5.127,24.018,13.381,32.27c8.252,8.254,19.686,13.381,32.271,13.381
		c12.613,0,24.019-5.127,32.299-13.381c8.253-8.252,13.353-19.686,13.353-32.27C95.17,529.067,90.07,517.661,81.817,509.381
		L81.817,509.381z"/>
	<path style="fill:#262626;" d="M175.479,492.133c13.654,0,26.047,5.568,35.013,14.505c8.938,8.967,14.505,21.358,14.505,35.042
		c0,13.653-5.566,26.046-14.505,35.014c-8.966,8.965-21.359,14.503-35.013,14.503c-13.682,0-26.075-5.538-35.041-14.503
		c-8.939-8.968-14.505-21.36-14.505-35.014c0-13.684,5.565-26.075,14.505-35.042C149.404,497.702,161.797,492.133,175.479,492.133
		L175.479,492.133z M207.75,509.381c-8.252-8.254-19.687-13.354-32.271-13.354c-12.613,0-24.046,5.101-32.299,13.354
		c-8.253,8.279-13.353,19.686-13.353,32.299c0,12.584,5.1,24.018,13.353,32.27c8.253,8.254,19.687,13.381,32.299,13.381
		c12.584,0,24.019-5.127,32.271-13.381c8.253-8.252,13.381-19.686,13.381-32.27C221.131,529.067,216.003,517.661,207.75,509.381
		L207.75,509.381z"/>
	<path style="fill:#262626;" d="M301.411,492.133c13.655,0,26.049,5.568,35.014,14.505c8.966,8.967,14.506,21.358,14.506,35.042
		c0,13.653-5.54,26.046-14.506,35.014c-8.965,8.965-21.358,14.503-35.014,14.503c-13.682,0-26.075-5.538-35.013-14.503
		c-8.966-8.968-14.504-21.36-14.504-35.014c0-13.684,5.538-26.075,14.504-35.042C275.336,497.702,287.729,492.133,301.411,492.133
		L301.411,492.133z M333.684,509.381c-8.253-8.254-19.658-13.354-32.272-13.354c-12.612,0-24.018,5.101-32.299,13.354
		c-8.252,8.279-13.352,19.686-13.352,32.299c0,12.584,5.1,24.018,13.352,32.27c8.281,8.254,19.687,13.381,32.299,13.381
		c12.614,0,24.02-5.127,32.272-13.381c8.253-8.252,13.38-19.686,13.38-32.27C347.063,529.067,341.937,517.661,333.684,509.381
		L333.684,509.381z"/>
	<path style="fill:#262626;" d="M427.345,492.133c13.683,0,26.048,5.568,35.014,14.505c8.965,8.967,14.505,21.358,14.505,35.042
		c0,13.653-5.54,26.046-14.505,35.014c-8.966,8.965-21.331,14.503-35.014,14.503s-26.048-5.538-35.014-14.503
		c-8.965-8.968-14.504-21.36-14.504-35.014c0-13.684,5.539-26.075,14.504-35.042C401.297,497.702,413.662,492.133,427.345,492.133
		L427.345,492.133z M459.617,509.381c-8.254-8.254-19.66-13.354-32.272-13.354s-24.019,5.101-32.272,13.354
		c-8.278,8.279-13.379,19.686-13.379,32.299c0,12.584,5.101,24.018,13.379,32.27c8.254,8.254,19.66,13.381,32.272,13.381
		s24.019-5.127,32.272-13.381c8.279-8.252,13.378-19.686,13.378-32.27C472.995,529.067,467.896,517.661,459.617,509.381
		L459.617,509.381z"/>
	<path style="fill:#262626;" d="M553.278,492.133c13.682,0,26.047,5.568,35.014,14.505c8.966,8.967,14.504,21.358,14.504,35.042
		c0,13.653-5.538,26.046-14.504,35.014c-8.967,8.965-21.332,14.503-35.014,14.503c-13.683,0-26.048-5.538-35.013-14.503
		c-8.968-8.968-14.506-21.36-14.506-35.014c0-13.684,5.538-26.075,14.506-35.042C527.23,497.702,539.596,492.133,553.278,492.133
		L553.278,492.133z M585.55,509.381c-8.254-8.254-19.658-13.354-32.271-13.354c-12.614,0-24.019,5.101-32.272,13.354
		c-8.279,8.279-13.38,19.686-13.38,32.299c0,12.584,5.101,24.018,13.38,32.27c8.254,8.254,19.658,13.381,32.272,13.381
		c12.613,0,24.018-5.127,32.271-13.381c8.28-8.252,13.38-19.686,13.38-32.27C598.93,529.067,593.83,517.661,585.55,509.381
		L585.55,509.381z"/>
	<path style="fill:#262626;" d="M-76.415,615.187c13.682,0,26.048,5.54,35.014,14.506c8.966,8.965,14.504,21.331,14.504,35.014
		c0,13.681-5.539,26.047-14.504,35.014c-8.966,8.965-21.332,14.504-35.014,14.504s-26.047-5.539-35.013-14.504
		c-8.966-8.967-14.504-21.333-14.504-35.014c0-13.683,5.539-26.049,14.504-35.014C-102.462,620.727-90.097,615.187-76.415,615.187
		L-76.415,615.187z M-44.116,632.435c-8.28-8.28-19.687-13.381-32.299-13.381c-12.612,0-24.019,5.101-32.271,13.381
		c-8.253,8.253-13.38,19.658-13.38,32.271c0,12.611,5.127,24.018,13.38,32.271c8.253,8.281,19.66,13.38,32.271,13.38
		c12.612,0,24.019-5.099,32.299-13.38c8.253-8.253,13.353-19.659,13.353-32.271C-30.763,652.093-35.863,640.688-44.116,632.435
		L-44.116,632.435z"/>
	<path style="fill:#262626;" d="M49.518,615.187c13.682,0,26.075,5.54,35.013,14.506c8.966,8.965,14.505,21.331,14.505,35.014
		c0,13.681-5.539,26.047-14.505,35.014c-8.938,8.965-21.332,14.504-35.013,14.504c-13.654,0-26.047-5.539-35.013-14.504
		C5.539,690.753,0,678.387,0,664.707c0-13.683,5.539-26.049,14.505-35.014C23.471,620.727,35.864,615.187,49.518,615.187
		L49.518,615.187z M81.817,632.435c-8.281-8.28-19.687-13.381-32.299-13.381c-12.585,0-24.019,5.101-32.271,13.381
		c-8.254,8.253-13.381,19.658-13.381,32.271c0,12.611,5.127,24.018,13.381,32.271c8.252,8.281,19.686,13.38,32.271,13.38
		c12.613,0,24.019-5.099,32.299-13.38c8.253-8.253,13.353-19.659,13.353-32.271C95.17,652.093,90.07,640.688,81.817,632.435
		L81.817,632.435z"/>
	<path style="fill:#262626;" d="M175.479,615.187c13.654,0,26.047,5.54,35.013,14.506c8.938,8.965,14.505,21.331,14.505,35.014
		c0,13.681-5.566,26.047-14.505,35.014c-8.966,8.965-21.359,14.504-35.013,14.504c-13.682,0-26.075-5.539-35.041-14.504
		c-8.939-8.967-14.505-21.333-14.505-35.014c0-13.683,5.565-26.049,14.505-35.014C149.404,620.727,161.797,615.187,175.479,615.187
		L175.479,615.187z M207.75,632.435c-8.252-8.28-19.687-13.381-32.271-13.381c-12.613,0-24.046,5.101-32.299,13.381
		c-8.253,8.253-13.353,19.658-13.353,32.271c0,12.611,5.1,24.018,13.353,32.271c8.253,8.281,19.687,13.38,32.299,13.38
		c12.584,0,24.019-5.099,32.271-13.38c8.253-8.253,13.381-19.659,13.381-32.271C221.131,652.093,216.003,640.688,207.75,632.435
		L207.75,632.435z"/>
	<path style="fill:#262626;" d="M301.411,615.187c13.655,0,26.049,5.54,35.014,14.506c8.966,8.965,14.506,21.331,14.506,35.014
		c0,13.681-5.54,26.047-14.506,35.014c-8.965,8.965-21.358,14.504-35.014,14.504c-13.682,0-26.075-5.539-35.013-14.504
		c-8.966-8.967-14.504-21.333-14.504-35.014c0-13.683,5.538-26.049,14.504-35.014C275.336,620.727,287.729,615.187,301.411,615.187
		L301.411,615.187z M333.684,632.435c-8.253-8.28-19.658-13.381-32.272-13.381c-12.612,0-24.018,5.101-32.299,13.381
		c-8.252,8.253-13.352,19.658-13.352,32.271c0,12.611,5.1,24.018,13.352,32.271c8.281,8.281,19.687,13.38,32.299,13.38
		c12.614,0,24.02-5.099,32.272-13.38c8.253-8.253,13.38-19.659,13.38-32.271C347.063,652.093,341.937,640.688,333.684,632.435
		L333.684,632.435z"/>
	<path style="fill:#262626;" d="M427.345,615.187c13.683,0,26.048,5.54,35.014,14.506c8.965,8.965,14.505,21.331,14.505,35.014
		c0,13.681-5.54,26.047-14.505,35.014c-8.966,8.965-21.331,14.504-35.014,14.504s-26.048-5.539-35.014-14.504
		c-8.965-8.967-14.504-21.333-14.504-35.014c0-13.683,5.539-26.049,14.504-35.014C401.297,620.727,413.662,615.187,427.345,615.187
		L427.345,615.187z M459.617,632.435c-8.254-8.28-19.66-13.381-32.272-13.381s-24.019,5.101-32.272,13.381
		c-8.278,8.253-13.379,19.658-13.379,32.271c0,12.611,5.101,24.018,13.379,32.271c8.254,8.281,19.66,13.38,32.272,13.38
		s24.019-5.099,32.272-13.38c8.279-8.253,13.378-19.659,13.378-32.271C472.995,652.093,467.896,640.688,459.617,632.435
		L459.617,632.435z"/>
	<path style="fill:#262626;" d="M553.278,615.187c13.682,0,26.047,5.54,35.014,14.506c8.966,8.965,14.504,21.331,14.504,35.014
		c0,13.681-5.538,26.047-14.504,35.014c-8.967,8.965-21.332,14.504-35.014,14.504c-13.683,0-26.048-5.539-35.013-14.504
		c-8.968-8.967-14.506-21.333-14.506-35.014c0-13.683,5.538-26.049,14.506-35.014C527.23,620.727,539.596,615.187,553.278,615.187
		L553.278,615.187z M585.55,632.435c-8.254-8.28-19.658-13.381-32.271-13.381c-12.614,0-24.019,5.101-32.272,13.381
		c-8.279,8.253-13.38,19.658-13.38,32.271c0,12.611,5.101,24.018,13.38,32.271c8.254,8.281,19.658,13.38,32.272,13.38
		c12.613,0,24.018-5.099,32.271-13.38c8.28-8.253,13.38-19.659,13.38-32.271C598.93,652.093,593.83,640.688,585.55,632.435
		L585.55,632.435z"/>
	<g>
		<path style="fill:#878787;" d="M-76.415,0c13.682,0,26.048,5.538,35.014,14.504c8.966,8.966,14.504,21.332,14.504,35.013
			s-5.539,26.047-14.504,35.013c-8.966,8.966-21.332,14.504-35.014,14.504s-26.047-5.538-35.013-14.504
			c-8.966-8.966-14.504-21.332-14.504-35.013s5.539-26.047,14.504-35.013C-102.462,5.538-90.097,0-76.415,0L-76.415,0z
			 M-44.116,17.246c-8.28-8.253-19.687-13.381-32.299-13.381c-12.612,0-24.019,5.128-32.271,13.381
			c-8.253,8.253-13.38,19.659-13.38,32.271c0,12.613,5.127,24.019,13.38,32.299c8.253,8.253,19.66,13.353,32.271,13.353
			c12.612,0,24.019-5.1,32.299-13.353c8.253-8.28,13.353-19.686,13.353-32.299C-30.763,36.905-35.863,25.499-44.116,17.246
			L-44.116,17.246z"/>
		<path style="fill-rule:evenodd;clip-rule:evenodd;fill:#878787;" d="M-72.631,39.4v-4.058c0-1.947,1.289-2.413,2.222-2.413
			c0.904,0,5.675,0,5.675,0v-8.665h-7.814c-8.691,0-10.638,6.416-10.638,10.583V39.4h-5.045v6.114v4.003h5.1
			c0,11.488,0,25.28,0,25.28h10.118c0,0,0-13.984,0-25.28h7.485l0.33-3.976l0.603-6.142H-72.631z"/>
	</g>
	<path style="fill-rule:evenodd;clip-rule:evenodd;fill:#262626;" d="M575.404,669.697c0.356-1.563,0.522-3.126,0.522-4.744
		c0-0.576,0-1.151-0.056-1.7c-0.877-11.406-10.53-20.399-22.346-20.399c-1.29,0-2.578,0.084-3.84,0.302
		c-2-1.233-4.359-1.946-6.909-1.946c-7.184,0-12.997,5.729-12.997,12.831c0,2.332,0.631,4.58,1.783,6.472
		c-0.164,0.795-0.301,1.617-0.384,2.413c-0.027,0.685-0.082,1.342-0.082,2.028c0,12.201,10.036,22.101,22.429,22.101
		c1.399,0,2.769-0.139,4.111-0.385c1.811,0.987,3.896,1.535,6.143,1.535c7.184,0,12.996-5.758,12.996-12.831
		C576.775,673.342,576.255,671.395,575.404,669.697L575.404,669.697z M565.013,675.509c-1.015,1.426-2.55,2.577-4.523,3.428
		c-2.001,0.795-4.332,1.179-7.047,1.179c-3.207,0-5.922-0.55-8.006-1.646c-1.509-0.823-2.742-1.866-3.702-3.236
		c-0.932-1.342-1.398-2.687-1.398-4.003c0-0.822,0.274-1.479,0.934-2.082c0.575-0.55,1.397-0.853,2.33-0.853
		c0.739,0,1.425,0.221,1.975,0.687c0.52,0.411,0.932,1.042,1.314,1.893c0.386,0.905,0.797,1.672,1.263,2.248
		c0.438,0.549,1.069,1.069,1.863,1.453c0.85,0.385,1.92,0.548,3.264,0.548c1.863,0,3.398-0.383,4.523-1.151
		c1.098-0.768,1.646-1.645,1.646-2.742c0-0.905-0.247-1.563-0.821-2.137c-0.659-0.55-1.454-0.961-2.415-1.289
		c-1.015-0.303-2.412-0.658-4.112-0.989c-2.33-0.492-4.332-1.095-5.894-1.726c-1.591-0.685-2.88-1.617-3.84-2.798
		c-0.302-0.383-0.549-0.794-0.767-1.233c-0.466-0.933-0.686-1.974-0.686-3.208c0-1.646,0.52-3.181,1.534-4.44
		c1.015-1.317,2.441-2.304,4.359-2.963c1.864-0.74,4.058-1.069,6.554-1.069c2.03,0,3.784,0.247,5.266,0.686
		c1.479,0.467,2.686,1.097,3.673,1.809c1.014,0.769,1.727,1.565,2.193,2.415c0.467,0.903,0.687,1.727,0.687,2.549
		c0,0.795-0.302,1.509-0.906,2.112c-0.631,0.629-1.397,0.958-2.303,0.958c-0.822,0-1.48-0.189-1.919-0.574
		c-0.411-0.384-0.879-0.933-1.343-1.783c-0.55-1.014-1.233-1.863-2.031-2.468c-0.739-0.548-2-0.821-3.728-0.821
		c-1.617,0-2.935,0.328-3.895,0.96c-0.932,0.603-1.397,1.261-1.397,2.11c0,0.466,0.165,0.904,0.466,1.289
		c0.33,0.355,0.769,0.713,1.344,1.015c0.603,0.272,1.18,0.492,1.782,0.657c0.138,0.055,0.247,0.055,0.384,0.084
		c0.631,0.19,1.563,0.383,2.743,0.684c1.781,0.385,3.481,0.796,4.961,1.262c1.481,0.466,2.741,1.07,3.812,1.755
		c1.098,0.658,1.946,1.563,2.522,2.604c0.604,1.07,0.904,2.386,0.904,3.921C566.575,672.412,566.055,674.055,565.013,675.509
		L565.013,675.509z"/>
	<path style="fill-rule:evenodd;clip-rule:evenodd;fill:#262626;" d="M452.131,162.016c0,0-0.52-3.646-2.029-5.237
		c-1.918-2.083-4.085-2.111-5.044-2.249c-7.074-0.521-17.685-0.521-17.685-0.521h-0.057c0,0-10.582,0-17.658,0.521
		c-1.013,0.138-3.151,0.166-5.07,2.249c-1.509,1.59-2.028,5.237-2.028,5.237s-0.522,4.277-0.522,8.5v0.549v3.481
		c0,4.277,0.522,8.5,0.522,8.5s0.52,3.646,2.028,5.264c1.919,2.111,4.442,2.029,5.594,2.248c4.03,0.412,17.191,0.549,17.191,0.549
		s10.61-0.055,17.685-0.549c0.959-0.137,3.126-0.137,5.044-2.248c1.51-1.618,2.029-5.264,2.029-5.264s0.493-4.223,0.493-8.5v-3.262
		v-0.768C452.624,166.293,452.131,162.016,452.131,162.016L452.131,162.016z M435.79,171.997l-13.683,7.375V168.02v-3.455
		l6.197,3.373L435.79,171.997z"/>
	<g>
		<path style="fill:#878787;" d="M301.411,0c13.655,0,26.049,5.538,35.014,14.504c8.966,8.966,14.506,21.332,14.506,35.013
			s-5.54,26.047-14.506,35.013c-8.965,8.966-21.358,14.504-35.014,14.504c-13.682,0-26.075-5.538-35.013-14.504
			c-8.966-8.966-14.504-21.332-14.504-35.013s5.538-26.047,14.504-35.013C275.336,5.538,287.729,0,301.411,0L301.411,0z
			 M333.684,17.246c-8.253-8.253-19.658-13.381-32.272-13.381c-12.612,0-24.018,5.128-32.299,13.381
			c-8.252,8.253-13.352,19.659-13.352,32.271c0,12.613,5.1,24.019,13.352,32.299c8.281,8.253,19.687,13.353,32.299,13.353
			c12.614,0,24.02-5.1,32.272-13.353c8.253-8.28,13.38-19.686,13.38-32.299C347.063,36.905,341.937,25.499,333.684,17.246
			L333.684,17.246z"/>
		<path style="fill-rule:evenodd;clip-rule:evenodd;fill:#878787;" d="M326.664,48.256c-0.356-13.325-11.324-23.991-24.813-23.991
			c-13.324,0-24.211,10.391-24.759,23.525c-0.055,0.329-0.055,0.713-0.055,1.069c0,4.635,1.315,8.994,3.564,12.723l-4.497,13.216
			l13.764-4.36c3.564,1.947,7.65,3.044,11.982,3.044c13.71,0,24.84-10.995,24.84-24.623
			C326.69,48.641,326.664,48.475,326.664,48.256L326.664,48.256z M313.229,53.85c-0.629-0.302-3.59-1.783-4.14-2.002
			c-0.604-0.164-0.987-0.302-1.398,0.329c-0.385,0.604-1.563,1.946-1.918,2.33c-0.357,0.439-0.715,0.467-1.289,0.191
			c-0.657-0.301-2.605-0.931-4.908-3.015c-1.837-1.619-3.07-3.565-3.399-4.141c-0.329-0.658-0.057-0.931,0.246-1.288
			c0.302-0.247,0.63-0.658,0.933-1.042c0.082-0.081,0.164-0.164,0.219-0.274c0.165-0.247,0.246-0.439,0.384-0.713
			c0.219-0.411,0.137-0.768-0.055-1.042c-0.109-0.302-1.343-3.317-1.865-4.497c-0.492-1.232-1.015-1.014-1.342-1.014
			c-0.386,0-0.769-0.054-1.18-0.054c-0.44,0-1.069,0.137-1.617,0.768c-0.604,0.603-2.167,2.029-2.167,5.044
			c0,0.686,0.137,1.398,0.356,2.03c0.576,2.166,1.946,3.893,2.14,4.195c0.302,0.41,4.194,6.689,10.39,9.102
			c6.225,2.413,6.225,1.59,7.321,1.508c1.097-0.083,3.592-1.426,4.113-2.879c0.493-1.398,0.493-2.604,0.329-2.879
			C314.243,54.316,313.832,54.124,313.229,53.85L313.229,53.85z M301.851,69.588c-4.223,0-8.17-1.261-11.461-3.427l-8.006,2.55
			l2.577-7.705c-2.494-3.4-3.976-7.623-3.976-12.147c0-0.685,0.027-1.316,0.109-2.001c1.042-10.5,9.952-18.698,20.756-18.698
			c10.967,0,19.987,8.417,20.81,19.083c0.056,0.548,0.056,1.097,0.056,1.617C322.716,60.266,313.366,69.588,301.851,69.588
			L301.851,69.588z"/>
	</g>
	<path style="fill-rule:evenodd;clip-rule:evenodd;fill:#262626;" d="M50.725,270.346c-14.202,0-21.414,9.843-21.414,18.096
		c0,1.535,0.165,3.016,0.548,4.359c0.85,3.098,2.687,5.593,5.594,6.745c0.685,0.301,1.315,0,1.48-0.713
		c0.165-0.521,0.465-1.783,0.631-2.331c0.219-0.741,0.137-0.987-0.412-1.618c-0.712-0.851-1.316-1.81-1.645-3.017
		c-0.22-0.795-0.357-1.672-0.357-2.687c0-7.321,5.675-13.902,14.779-13.902c8.034,0,12.476,4.744,12.476,11.105
		c0,1.893-0.192,3.674-0.549,5.374c-1.261,5.84-4.551,10.063-8.966,10.063c-3.125,0-5.511-2.495-4.743-5.594
		c0.439-1.726,1.069-3.537,1.618-5.292c0.576-1.837,1.069-3.619,1.069-4.99c0-2.413-1.316-4.359-4.084-4.359
		c-3.209,0-5.786,3.235-5.786,7.512c0,0.796,0.081,1.563,0.191,2.139c0.302,1.536,0.768,2.468,0.768,2.468
		s-3.29,13.463-3.839,15.821c-1.151,4.715-0.165,10.446-0.082,11.022c0.027,0.329,0.493,0.411,0.713,0.164
		c0.301-0.383,4.112-4.908,5.428-9.486c0.329-1.316,2.112-8.006,2.112-8.006c1.015,1.947,4.058,3.646,7.32,3.646
		c7.814,0,13.627-5.676,15.519-13.929c0.438-1.865,0.658-3.894,0.658-5.977C69.753,278.325,62.213,270.346,50.725,270.346
		L50.725,270.346z"/>
	<path style="fill-rule:evenodd;clip-rule:evenodd;fill:#262626;" d="M450.102,291.732l-0.357-0.822l-0.656-0.493
		c-0.85-0.631-5.1,0.027-6.251-0.988c-0.852-0.768-0.987-2.111-1.181-3.92c-0.465-3.51-0.766-3.729-1.314-4.908
		c-2.029-4.25-7.486-7.458-11.214-7.898h-10.174c-7.951,0-14.504,6.526-14.504,14.451v7.101v9.788
		c0,7.953,6.553,14.424,14.504,14.424h16.671c8.006,0,14.477-6.471,14.533-14.424l0.082-9.623v-2.057L450.102,291.732z
		 M419.174,284.521h8.034c1.535,0,2.769,1.234,2.769,2.769c0,1.508-1.233,2.77-2.769,2.77h-8.034c-1.563,0-2.796-1.261-2.796-2.77
		C416.378,285.755,417.611,284.521,419.174,284.521L419.174,284.521z M435.516,306.593h-16.342c-1.563,0-2.796-1.233-2.796-2.769
		c0-1.508,1.233-2.742,2.796-2.742h16.342c1.509,0,2.742,1.234,2.742,2.742C438.258,305.359,437.024,306.593,435.516,306.593
		L435.516,306.593z"/>
	<path style="fill-rule:evenodd;clip-rule:evenodd;fill:#262626;" d="M530.932,296.064v21.88h10.419v-23.662v-6.142h-10.419V296.064
		z M575.378,297.298c-0.687-5.648-3.263-9.158-10.886-9.158c-4.47,0-7.485,1.646-8.746,4.031h-0.138v-4.031H547.3v5.73v24.074h8.692
		v-14.778c0-3.895,0.768-7.65,5.54-7.65c4.797,0,5.152,4.441,5.152,7.923v14.504h8.939v-16.369
		C575.624,300.04,575.541,298.615,575.378,297.298L575.378,297.298z M536.142,273.252c-2.879,0-5.21,2.331-5.21,5.21
		s2.331,5.209,5.21,5.209s5.209-2.33,5.209-5.209S539.021,273.252,536.142,273.252L536.142,273.252z"/>
	<path style="fill-rule:evenodd;clip-rule:evenodd;fill:#262626;" d="M-76.415,648.966l15.93,9.845l-15.93,9.816l-15.902-9.816
		L-76.415,648.966z M-60.567,676.66l-4.743,3.1l-11.05-9.158l-11.105,9.158l-4.743-3.1v3.482l15.848,9.46l15.792-9.46V676.66z
		 M-60.485,658.811l10.857-8.719l-15.738-10.31l-11.05,9.184l-11.05-9.184l-15.737,10.31l10.885,8.719l-10.885,8.719l15.737,10.282
		l11.05-9.185l11.05,9.185l15.738-10.282L-60.485,658.811z"/>
	<path style="fill-rule:evenodd;clip-rule:evenodd;fill:#262626;" d="M454.735,404.833c-0.74-0.548-3.399-0.548-6.031-0.548
		c-2.688,0.055-5.375,0.055-6.006,0.302c-0.574,0.219-1.863,3.345-3.535,6.552c-1.921,3.621-4.25,7.13-5.731,7.073
		c-1.946,0-1.479-5.949-1.343-10.362c0.026-2.88-0.439-3.813-0.851-4.058c-1.015-0.714-3.811-1.397-3.811-1.397
		s-8.392-0.632-9.569,2.987c1.617,0.22,4.359-0.275,3.29,10.938c-0.082,0.55-1.289,5.155-5.183-1.069
		c-0.987-1.562-4.715-10.911-6.031-10.966c-4.307-0.083-8.582-0.274-10.062,0.548c-1.399,0.823,1.863,7.238,7.375,15.849
		c4.468,7.073,9.212,12.558,17.438,13.928c1.563,0.166,5.566,0.328,6.855-0.273c0.849-0.412-0.221-6.498,2.714-7.103
		c1.289-0.246,6.305,6.362,8.196,7.103c1.154,0.466,3.676,0.657,6.253,0.547c2.797-0.081,5.976,0.275,6.277-1.644
		c0.687-4.195-8.47-9.681-8.718-12.257c-0.22-1.864,3.346-5.291,5.154-7.924C453.665,409.878,456.135,406.041,454.735,404.833
		L454.735,404.833z"/>
	<path style="fill-rule:evenodd;clip-rule:evenodd;fill:#262626;" d="M578.558,157.135c-1.838,0.796-3.838,1.344-5.949,1.618
		c2.165-1.288,3.81-3.263,4.579-5.675c-2.002,1.179-4.25,2.029-6.607,2.495c-1.867-2-4.579-3.235-7.596-3.235
		c-5.703,0-10.365,4.579-10.365,10.199c0,0.823,0.139,1.591,0.303,2.332c-8.637-0.412-16.287-4.47-21.388-10.667
		c-0.877,1.536-1.425,3.263-1.425,5.127c0,3.564,1.864,6.69,4.605,8.5c-1.699-0.027-3.29-0.494-4.688-1.262c0,0.055,0,0.083,0,0.137
		c0,1.316,0.247,2.523,0.712,3.674c1.263,3.209,4.142,5.621,7.624,6.307c-0.906,0.247-1.783,0.383-2.742,0.383
		c-0.658,0-1.316-0.082-1.948-0.219c1.345,4.058,5.155,7.019,9.681,7.129c-3.565,2.742-8.007,4.359-12.86,4.359
		c-0.851,0-1.645-0.056-2.494-0.137c4.605,2.879,10.062,4.579,15.902,4.579c16.204,0,26.212-11.215,28.815-22.868
		c0.468-2.083,0.686-4.14,0.686-6.168c0-0.439,0-0.904,0-1.316C575.404,160.974,577.188,159.164,578.558,157.135L578.558,157.135z"
		/>
	<path style="fill-rule:evenodd;clip-rule:evenodd;fill:#262626;" d="M74.415,663.801c-0.027-1.397-0.22-2.769-0.466-4.112
		c-0.329-1.618-0.795-3.181-1.426-4.689c-0.657-1.48-1.397-2.878-2.331-4.25c-0.904-1.314-1.918-2.522-3.043-3.674
		c-1.124-1.096-2.385-2.165-3.701-3.042c-1.316-0.905-2.743-1.646-4.223-2.306c-1.481-0.628-3.098-1.124-4.661-1.425
		c-1.645-0.327-3.346-0.521-5.045-0.521c-1.672,0-3.373,0.193-5.018,0.521c-1.562,0.301-3.18,0.797-4.661,1.425
		c-1.48,0.659-2.934,1.4-4.25,2.306c-1.289,0.877-2.578,1.946-3.674,3.042c-1.151,1.151-2.167,2.359-3.043,3.674
		c-0.933,1.372-1.701,2.77-2.276,4.25c-0.685,1.509-1.151,3.071-1.48,4.689c-0.274,1.26-0.438,2.577-0.466,3.838
		c-0.055,0.383-0.055,0.768-0.055,1.207c0,1.671,0.166,3.346,0.521,4.989c0.329,1.619,0.795,3.181,1.48,4.688
		c0.575,1.48,1.343,2.879,2.276,4.25c0.876,1.289,1.892,2.523,3.043,3.675c1.096,1.151,2.385,2.165,3.674,3.043
		c1.316,0.878,2.77,1.646,4.25,2.276c1.481,0.657,3.099,1.151,4.661,1.48c1.646,0.357,3.346,0.466,5.018,0.466
		c1.7,0,3.4-0.108,5.045-0.466c1.563-0.329,3.18-0.823,4.661-1.48c1.48-0.631,2.907-1.398,4.223-2.276
		c1.316-0.878,2.577-1.892,3.701-3.043c1.125-1.151,2.139-2.386,3.043-3.675c0.933-1.371,1.673-2.77,2.331-4.25
		c0.631-1.508,1.097-3.069,1.426-4.688c0.329-1.644,0.521-3.345,0.521-4.989C74.469,664.376,74.469,664.104,74.415,663.801
		L74.415,663.801z M49.518,643.429c5.375,0,10.337,2.003,14.066,5.292c-0.055,0.083-3.099,4.689-11.104,7.705
		c-3.62-6.691-7.65-11.982-7.951-12.393C46.146,643.649,47.791,643.429,49.518,643.429L49.518,643.429z M44.446,644.034
		L44.446,644.034c0,0-0.027,0.027-0.083,0.027C44.418,644.061,44.418,644.034,44.446,644.034L44.446,644.034z M40.415,645.458
		c0.302,0.384,4.25,5.729,7.924,12.283c-10.2,2.714-19.083,2.576-19.632,2.576C30.105,653.71,34.492,648.254,40.415,645.458
		L40.415,645.458z M33.698,678.937c-3.399-3.759-5.456-8.748-5.456-14.203c0-0.274,0-0.468,0.027-0.686
		c0.356,0,10.885,0.246,21.852-3.045c0.604,1.181,1.18,2.415,1.728,3.647c-0.302,0.027-0.576,0.111-0.851,0.247
		c-11.515,3.674-17.301,14.011-17.301,14.011V678.937z M49.518,686.01c-4.935,0-9.459-1.701-13.078-4.524l0,0
		c0,0-0.192-0.138-0.466-0.383c0.137,0.137,0.301,0.245,0.466,0.383c0.054-0.083,4.168-8.938,16.725-13.299
		c0.055,0,0.083-0.027,0.138-0.027c2.988,7.787,4.222,14.313,4.524,16.149C55.276,685.379,52.479,686.01,49.518,686.01
		L49.518,686.01z M61.417,682.363c-0.219-1.286-1.343-7.513-4.14-15.189c6.882-1.097,12.832,0.768,13.298,0.906
		C69.588,674.029,66.216,679.156,61.417,682.363L61.417,682.363z M56.017,663.801c-0.192-0.383-0.356-0.74-0.467-1.097
		c-0.356-0.769-0.685-1.481-1.014-2.249c-0.137-0.273-0.274-0.549-0.439-0.85c8.417-3.427,11.818-8.335,11.9-8.418
		c2.632,3.209,4.359,7.24,4.744,11.627c0.028,0.547,0.083,1.095,0.083,1.699C70.52,664.433,63.283,662.869,56.017,663.801
		L56.017,663.801z"/>
	<path style="fill-rule:evenodd;clip-rule:evenodd;fill:#262626;" d="M-51.628,184.992v-0.054h-0.055c0,0,0,0,0-0.027v0.027
		c-0.631-0.412-1.234-0.467-1.618-0.576h-0.027c-2.632-0.85-4.88-2.633-6.553-4.827c-0.932-1.233-1.755-2.549-2.304-3.948l0,0
		c-0.219-0.63-0.219-1.316,0.083-1.7h0.055c0.466-0.657,1.316-1.124,2.248-1.48l0,0c1.042-0.329,2.138-0.767,3.071-1.562l0,0
		c0.191-0.11,0.356-0.302,0.466-0.576c0-0.055,0.055-0.137,0.082-0.22c0.055-0.219,0.055-0.521-0.082-0.822l0,0
		c-0.248-0.548-0.713-0.795-1.042-1.015l0,0c-0.603-0.33-1.288-0.33-1.864-0.165l0,0c-0.631,0.219-1.152,0.44-1.618,0.467
		c-0.027,0-0.027,0.055-0.027,0.055c-0.686,0.082-1.372,0.11-1.865-0.055c0-0.083,0-0.248-0.055-0.412l0,0
		c0-1.097,0.083-2.249,0.083-3.482l0,0c0.055-1.81,0.137-3.674-0.11-5.538v-0.055c-0.603-3.153-2.631-5.867-5.209-7.705
		c-1.864-1.289-4.112-2.056-6.389-2.221l0,0c-0.768-0.083-1.535-0.138-2.302-0.138c-3.043,0.055-6.225,0.851-8.665,2.797
		c-1.865,1.425-3.345,3.345-4.25,5.511c0,0,0,0,0,0.027c-0.877,2.193-0.795,4.579-0.658,6.745l0,0
		c0.027,1.508,0.192,2.989,0.083,4.443c0,0.027,0,0.027-0.055,0.082c-0.685,0.11-1.426,0.082-2.166-0.055c0,0,0,0-0.028,0
		c-0.521-0.083-1.014-0.302-1.645-0.467c0,0,0,0-0.054,0c-0.577-0.165-1.18,0-1.619,0.356h-0.027c0,0.028,0,0.028,0,0.028
		c-0.383,0.247-0.904,0.63-0.932,1.371c0,0.028,0,0.082,0.027,0.109h0.027c0.082,0.439,0.329,0.713,0.548,0.905
		c0.191,0.192,0.411,0.33,0.575,0.412c0,0.055,0,0.055,0,0.055c1.152,0.74,2.386,1.042,3.428,1.48l0,0
		c0.767,0.329,1.397,0.823,1.535,1.48c0.219,0.796-0.138,1.728-0.604,2.605l0,0c-1.178,2.385-2.987,4.442-5.209,5.977
		c-1.125,0.768-2.441,1.344-3.811,1.728h-0.028c-0.301,0.137-0.987,0.191-1.371,0.822c-0.027,0.028-0.083,0.083-0.083,0.165
		c-0.109,0.384,0,0.795,0.22,1.042c0.165,0.219,0.384,0.356,0.603,0.466l0,0c1.125,0.685,2.413,0.933,3.537,1.233l0,0
		c0.851,0.221,1.618,0.303,2.222,0.549c0.027,0.055,0.109,0.247,0.247,0.604c0.219,0.63,0.302,1.397,0.548,2.166
		c0.055,0.192,0.247,0.356,0.467,0.411c0.52,0.138,0.795-0.055,0.85-0.055c0,0,0.027,0,0.027-0.028
		c1.947-0.301,3.866-0.603,5.593-0.164l0,0c1.864,0.466,3.428,1.728,5.265,2.824l0,0c1.178,0.767,2.576,1.48,4.167,1.536l0,0
		c1.207,0.082,2.386,0,3.564-0.083l0,0c1.015-0.082,1.947-0.438,2.797-0.931l0.054-0.056c1.892-1.042,3.538-2.358,5.402-3.181l0,0
		c0.603-0.191,1.371-0.191,2.194-0.246l0,0c1.534-0.028,3.07,0.054,4.578,0.246c0.055,0,0.137,0,0.165,0
		c0.219-0.026,0.438-0.164,0.521-0.273c0.109-0.136,0.109-0.274,0.165-0.356c0.055-0.109,0.082-0.191,0-0.083
		c0.055-0.027,0.055-0.082,0.082-0.109c0.248-0.933,0.439-1.755,0.851-2.249c0.219-0.219,0.548-0.301,0.959-0.301
		c0.027,0,0.054,0,0.11,0c1.289-0.165,2.495-0.632,3.619-1.015c0-0.055,0-0.055,0.055-0.055c0.384-0.165,1.014-0.384,1.426-0.96
		c0,0,0,0,0.054,0h-0.054C-50.971,185.953-51.135,185.294-51.628,184.992L-51.628,184.992z"/>
	<path style="fill-rule:evenodd;clip-rule:evenodd;fill:#262626;" d="M-51.3,284.083c-2.851,15.958-18.672,29.502-23.47,32.601
		c-4.716,3.07-9.103-1.289-10.666-4.552c-1.809-3.702-7.184-23.909-8.636-25.609c-1.372-1.672-5.648,1.7-5.648,1.7l-2.056-2.714
		c0,0,8.608-10.31,15.217-11.599c6.937-1.343,6.937,10.666,8.581,17.411c1.646,6.471,2.715,10.145,4.141,10.145
		c1.399,0,4.113-3.591,7.075-9.129c2.96-5.538-0.11-10.447-5.923-6.937C-70.355,271.47-48.475,268.125-51.3,284.083L-51.3,284.083z"
		/>
	<path style="fill-rule:evenodd;clip-rule:evenodd;fill:#262626;" d="M179.509,401.626c-1.096-0.139-2.495-0.604-2.741,0.849
		c-0.274,1.508,1.288,1.399,2.303,1.618c6.91,1.509,9.268,3.975,10.419,10.667c0.054,0.274,0.083,0.63,0.083,0.932
		c0.082,0.795,0.274,1.507,1.48,1.289c0.604-0.083,0.823-0.411,0.85-0.877c0.083-0.412,0-0.961,0.055-1.344
		C191.985,408.315,186.364,402.475,179.509,401.626L179.509,401.626z M180.14,406.917c-0.713,0-1.426,0.082-1.7,0.851
		c-0.412,1.097,0.439,1.397,1.288,1.534c2.825,0.412,4.306,2.058,4.607,4.799c0.027,0.384,0.165,0.686,0.329,0.934
		c0.247,0.271,0.548,0.383,0.932,0.355c0.247,0,0.438-0.084,0.603-0.165c0.467-0.356,0.549-1.015,0.494-1.7
		C186.748,410.428,183.183,406.834,180.14,406.917L180.14,406.917z M194.452,428.632c-1.398-1.098-2.934-2.084-4.359-3.099
		c-2.934-1.975-5.621-2.137-7.787,1.069c-1.234,1.811-2.962,1.893-4.744,1.097c-4.963-2.166-8.774-5.538-11.022-10.501
		c-0.33-0.768-0.548-1.507-0.576-2.192c-0.083-1.316,0.466-2.467,1.947-3.482c1.233-0.795,2.439-1.755,2.357-3.537
		c-0.109-2.33-5.868-10.09-8.17-10.94c-0.933-0.329-1.865-0.273-2.825,0c-5.347,1.781-7.54,6.061-5.429,11.132
		c1.207,2.853,2.496,5.512,4.031,8.006c6.553,10.968,16.204,18.975,28.653,24.211c0.85,0.356,1.81,0.521,2.33,0.631
		c3.482,0.055,7.54-3.263,8.719-6.499C198.729,431.375,196.317,430.168,194.452,428.632L194.452,428.632z M177.316,398.611
		c11.158,1.698,16.286,6.907,17.711,17.903c0,0.11,0,0.192,0,0.272c0.083,1.015-0.109,2.332,1.234,2.332
		c1.179,0.027,1.234-0.85,1.234-1.7c-0.055-0.301-0.055-0.548-0.055-0.794c0.137-10.394-9.103-20.043-19.796-20.373
		c-0.85,0.137-2.496-0.549-2.632,1.233C174.985,398.666,176.383,398.5,177.316,398.611L177.316,398.611z"/>
	<path style="fill-rule:evenodd;clip-rule:evenodd;fill:#262626;" d="M188.996,666.268c0-2.029,0.521-3.728,1.233-5.072
		c1.536-2.961,3.976-4.44,4.141-4.523c-2.906-4.388-7.431-4.962-9.103-5.045c-3.838-0.384-7.512,2.331-9.459,2.331
		s-5.018-2.248-8.225-2.222c-4.196,0.109-8.089,2.523-10.282,6.36c-0.686,1.181-1.152,2.469-1.48,3.813
		c-1.865,7.32,1.069,16.341,4.661,21.659c2.056,3.044,4.579,6.527,7.814,6.389c3.153-0.108,4.332-2.057,8.143-2.057
		c3.812,0,4.854,2.057,8.199,1.975c3.399-0.026,5.539-3.126,7.622-6.168c2.385-3.592,3.345-7.02,3.427-7.185
		C195.604,676.469,189.079,673.918,188.996,666.268L188.996,666.268z M182.772,647.46c1.755-2.112,2.879-5.101,2.605-8.034
		c-2.522,0.081-5.565,1.646-7.349,3.812c-1.59,1.92-2.988,4.908-2.604,7.841c2.742,0.192,5.621-1.453,7.348-3.592V647.46z"/>
	<path style="fill-rule:evenodd;clip-rule:evenodd;fill:#262626;" d="M197.358,290.526c3.4-0.795,3.4-3.345,3.4-3.345h-8.417
		c-5.1-5.073-10.118-6.772-16.89-6.772c-6.745,0-11.763,1.7-16.863,6.772h-8.417c0,0,0,2.55,3.399,3.345
		c-0.658,0.905-1.316,2.002-1.919,3.235c-0.85,1.673-1.48,3.592-1.48,5.238c0,6.936,4.88,11.761,11.817,11.761
		c3.92,0,7.787-2.193,10.117-5.017l3.345,5.017l3.373-5.017c2.33,2.823,6.196,5.017,10.117,5.017
		c6.937,0,11.818-4.825,11.818-11.761c0-1.564-0.603-3.374-1.399-5.018C198.757,292.692,198.044,291.458,197.358,290.526
		L197.358,290.526z M161.989,307.416c-4.661,0-8.418-3.811-8.418-8.417c0-2.496,1.097-4.744,2.796-6.253
		c1.48-1.37,3.455-2.22,5.622-2.22c1.315,0,2.522,0.356,3.673,0.85c2.797,1.398,4.744,4.277,4.744,7.623
		C170.406,303.604,166.65,307.416,161.989,307.416L161.989,307.416z M175.452,304.042c0-4.879-2.221-9.706-5.43-12.941
		c-2.331-2.386-5.209-3.92-8.033-3.92c0,0,5.045-5.073,13.462-5.073c8.417,0,13.489,5.073,13.489,5.073
		c-2.878,0-5.758,1.535-8.088,3.948C177.699,294.392,175.452,299.218,175.452,304.042L175.452,304.042z M188.941,297.298
		c-0.932,0-1.699,0.74-1.699,1.672c0,0.933,0.768,1.673,1.699,1.673c0.932,0,1.7-0.741,1.7-1.673
		C190.641,298.039,189.873,297.298,188.941,297.298L188.941,297.298z M188.941,293.926c-2.796,0-5.073,2.275-5.073,5.073
		c0,2.796,2.277,5.043,5.073,5.043c2.797,0,5.045-2.247,5.045-5.043C193.986,296.201,191.738,293.926,188.941,293.926
		L188.941,293.926z M188.941,302.344c-1.864,0-3.372-1.508-3.372-3.345c0-1.865,1.508-3.374,3.372-3.374
		c1.865,0,3.4,1.508,3.4,3.374C192.341,300.835,190.806,302.344,188.941,302.344L188.941,302.344z M161.989,297.298
		c-0.932,0-1.7,0.74-1.7,1.672c0,0.933,0.768,1.673,1.7,1.673c0.931,0,1.699-0.741,1.699-1.673
		C163.688,298.039,162.92,297.298,161.989,297.298L161.989,297.298z M161.989,293.926c-2.797,0-5.073,2.275-5.073,5.073
		c0,2.796,2.276,5.043,5.073,5.043c2.796,0,5.045-2.247,5.045-5.043C167.034,296.201,164.785,293.926,161.989,293.926
		L161.989,293.926z M161.989,302.344c-1.865,0-3.401-1.508-3.401-3.345c0-1.865,1.536-3.374,3.401-3.374
		c1.864,0,3.372,1.508,3.372,3.374C165.361,300.835,163.853,302.344,161.989,302.344L161.989,302.344z M188.941,307.416
		c-4.661,0-8.417-3.811-8.417-8.417c0-3.291,1.865-6.142,4.606-7.541c1.151-0.576,2.413-0.933,3.811-0.933
		c2.304,0,4.333,0.933,5.841,2.386c1.617,1.563,2.577,3.674,2.577,6.087C197.358,303.604,193.602,307.416,188.941,307.416
		L188.941,307.416z"/>
	<path style="fill-rule:evenodd;clip-rule:evenodd;fill:#262626;" d="M407.822,666.324h8.09c1.809,0,4.906,0.795,4.906,4.223
		c0,1.81-1.425,3.92-3.207,3.92h-9.789V666.324z M433.872,650.064h14.585v4.854h-14.585V650.064z M446.512,666.324h-10.694
		c0.329-2.879,2.521-4.825,5.374-4.825C444.016,661.499,446.1,663.473,446.512,666.324L446.512,666.324z M435.46,669.56h17.904
		c0-0.249,0-0.55,0-0.795c0-6.719-4.853-12.203-12.173-12.203c-7.375,0-12.202,5.484-12.202,12.203c0,6.77,4.827,12.2,12.202,12.2
		c7.32,0,10.831-4.194,11.928-9.789h-6.607c-0.576,2.879-2.277,4.909-5.32,4.909C438.094,676.085,435.735,673.206,435.46,669.56
		L435.46,669.56z M427.373,671.176c0-3.508-2.359-6.553-5.538-7.649c2.301-1.454,3.865-4.03,3.865-6.965
		c0-4.469-3.647-8.115-8.089-8.115h-16.314v32.519h16.314C422.931,680.965,427.373,676.604,427.373,671.176L427.373,671.176z
		 M415.912,661.499h-8.09v-6.581h8.09c1.809,0,3.291,1.482,3.291,3.317C419.203,660.018,417.721,661.499,415.912,661.499
		L415.912,661.499z"/>
	<path style="fill-rule:evenodd;clip-rule:evenodd;fill:#262626;" d="M323.265,650.503c0,0,0.933-7.815-6.224-8.198
		c-7.074-0.384-8.309-0.466-11.434-0.687c-0.604-5.537-14.725-5.072-14.725-1.315c0,3.865,0.082,7.129-0.685,8.555
		c-0.687,1.317-4.059,0.632-7.869,0.686c-2.249,0-3.044,1.811-3.263,2.632c-0.631,2.276,2.658,18.15,3.591,19.659
		c1.482,2.469,15.245,5.045,17.027,3.949c1.81-1.097,1.947-5.595,2.33-5.595c0.329,0.056,0.797,2.552,1.946,2.962
		c3.264,1.152,7.403,1.646,9.187,2.633c1.974,1.096,2.796,7.785,0.959,9.185c-1.205,0.932-3.344,0.329-5.867,0.329
		c-2.577,0-2.193-3.838-1.015-3.921c1.097-0.083,2.605,0,2.605,0s0-3.317,0-3.948c-1.591,0.056-5.648-0.769-8.171,2.962
		c-1.124,1.645-0.96,7.402,1.671,9.54c3.071,2.496,12.393,2.194,13.407,1.591C326.636,685.929,323.265,650.503,323.265,650.503
		L323.265,650.503z M288.883,648.227c0.739-0.547,0.547-8.335,0-8.554c-0.55-0.22-8.502,8.391-8.502,8.554
		C280.381,648.365,288.17,648.721,288.883,648.227L288.883,648.227z M316.409,663.637c-1.069-0.604-3.976-0.713-5.592-0.33
		c-0.632-1.069,0.411-3.535,3.289-3.262C316.904,660.236,316.521,663.307,316.409,663.637L316.409,663.637z"/>
	<path style="fill-rule:evenodd;clip-rule:evenodd;fill:#262626;" d="M-61.143,407.19c4.168-0.107,4.003-4.002,4.003-4.002
		s0.027-4.14-4.36-3.975c-4.414,0.165-4.003,4.196-4.003,4.196S-65.283,407.301-61.143,407.19L-61.143,407.19z M-61.718,410.81
		c-1.837,0.083-3.209,0.769-3.209,3.044c0,5.127,0,15.245,0,17.905c0,2.714-5.126,3.263-5.126-0.166c0-3.48-0.055-6.579,0-11.652
		c-2.496-14.505-17.055-9.486-17.822-4.744c0-5.4,0-8.007,0-11.432c-1.536-7.103-7.596-3.785-7.596-3.785
		s-0.191,31.613-0.191,35.042c0,3.373,7.788,3.674,7.788-0.22s-0.055-9.568,0-12.942c0.082-5.895,10.226-6.69,10.226-0.384
		c0,4.224,0.192,5.401,0.192,9.733c0,4.278,5.319,6.856,10.063,6.856c4.743,0,10.062-2.332,10.062-7.622c0-5.321,0-13.135,0-17.138
		C-57.332,411.443-59.744,410.729-61.718,410.81L-61.718,410.81z"/>
	<path style="fill-rule:evenodd;clip-rule:evenodd;fill:#262626;" d="M539.514,530.849c-5.564,0-10.145,4.058-10.858,9.349l0,0
		c-0.108,0.468-0.137,0.987-0.137,1.482c0,5.977,4.907,10.802,10.995,10.802c6.061,0,10.968-4.825,10.968-10.802
		c0-1.646-0.33-3.154-0.958-4.525C547.74,533.427,543.928,530.849,539.514,530.849L539.514,530.849z M530.054,539.871
		c2.743-0.714,5.621-1.317,8.61-1.782C535.675,538.553,532.797,539.157,530.054,539.871L530.054,539.871z M578.01,540.801
		c-0.438-5.594-5.182-9.952-10.939-9.952c-4.47,0-8.281,2.632-10.037,6.387c-0.573,1.372-0.959,2.853-0.959,4.444
		c0,5.977,4.908,10.802,10.996,10.802c6.06,0,10.966-4.825,10.966-10.802C578.036,541.406,578.036,541.103,578.01,540.801
		L578.01,540.801z"/>
	<path style="fill-rule:evenodd;clip-rule:evenodd;fill:#262626;" d="M175.479,530.711c-1.536,0-2.769,1.234-2.769,2.77v16.369
		c0,6.444-5.237,11.68-11.708,11.68c-6.444,0-11.708-5.235-11.708-11.68v-6.855h8.938v6.855c0,1.535,1.289,2.77,2.77,2.77
		c1.508,0,2.742-1.234,2.742-2.77v-16.369c0-6.444,5.237-11.681,11.735-11.681c6.416,0,11.68,5.236,11.68,11.681v3.127l-5.374,1.697
		l-3.565-1.697v-3.127C178.22,531.946,176.987,530.711,175.479,530.711L175.479,530.711z M189.9,561.53
		c-6.442,0-11.681-5.235-11.681-11.68v-6.964l3.565,1.673l5.374-1.673v6.964c0,1.535,1.206,2.77,2.741,2.77
		c1.536,0,2.743-1.234,2.743-2.77v-6.855h8.993v6.855C201.636,556.294,196.372,561.53,189.9,561.53L189.9,561.53z"/>
	<path style="fill-rule:evenodd;clip-rule:evenodd;fill:#262626;" d="M417.146,526.079h-10.804l6.362,11.241l-8.527,14.065h10.802
		l8.5-14.065L417.146,526.079z M439.024,517.085l-17.027,29.885l10.969,19.275h11.488l-10.968-19.275l17.001-29.885H439.024z"/>
	<path style="fill-rule:evenodd;clip-rule:evenodd;fill:#262626;" d="M-83.435,532h-4.03c-0.549,0-1.014,0.467-1.014,1.015v18.507
		c0,0.577,0.465,1.014,1.014,1.014h4.03c0.549,0,1.015-0.437,1.015-1.014v-18.507C-82.42,532.467-82.886,532-83.435,532L-83.435,532
		z M-52.231,546.698c0,0.547-0.466,1.015-1.015,1.015h-1.617c-0.549,0-1.014-0.468-1.014-1.015v-8.856
		c0-0.549,0.465-0.988,1.014-0.988h1.617c0.549,0,1.015,0.439,1.015,0.988V546.698z M-47.214,532h-13.709
		c-0.548,0-0.959,0.467-0.959,1.015v18.535c0,0.549,0.411,0.985,0.959,0.985h7.677c0.549,0,1.015,0.468,1.015,1.015v0.412
		c0,0.549-0.466,0.987-1.015,0.987h-7.677c-0.548,0-0.959,0.467-0.959,1.016v2.823c0,0.548,0.411,0.986,0.959,0.986h13.709
		c0.548,0,0.987-0.438,0.987-0.986v-25.773C-46.227,532.467-46.666,532-47.214,532L-47.214,532z M-96.952,546.698
		c0,0.547-0.411,1.015-0.959,1.015h-1.618c-0.548,0-1.015-0.468-1.015-1.015v-8.856c0-0.549,0.467-0.988,1.015-0.988h1.618
		c0.548,0,0.959,0.439,0.959,0.988V546.698z M-91.906,523.583h-4.031c-0.549,0-1.015,0.411-1.015,1.016v6.414
		c0,0.551-0.411,0.988-0.959,0.988h-7.649c-0.576,0-1.042,0.467-1.042,1.015v18.507c0,0.577,0.466,1.014,1.042,1.014h13.655
		c0.547,0,1.014-0.437,1.014-1.014v-26.924C-90.892,523.994-91.358,523.583-91.906,523.583L-91.906,523.583z M-70.355,546.698
		c0,0.547-0.466,1.015-1.014,1.015h-1.618c-0.548,0-1.015-0.468-1.015-1.015v-8.856c0-0.549,0.467-0.988,1.015-0.988h1.618
		c0.548,0,1.014,0.439,1.014,0.988V546.698z M-65.31,532h-13.737c-0.548,0-0.96,0.467-0.96,1.015v18.535
		c0,0.549,0.412,0.985,0.96,0.985h7.677c0.548,0,1.014,0.468,1.014,1.015v0.412c0,0.549-0.466,0.987-1.014,0.987h-7.677
		c-0.548,0-0.96,0.467-0.96,1.016v2.823c0,0.548,0.412,0.986,0.96,0.986h13.737c0.548,0,1.015-0.438,1.015-0.986v-25.773
		C-64.295,532.467-64.762,532-65.31,532L-65.31,532z M-83.435,523.583h-4.03c-0.549,0-1.014,0.411-1.014,1.016v4.003
		c0,0.548,0.465,0.986,1.014,0.986h4.03c0.549,0,1.015-0.438,1.015-0.986v-4.003C-82.42,523.994-82.886,523.583-83.435,523.583
		L-83.435,523.583z"/>
	<path style="fill-rule:evenodd;clip-rule:evenodd;fill:#262626;" d="M322.195,156.669c2.002,3.646,1.316,7.951,0.549,10.446
		c-4.223,13.792-23.278,13.079-26.021,13.079s-3.399,2.549-3.399,2.549l-2.058,8.966c-0.548,3.181-3.427,3.017-3.427,3.017
		s-3.729,0-6.196,0c-0.165,0-0.274,0-0.466,0c0,0.548,0.109,2.248,2.138,2.248c2.495,0,6.225,0,6.225,0s2.823,0.166,3.427-3.015
		l2.028-8.966c0,0,0.631-2.604,3.429-2.604c2.741,0,21.798,0.767,26.019-13.025C325.376,166.265,326.144,160.644,322.195,156.669
		L322.195,156.669z M294.558,167.005l1.864-8.006c0,0,0.603-2.166,2.495-2.468c1.919-0.329,5.126,0.054,5.979,0.22
		c5.372,1.015,4.221,6.087,4.221,6.087c-1.042,7.923-13.325,6.827-13.325,6.827C293.844,168.953,294.558,167.005,294.558,167.005
		L294.558,167.005z M289.349,189.763l2.028-8.965c0,0,0.657-2.578,3.455-2.578c2.741,0,21.797,0.74,26.02-13.051
		c1.536-5.045,2.633-16.999-16.643-16.999h-13.874c0,0-2.933-0.138-3.646,2.96l-9.049,39.181c0,0-0.383,2.468,2.056,2.468
		c2.523,0,6.225,0,6.225,0S288.771,192.944,289.349,189.763L289.349,189.763z"/>
	<path style="fill-rule:evenodd;clip-rule:evenodd;fill:#262626;" d="M564.959,47.461c-0.164-2.33-1.016-4.442-2.741-6.004
		c-1.783-1.701-3.867-2.386-6.226-2.386c-2.412,0-4.414,0.685-6.168,2.386c-1.756,1.645-3.018,3.674-3.182,6.004H564.959z
		 M563.943,30.654c4.03,2.001,4.716,2.331,7.704,5.922C574.115,29.858,570.168,28.159,563.943,30.654L563.943,30.654z
		 M543.216,67.559c-4.36-2.715-5.841-4.854-7.623-9.651C530.713,67.394,532.193,72.467,543.216,67.559L543.216,67.559z
		 M546.562,53.302c0,1.618,0.657,2.961,1.425,4.359c0.795,1.508,2,2.714,3.51,3.591c1.479,0.933,3.099,1.372,4.909,1.372
		c1.781-0.027,3.427-0.439,4.96-1.372c1.536-0.876,2.578-2.248,3.512-3.755h11.734c-1.535,4.277-4.113,7.951-7.869,10.611
		c-3.783,2.714-7.979,4.112-12.585,4.112c-3.428,0-6.773-0.768-9.761-2.249c-6.883,3.346-11.816,3.511-14.834,0.521
		c-1.234-1.014-1.726-2.715-1.726-4.962c0-2.249,0.411-4.881,1.314-7.623c0.933-2.825,2.358-5.84,4.441-9.267
		c1.619-2.715,2.742-4.771,7.266-9.131c1.701-1.672,2.414-2.495,2.852-2.934c-4.031,1.946-9.184,5.539-13.38,9.24
		c2.495-6.225,6.005-9.404,10.283-12.064c4.605-2.769,8.389-4.634,13.379-4.634c0.494,0,1.015,0,1.618,0.082
		c3.674-1.645,7.019-2.495,10.008-2.742c3.017-0.165,5.127,0.329,6.361,1.48c2.55,2.55,2.713,6.553,0.685,11.982
		c1.947,3.345,2.028,7.101,2.028,10.967c0,0.933,0.083,1.782,0,2.495h-10.885h-19.246V53.302z"/>
	<path style="fill-rule:evenodd;clip-rule:evenodd;fill:#262626;" d="M29.667,554.703L29.667,554.703
		c-1.124,0-2.056-0.932-2.056-2.083v-8.362c0-1.152,0.933-2.085,2.056-2.085c1.151,0,2.139,0.933,2.139,2.085v8.362
		C31.806,553.771,30.818,554.703,29.667,554.703L29.667,554.703z M38.058,554.703L38.058,554.703c-1.179,0-2.111-0.932-2.111-2.083
		v-12.531c0-1.124,0.932-2.111,2.111-2.111c1.151,0,2.083,0.987,2.083,2.111v12.531C40.141,553.771,39.208,554.703,38.058,554.703
		L38.058,554.703z M46.393,554.703L46.393,554.703c-1.151,0-2.084-1.152-2.084-2.632v-15.655c0-1.427,0.933-2.578,2.084-2.578
		c1.151,0,2.084,1.151,2.084,2.578v15.655C48.477,553.55,47.543,554.703,46.393,554.703L46.393,554.703z M72.468,554.703
		c4.058,0,7.32-3.208,7.32-7.321c0-4.058-3.263-7.293-7.32-7.293c-0.796,0-1.563,0.109-2.358,0.439
		c-1.289-6.826-7.239-11.899-14.313-11.899c-1.069,0-2.111,0.083-3.126,0.301v25.773h12.092H72.468z M21.332,554.703L21.332,554.703
		c-1.124,0-2.056-0.932-2.056-2.083v-4.168c0-1.151,0.932-2.085,2.056-2.085c1.152,0,2.084,0.934,2.084,2.085v4.168
		C23.416,553.771,22.483,554.703,21.332,554.703L21.332,554.703z"/>
	<path style="fill-rule:evenodd;clip-rule:evenodd;fill:#262626;" d="M308.679,404.066c0-3.701,7.456-5.539,7.456,0.493
		c0,3.428-0.521,5.183-1.26,8.089h7.785c0.577-3.51,0.577-5.512,0.577-9.596c0-11.599-22.264-13.463-22.264,1.178
		c0,10.282,5.456,15.711,10.638,18.51c-4.277,8.251-10.638,13.022-10.638,13.022c-16.287-12.942-14.56-35.124-14.56-35.124h-6.854
		c0.162,29.668,16.341,39.949,18.342,41.485c1.865,1.507,2.193,1.343,4.77,1.343c2.332-0.082,7.623-5.456,14.149-15.409
		c0.576-0.932,1.206-1.893,1.728-2.823c2.741,0.574,4.688,0.574,4.688,0.574v-6.224
		C309.444,418.269,308.679,406.889,308.679,404.066L308.679,404.066z"/>
	<path style="fill-rule:evenodd;clip-rule:evenodd;fill:#262626;" d="M270.566,294.419c0,0,0.247-4.524,5.32-4.524
		c5.126,0,5.126,4.524,5.126,4.524H270.566z M293.324,302.014c-5.595,0.11-5.595-5.922-5.595-5.922s-0.246-5.841,5.595-5.923
		c5.674-0.137,5.593,6.032,5.593,6.032S298.917,301.877,293.324,302.014L293.324,302.014z M308.787,302.125c0,0-3.619,0-3.812-2.825
		c-0.274-3.098,5.457-2.878,5.457-2.878h4.004C314.572,296.421,315.285,302.261,308.787,302.125L308.787,302.125z M276.022,287.538
		c-8.884,0-9.267,6.991-9.158,8.747c0,0-0.466,8.087,8.884,8.087c8.089,0,8.474-5.072,8.474-5.072h-3.675
		c0,0-0.714,2.715-4.799,2.578c-5.072,0-5.318-5.072-5.318-5.072h13.846l0.027,3.427c0,0,0,2.495-0.108,3.674h3.426l0.109-2.166
		c0,0,1.673,2.631,6.389,2.631c3.153,0,5.867-1.26,7.376-3.673c0.85,2.796,4.029,3.673,6.69,3.673c3.29,0,5.209-0.932,6.636-2.713
		l0.136,2.248h3.291c0-0.109-0.109-1.317-0.109-3.811c0-2.495,0.109-4.606,0-6.169c0-0.33,0-0.796-0.082-1.344l6.004,11.324
		l-3.208,5.922h4.059l11.049-21.359h-3.812l-6.059,12.091l-6.06-12.091h-4.194l0.273,0.411c-1.098-0.85-2.852-1.48-5.566-1.59
		c0,0-7.348-0.137-8.198,4.634h3.812c0,0,0.246-2.358,4.14-2.276c3.702,0.138,4.277,1.919,4.277,4.195c0,0-3.098,0.083-4.14,0.083
		c-1.453,0-5.429,0.137-7.621,1.892c-0.14-5.209-4.114-8.171-8.418-8.171c-4.525,0-6.196,2.605-6.196,2.605v-8.91h-4.003
		l0.027,11.241C283.37,290.115,281.233,287.538,276.022,287.538L276.022,287.538z"/>
	<path style="fill-rule:evenodd;clip-rule:evenodd;fill:#262626;" d="M300.122,533.508l-0.19-0.247l-7.239-12.365l-0.411-0.741
		l-0.411,0.741l-16.696,28.762l-0.11,0.247l0.11,0.248l7.237,12.392l0.465,0.741l0.439-0.741l16.616-28.761L300.122,533.508z
		 M293.817,551.495h-0.302l-0.165,0.275L286.223,564l-0.467,0.767h34.3l0.111-0.275l7.155-12.228l0.438-0.769H293.817z
		 M312.379,548.042l0.138,0.246h0.301l14.094-0.028h0.849l-0.438-0.767l-16.67-28.653l-0.139-0.274h-0.272l-14.065,0.055h-0.878
		l0.411,0.768L312.379,548.042z"/>
	<path style="fill-rule:evenodd;clip-rule:evenodd;fill:#262626;" d="M58.237,165.251l-23.141-12.859
		c-0.933-0.603-1.837-0.74-2.632-0.521l19.933,18.919L58.237,165.251z M66.792,169.995l-6.169-3.428l-6.361,6.005l6.443,6.086
		l6.005-3.29C69.671,173.723,68.574,171.009,66.792,169.995L66.792,169.995z M32.409,193.217c0.822,0.275,1.754,0.083,2.688-0.466
		l23.223-12.722l-5.977-5.675L32.409,193.217z M30.681,153.735c-0.137,0.328-0.164,0.712-0.164,1.151v35.342
		c0,0.412,0.027,0.795,0.164,1.124l19.824-18.781L30.681,153.735z"/>
	<path style="fill-rule:evenodd;clip-rule:evenodd;fill:#262626;" d="M197.386,193.602c-0.027-0.851-0.384-1.536-1.096-1.536
		c-0.686,0-1.069,0.603-1.097,1.536H197.386z M197.935,193.903v0.165h-2.742c0,1.262,0.467,1.783,1.18,1.783
		c0.548,0,0.932-0.302,1.069-1.207l0.493,0.11c-0.109,1.097-0.768,1.59-1.563,1.59c-1.097,0-1.728-0.795-1.728-2.414
		c0-1.425,0.548-2.33,1.646-2.33C197.469,191.6,197.935,192.587,197.935,193.903L197.935,193.903z M190.121,194.067
		c-0.275-0.137-0.604-0.219-1.07-0.219c-0.686,0-1.097,0.302-1.097,0.987c0,0.713,0.411,1.042,1.014,1.042
		c0.521,0,0.987-0.383,1.152-0.794V194.067z M190.614,195.329c0,0.438,0.055,0.686,0.083,0.932h-0.494
		c-0.054-0.137-0.082-0.384-0.082-0.494c-0.221,0.329-0.742,0.576-1.208,0.576c-0.823,0-1.48-0.494-1.48-1.508
		c0-0.933,0.658-1.454,1.618-1.454c0.465,0,0.795,0.083,1.07,0.22v-0.521c0-0.769-0.357-1.015-1.07-1.015
		c-0.604,0-0.932,0.301-1.015,0.85l-0.493-0.083c0.083-0.713,0.658-1.234,1.508-1.234c1.014,0,1.563,0.438,1.563,1.453V195.329z
		 M199.415,190.038l-0.493,0.219v1.426h-0.603v0.467h0.603v3.18c0,0.63,0.191,0.987,0.877,0.987c0.219,0,0.438-0.055,0.548-0.082
		v-0.521c-0.11,0.055-0.302,0.083-0.466,0.083c-0.384,0-0.466-0.137-0.466-0.548v-3.098h0.933v-0.467h-0.933V190.038z
		 M190.861,156.34c-0.658-2.825-1.646-5.621-2.879-8.253c-0.659-1.425-2.112-2.331-3.674-2.331c-0.632,0-1.234,0.137-1.783,0.384
		c-2.029,0.986-2.879,3.399-1.892,5.429c2.084,4.359,3.098,8.966,3.098,13.791c0,4.799-1.014,9.405-3.07,13.682
		c-0.028,0.027-0.412,0.796-0.412,1.672c0,0.274,0.055,0.658,0.138,0.933c0.246,1.206,1.015,2.22,2.193,2.796
		c0.576,0.274,1.151,0.384,1.782,0.384c1.48,0,2.824-0.796,3.537-2.112c0.823-1.535,1.673-3.51,2.386-6.087
		c0.22-0.768,0.384-1.535,0.576-2.302c0.657-2.907,1.042-5.923,1.042-8.994C191.847,162.318,191.518,159.274,190.861,156.34
		L190.861,156.34z M185.404,195.768l-0.877-4.085h-0.713l-0.904,4.085l-0.878-4.085h-0.548l1.042,4.579h0.74l0.877-4.058
		l0.933,4.058h0.713l1.014-4.579h-0.549L185.404,195.768z M191.683,196.261h0.494v-6.471h-0.494V196.261z M193.273,196.261h0.521
		v-6.471h-0.521V196.261z M155.245,161.989c5.401,2.906,8.883,8.416,9.294,14.806v-0.055c-0.083-0.658,0.055-1.398,0.383-2.029
		c0.056-0.109,0.083-0.192,0.165-0.302c1.7-2.769,2.577-6.004,2.577-9.267c0-0.657-0.082-1.343-0.109-2.029
		c-2.249-3.071-5.348-5.758-8.857-7.623c-0.494-0.274-1.151-0.466-1.727-0.466c-1.371,0-2.632,0.768-3.263,1.946
		C152.776,158.808,153.461,161.056,155.245,161.989L155.245,161.989z M161.742,194.451c0-0.904-0.412-2.604-1.673-2.604
		c-0.357,0-0.658,0.191-0.904,0.356c-0.384,0.384-0.467,0.794-0.467,1.233c0,1.014,0.521,2.66,1.7,2.66
		c0.412,0,0.795-0.22,1.015-0.521C161.66,195.247,161.742,194.835,161.742,194.451L161.742,194.451z M162.729,193.93
		c0,1.18-0.932,2.468-2.55,2.468c-1.59,0-2.439-1.288-2.439-2.385c0-1.316,1.042-2.441,2.577-2.441
		C161.797,191.572,162.729,192.697,162.729,193.93L162.729,193.93z M154.695,194.451l1.426-0.082v1.507
		c-0.301,0.138-0.604,0.248-1.18,0.248c-2.083,0-3.345-1.673-3.345-3.455c0-1.617,1.097-2.77,2.577-2.77
		c1.152,0,1.7,0.576,2.029,0.905l-0.246,0.384l0.33-0.082l0.821-0.768c-0.219-0.138-0.576-0.384-1.288-0.549
		c-0.412-0.137-0.933-0.22-1.426-0.22c-2.386,0-3.812,1.7-3.812,3.51c0,1.48,1.015,3.399,3.592,3.399
		c0.521,0,1.015-0.055,1.563-0.137l1.371-0.329v-1.152c0-0.082,0-0.329,0-0.412c0.028-0.082,0.028-0.137,0.083-0.191l0.248-0.247
		h-2.002L154.695,194.451z M168.104,163.277c0.027,0.686,0.137,1.371,0.137,2.083c0,3.263-0.905,6.444-2.604,9.241
		c-0.082,0.082-0.11,0.191-0.164,0.273c-0.33,0.685-0.466,1.398-0.384,2.084c0.137,1.18,0.767,2.276,1.836,2.961
		c0.302,0.165,0.576,0.302,0.878,0.384c0.384,0.137,0.768,0.165,1.151,0.165c1.344,0,2.632-0.658,3.29-1.865
		c2.166-3.509,3.4-7.484,3.675-11.598c0.055-0.548,0.055-1.096,0.055-1.645c0-4.688-1.262-9.268-3.674-13.298
		c-0.083-0.082-0.165-0.192-0.275-0.329c-0.246-0.329-0.575-0.63-0.904-0.878c-0.658-0.383-1.371-0.658-2.139-0.658
		c-0.63,0-0.932,0.11-1.397,0.275c-0.467,0.192-0.933,0.465-1.399,0.932c-0.411,0.465-0.658,0.932-0.877,1.398
		c-0.329,0.96-0.301,2.276,0.329,3.29C167.007,158.287,167.802,160.754,168.104,163.277L168.104,163.277z M171.585,193.903
		c0-0.74-0.466-1.864-1.289-1.864c-0.248,0-0.548,0.11-0.713,0.329c-0.165,0.22-0.22,0.466-0.22,0.713
		c0,0.685,0.384,1.836,1.29,1.836c0.246,0,0.493-0.137,0.657-0.301C171.53,194.37,171.585,194.067,171.585,193.903L171.585,193.903z
		 M171.009,196.508c-0.082,0-0.109,0-0.247,0c-0.082,0-0.63,0-1.014,0.164c-0.247,0.055-0.878,0.301-0.878,1.042
		c0,0.713,0.713,1.207,1.783,1.207c0.959,0,1.48-0.466,1.48-1.097C172.134,197.331,171.777,197.056,171.009,196.508L171.009,196.508
		z M172.326,192.066h-0.576c0.192,0.164,0.713,0.603,0.713,1.371c0,0.713-0.439,1.097-0.85,1.398
		c-0.138,0.109-0.302,0.275-0.302,0.494c0,0.219,0.165,0.329,0.274,0.438l0.357,0.274c0.438,0.384,0.849,0.741,0.849,1.399
		c0,0.932-0.932,1.919-2.659,1.919c-1.426,0-2.167-0.686-2.167-1.453c0-0.384,0.219-0.878,0.768-1.234
		c0.63-0.356,1.48-0.411,1.947-0.438c-0.165-0.192-0.302-0.384-0.302-0.686c0-0.165,0.055-0.247,0.083-0.384
		c-0.11,0-0.192,0-0.329,0c-1.07,0-1.646-0.768-1.646-1.563c0-0.466,0.219-0.988,0.63-1.372c0.603-0.466,1.261-0.548,1.81-0.548
		h2.083L172.326,192.066z M176.137,193.821l1.837-0.768c0.192-0.083,0.273-0.137,0.273-0.302c0-0.384-0.411-0.851-0.959-0.851
		c-0.439,0-1.152,0.303-1.152,1.399C176.137,193.464,176.137,193.629,176.137,193.821L176.137,193.821z M178.22,195.877
		c0.494,0,0.878-0.164,1.235-0.383l-0.521,0.521c-0.11,0.082-0.248,0.11-0.33,0.219c-0.356,0.11-0.685,0.164-0.987,0.164
		c-0.329,0-0.85,0-1.343-0.383c-0.713-0.521-1.014-1.371-1.014-2.112c0-1.59,1.261-2.331,2.275-2.331
		c0.385,0,0.769,0.083,1.069,0.275c0.494,0.302,0.631,0.767,0.659,0.987l-2.303,0.987l-0.823,0.027
		C176.411,195.11,177.289,195.877,178.22,195.877L178.22,195.877z M167.089,194.451c0-0.904-0.438-2.604-1.7-2.604
		c-0.329,0-0.631,0.191-0.877,0.356c-0.383,0.384-0.466,0.794-0.466,1.233c0,1.014,0.494,2.66,1.673,2.66
		c0.439,0,0.823-0.22,1.069-0.521C167.007,195.247,167.089,194.835,167.089,194.451L167.089,194.451z M168.048,193.93
		c0,1.18-0.877,2.468-2.523,2.468c-1.618,0-2.467-1.288-2.467-2.385c0-1.316,1.07-2.441,2.578-2.441
		C167.116,191.572,168.048,192.697,168.048,193.93L168.048,193.93z M182.882,161.713c-2.633-4.222-6.472-8.034-11.023-10.83
		c0.055,0.055,0.055,0.055,0.055,0.055c0.329,0.192,0.576,0.466,0.877,0.795c0.055,0.083,0.137,0.219,0.22,0.329
		c2.413,4.03,3.674,8.61,3.674,13.271c0,0.576,0,1.124-0.027,1.672c1.946,3.702,2.988,7.869,2.988,12.284c0,0.329,0,0.878,0,1.315
		c0-0.465,0.137-0.932,0.303-1.371c0-0.082,0.054-0.165,0.081-0.192c2.029-4.277,3.044-8.883,3.044-13.682
		C183.074,163.715,182.964,162.482,182.882,161.713L182.882,161.713z M174.876,195.959c0.164,0.055,0.329,0.055,0.493,0.055
		l-0.356,0.247h-1.755c0.219-0.33,0.273-0.33,0.273-0.548v-1.646c0-0.767,0-1.918,0.028-2.933c0-0.494,0.055-1.124,0.055-1.591
		h-0.768l0.768-0.383h1.399c-0.302,0.164-0.385,0.247-0.44,0.575c-0.081,0.769-0.081,2.002-0.081,3.428v2.331
		C174.492,195.877,174.546,195.932,174.876,195.959L174.876,195.959z"/>
	<g>
		<path style="fill:#878787;" d="M175.479,1c13.654,0,26.047,5.538,35.013,14.504c8.938,8.966,14.505,21.332,14.505,35.013
			s-5.566,26.047-14.505,35.013c-8.966,8.966-21.359,14.504-35.013,14.504c-13.682,0-26.075-5.538-35.041-14.504
			c-8.939-8.966-14.505-21.332-14.505-35.013s5.565-26.047,14.505-35.013C149.404,6.538,161.797,1,175.479,1L175.479,1z
			 M207.75,18.246c-8.252-8.253-19.687-13.381-32.271-13.381c-12.613,0-24.046,5.128-32.299,13.381s-13.353,19.659-13.353,32.271
			c0,12.613,5.1,24.019,13.353,32.299c8.253,8.253,19.687,13.353,32.299,13.353c12.584,0,24.019-5.1,32.271-13.353
			c8.253-8.28,13.381-19.686,13.381-32.299C221.131,37.905,216.003,26.499,207.75,18.246L207.75,18.246z"/>
		<path style="fill-rule:evenodd;clip-rule:evenodd;fill:#878787;" d="M199.607,36.671c0.082-0.109,0.082-0.274,0-0.466
			c-2.468-4.085-5.95-7.512-10.035-9.925c-4.278-2.468-9.158-3.784-14.093-3.784c-8.555,0-16.561,3.865-21.908,10.556
			c-0.11,0.165-0.11,0.329-0.027,0.493l7.87,13.682c0.082,0.109,0.247,0.191,0.411,0.191h0.054c0.165,0,0.329-0.109,0.384-0.329
			c1.563-6.005,6.992-10.2,13.216-10.2c0.356,0,0.795,0,1.179,0.055c0.027,0,0.027,0,0.027,0h22.483
			C199.333,36.945,199.498,36.863,199.607,36.671L199.607,36.671z M179.619,63.815c-0.137-0.138-0.302-0.219-0.466-0.164
			c-1.179,0.329-2.412,0.494-3.674,0.494c-5.265,0-10.118-3.071-12.366-7.869l0,0l-11.27-19.522
			c-0.082-0.109-0.219-0.192-0.384-0.192l0,0c-0.165,0-0.329,0.083-0.411,0.192c-2.33,4.195-3.592,8.938-3.592,13.764
			c0,6.745,2.44,13.243,6.855,18.37c4.386,5.045,10.392,8.335,16.999,9.322c0,0.027,0.054,0.027,0.054,0.027
			c0.165,0,0.33-0.081,0.412-0.246l7.869-13.682C179.728,64.145,179.728,63.98,179.619,63.815L179.619,63.815z M201.17,39.989
			h-15.848c-0.165,0-0.33,0.11-0.411,0.302c-0.056,0.165,0,0.357,0.109,0.493c2.632,2.577,4.113,6.06,4.113,9.734
			c0,2.797-0.85,5.457-2.44,7.76c0,0.027,0,0.027,0,0.027l-11.324,19.522c-0.082,0.165-0.082,0.329,0,0.466
			c0.11,0.164,0.274,0.247,0.439,0.247l0,0c7.403-0.083,14.34-3.043,19.604-8.335c5.209-5.237,8.089-12.283,8.089-19.687
			c0-3.537-0.659-6.992-1.92-10.227C201.499,40.099,201.335,39.989,201.17,39.989L201.17,39.989z M165.005,50.518
			c0,5.758,4.715,10.474,10.474,10.474c5.785,0,10.474-4.716,10.474-10.474c0-5.786-4.689-10.502-10.474-10.502
			C169.721,40.016,165.005,44.732,165.005,50.518L165.005,50.518z"/>
	</g>
	<path style="fill-rule:evenodd;clip-rule:evenodd;fill:#262626;" d="M57.963,410.81c-0.22-2-0.658-4.029-1.234-6.032
		c-0.631-1.81-1.481-3.29-2.714-4.44c-1.234-1.043-2.714-1.563-4.524-1.563c-1.837,0-3.4,0.52-4.523,1.563
		c-1.207,1.069-2.084,2.549-2.605,4.523c-0.548,2.001-0.96,3.949-1.125,5.949c-0.164,1.975-0.247,4.359-0.247,7.186
		c0,1.727,0,3.289,0.083,4.522c0.082,1.236,0.164,2.716,0.328,4.442c0.165,1.754,0.412,3.234,0.796,4.358
		c0.356,1.234,0.849,2.332,1.48,3.483c0.603,1.15,1.37,2,2.412,2.632c0.988,0.576,2.084,0.851,3.482,0.851
		c1.316,0,2.44-0.274,3.51-0.851c1.014-0.632,1.81-1.481,2.413-2.632c0.603-1.151,1.151-2.33,1.481-3.483
		c0.438-1.206,0.685-2.604,0.904-4.358c0.166-1.727,0.33-3.206,0.33-4.523c0-1.234,0.082-2.715,0.082-4.441
		C58.21,415.251,58.127,412.868,57.963,410.81L57.963,410.81z M66.463,400.255c4.524,4.605,6.69,10.638,6.69,18.123
		c0,6.855-2.249,12.777-6.69,17.822c-4.442,5.128-10.09,7.649-16.972,7.649c-6.772,0-12.448-2.521-16.862-7.567
		c-4.442-5.045-6.717-11.049-6.717-17.822c0-7.486,2.193-13.6,6.608-18.123c4.359-4.689,10.035-6.937,16.972-6.937
		C56.4,393.401,62.021,395.648,66.463,400.255L66.463,400.255z"/>
	<g>
		<path style="fill:#878787;" d="M49.518,0C63.2,0,75.593,5.538,84.531,14.504c8.966,8.966,14.505,21.332,14.505,35.013
			s-5.539,26.047-14.505,35.013C75.593,93.497,63.2,99.035,49.518,99.035c-13.654,0-26.047-5.538-35.013-14.504
			C5.539,75.565,0,63.199,0,49.518s5.539-26.047,14.505-35.013C23.471,5.538,35.864,0,49.518,0L49.518,0z M81.817,17.246
			C73.537,8.993,62.131,3.865,49.518,3.865c-12.585,0-24.019,5.128-32.271,13.381C8.993,25.499,3.866,36.905,3.866,49.518
			c0,12.613,5.127,24.019,13.381,32.299C25.5,90.07,36.933,95.169,49.518,95.169c12.613,0,24.019-5.1,32.299-13.353
			C90.07,73.536,95.17,62.13,95.17,49.518C95.17,36.905,90.07,25.499,81.817,17.246L81.817,17.246z"/>
		<path style="fill-rule:evenodd;clip-rule:evenodd;fill:#878787;" d="M36.851,49.518c0-6.992,5.676-12.695,12.667-12.695
			c7.02,0,12.695,5.703,12.695,12.695c0,7.019-5.675,12.695-12.695,12.695C42.526,62.212,36.851,56.536,36.851,49.518L36.851,49.518
			z M62.625,24.704H36.44c-6.443,0-11.735,5.264-11.735,11.735v26.185c0,6.442,5.292,11.734,11.735,11.734h26.185
			c6.471,0,11.735-5.292,11.735-11.734V36.439C74.359,29.968,69.095,24.704,62.625,24.704L62.625,24.704z M36.44,27.638h26.185
			c4.854,0,8.801,3.947,8.801,8.801v26.185c0,4.853-3.948,8.8-8.801,8.8H36.44c-4.854,0-8.802-3.948-8.802-8.8V36.439
			C27.638,31.585,31.586,27.638,36.44,27.638L36.44,27.638z M65.229,31.339c-1.426,0-2.577,1.151-2.577,2.577
			c0,1.426,1.151,2.578,2.577,2.578s2.578-1.151,2.578-2.578C67.807,32.491,66.655,31.339,65.229,31.339L65.229,31.339z
			 M65.53,49.518c0-8.829-7.156-16.012-16.012-16.012c-8.829,0-16.012,7.183-16.012,16.012c0,8.856,7.183,16.013,16.012,16.013
			C58.375,65.53,65.53,58.374,65.53,49.518L65.53,49.518z"/>
	</g>
	<g>
		<path style="fill:#262626;" d="M553.277,395.583c-12.675,0-23.05,10.372-23.05,23.05c0,12.677,10.375,23.052,23.05,23.052
			c12.68,0,23.05-10.375,23.05-23.052C576.327,405.956,566.072,395.583,553.277,395.583z M563.881,428.891
			c-0.459,0.691-1.267,0.924-1.959,0.463c-5.418-3.345-12.219-4.037-20.284-2.193c-0.806,0.232-1.498-0.344-1.728-1.036
			c-0.23-0.808,0.345-1.497,1.038-1.728c8.755-1.961,16.362-1.154,22.355,2.537C564.113,427.278,564.228,428.202,563.881,428.891z
			 M566.647,422.551c-0.575,0.809-1.611,1.152-2.42,0.575c-6.223-3.802-15.677-4.956-22.934-2.646
			c-0.923,0.229-1.958-0.233-2.19-1.155c-0.229-0.921,0.232-1.958,1.151-2.189c8.413-2.535,18.785-1.268,25.93,3.111
			C566.881,420.592,567.225,421.747,566.647,422.551z M569.875,415.521c-0.579,0.808-1.961,1.155-2.994,0.577
			c-7.381-4.378-19.709-4.841-26.741-2.649c-1.15,0.346-2.306-0.347-2.648-1.385c-0.351-1.151,0.343-2.305,1.384-2.65
			c8.182-2.421,21.664-1.959,30.194,3.111C570.106,413.102,570.451,414.486,569.875,415.521z"/>
	</g>
	<g>
		<path style="fill:#878787;" d="M427.338,1.007c13.682,0,26.047,5.538,35.014,14.504c8.965,8.966,14.504,21.332,14.504,35.013
			s-5.539,26.047-14.504,35.013c-8.967,8.966-21.332,14.504-35.014,14.504c-13.684,0-26.049-5.538-35.014-14.504
			c-8.965-8.966-14.504-21.332-14.504-35.013s5.539-26.047,14.504-35.013C401.289,6.544,413.654,1.007,427.338,1.007L427.338,1.007z
			 M459.609,18.253C451.355,10,439.949,4.872,427.338,4.872c-12.613,0-24.02,5.128-32.273,13.381
			c-8.277,8.253-13.379,19.659-13.379,32.271c0,12.613,5.102,24.019,13.379,32.299c8.254,8.253,19.66,13.353,32.273,13.353
			c12.611,0,24.018-5.1,32.271-13.353c8.279-8.28,13.379-19.686,13.379-32.299C472.988,37.912,467.889,26.506,459.609,18.253
			L459.609,18.253z"/>
		<path style="fill:#878787;" d="M444.1,33.765h-33.521c-3.086,0-5.588,2.501-5.588,5.586v22.348c0,3.085,2.502,5.586,5.588,5.586
			H444.1c3.084,0,5.586-2.5,5.586-5.586V39.351C449.686,36.266,447.184,33.765,444.1,33.765z M434.902,48.672l11.826-10.134
			c0.082,0.262,0.164,0.524,0.164,0.813v22.348c0,0.193-0.074,0.365-0.113,0.548L434.902,48.672z M444.1,36.558
			c0.184,0,0.348,0.071,0.521,0.106l-17.283,14.815l-17.283-14.815c0.174-0.036,0.338-0.106,0.523-0.106H444.1z M407.895,62.244
			c-0.037-0.183-0.111-0.352-0.111-0.545V39.351c0-0.289,0.084-0.55,0.166-0.813l11.822,10.132L407.895,62.244z M410.578,64.491
			c-0.283,0-0.539-0.081-0.797-0.16l12.111-13.841l4.537,3.887c0.26,0.227,0.586,0.338,0.908,0.338c0.324,0,0.648-0.111,0.908-0.338
			l4.537-3.887l12.111,13.841c-0.256,0.079-0.514,0.16-0.795,0.16H410.578z"/>
	</g>
</g>
<g id="Layer_1">
</g>
</svg>
