<?xml version="1.0" encoding="iso-8859-1"?>
<!-- Generator: Adobe Illustrator 16.0.0, SVG Export Plug-In . SVG Version: 6.00 Build 0)  -->
<!DOCTYPE svg PUBLIC "-//W3C//DTD SVG 1.1//EN" "http://www.w3.org/Graphics/SVG/1.1/DTD/svg11.dtd">
<svg version="1.1" id="&#xB808;&#xC774;&#xC5B4;_1" xmlns="http://www.w3.org/2000/svg" xmlns:xlink="http://www.w3.org/1999/xlink"
	 x="0px" y="0px" width="265.151px" height="246.381px" viewBox="0 0 265.151 246.381"
	 style="enable-background:new 0 0 265.151 246.381;" xml:space="preserve">
<circle style="fill:#143B75;" cx="-430.335" cy="-229.261" r="72.56"/>
<linearGradient id="SVGID_1_" gradientUnits="userSpaceOnUse" x1="555.8125" y1="269.7119" x2="1279.4402" y2="-562.7265">
	<stop  offset="2.100000e-007" style="stop-color:#62C4DE"/>
	<stop  offset="1" style="stop-color:#544A9C"/>
</linearGradient>
<path style="opacity:0.8;fill:url(#SVGID_1_);" d="M1386.547-469.62H175.942c219.897,87.782,166.693,191.277,253.845,252.922
	c98.016,69.328,163.327-26.958,272.938,46.913c98.086,66.098-89.026,288.389,309.183,393.944
	c159.807,42.355,148.06,150.393,65.578,266.221h309.061V-469.62z"/>
<g>
	<g>
		<g>
			<path style="fill:#D2E8F8;" d="M949.989,343.012L649.36,169.445c-8.505-4.91-7.438-13.488,2.382-19.156L856.448,32.142
				c9.82-5.67,24.675-6.287,33.178-1.377l300.628,173.569c8.506,4.91,7.438,13.486-2.381,19.156L983.168,341.635
				C973.348,347.305,958.492,347.922,949.989,343.012z"/>
			<g>
				<path style="fill:#143B75;" d="M1201.375-137.092L895.788-313.375c-3.936-2.271-7.552-2.62-10.463-1.406l0.012-0.036
					l-0.501,0.232c-0.04,0.02-0.082,0.036-0.122,0.057l-9.949,4.681l10.802,5.376c-0.004,0.202-0.023,0.392-0.023,0.598
					l0.094,250.992c0.005,12.56,7.779,27.225,17.365,32.754l297.438,171.584l1.689,13.998l10.861-5.182
					c3.579-2.1,5.843-6.85,5.841-13.619l-0.094-250.992C1218.733-116.898,1210.961-131.563,1201.375-137.092z"/>
				<path style="fill:#3867A1;" d="M1201.375-137.092L895.788-313.375c-3.936-2.271-7.552-2.62-10.463-1.406l0.012-0.036
					l-0.501,0.232c-0.04,0.02-0.082,0.036-0.122,0.057l-9.949,4.681l10.802,5.376c-0.004,0.202-0.023,0.392-0.023,0.598
					l0.062,165.418L1024.68-28.571l188.829-95.03C1210.378-129.418,1206.098-134.366,1201.375-137.092z"/>
				<path style="fill:#264C83;" d="M1206.48-133.143l-29.949,12.598l22.613,17.421l18.881-8.039
					C1216.385-119.415,1212.027-127.709,1206.48-133.143z"/>
				<path style="fill:#D2E8F8;" d="M1191.426,164.127L885.839-12.158c-9.586-5.529-17.36-20.194-17.365-32.754l-0.094-250.992
					c-0.005-12.56,7.763-18.261,17.349-12.732l305.588,176.284c9.583,5.529,17.357,20.194,17.362,32.754l0.094,250.991
					C1208.777,163.953,1201.01,169.654,1191.426,164.127z"/>
				<path style="fill:#FFFFFF;" d="M1181.259,145.457L895.855-19.105c-8.77-5.059-15.883-18.478-15.888-29.972l-0.087-229.68
					c-0.002-11.495,7.104-16.711,15.874-11.65l285.403,164.561c8.772,5.06,15.886,18.478,15.891,29.973l0.084,229.676
					C1197.138,145.299,1190.031,150.514,1181.259,145.457z"/>
				<path style="fill:#FFFFFF;" d="M1181.259,145.457L895.855-19.105c-8.77-5.059-15.883-18.478-15.888-29.972l-0.087-229.68
					c-0.002-11.495,7.104-16.711,15.874-11.65l285.403,164.561c8.772,5.06,15.886,18.478,15.891,29.973l0.084,229.676
					C1197.138,145.299,1190.031,150.514,1181.259,145.457z"/>
			</g>
			<path style="fill:#143B75;" d="M1195.989,171.922l-41.095-5.428L889.626,13.342c-8.503-4.91-23.357-4.293-33.178,1.376
				L668.479,123.201l-24.849-3.281v14.1l0.024,0.002c-0.163,3.26,1.692,6.395,5.705,8.709l300.629,173.568
				c8.503,4.91,23.358,4.295,33.179-1.375l204.705-118.148c5.524-3.188,8.278-7.299,8.116-11.156l0,0V171.922z"/>
			<path style="fill:#3867A1;" d="M996.675,75.146l-18.847-10.882H770.627l-102.147,58.937l-24.849-3.281v14.1l0.024,0.002
				c-0.163,3.26,1.692,6.395,5.705,8.709l300.629,173.568c4.493,2.596,10.761,3.631,17.121,3.209L996.675,75.146z"/>
			<path style="fill:#558BC2;" d="M654.658,121.377l-11.027-1.457v14.1l0.024,0.002c-0.163,3.26,1.692,6.395,5.705,8.709
				l5.298,3.059V121.377z"/>
			<path style="fill:#264C83;" d="M953.016,317.705c8.06,3.057,19.586,2.391,28.192-1.75v-31.449h-28.192V317.705z"/>
			<path style="fill:#D2E8F8;" d="M949.989,302.217L649.36,128.65c-8.505-4.91-7.438-13.488,2.382-19.156L856.448-8.654
				c9.82-5.669,24.675-6.286,33.178-1.375l300.628,173.569c8.506,4.91,7.438,13.486-2.381,19.154L983.168,300.84
				C973.348,306.51,958.492,307.127,949.989,302.217z"/>
			<path style="fill:#FFFFFF;" d="M1187.873,177.545L983.168,295.691c-9.82,5.67-24.676,6.285-33.179,1.375L649.36,123.5
				c-2.788-1.609-4.527-3.615-5.286-5.783c-1.332,4.021,0.365,8.09,5.286,10.934l300.629,173.566
				c8.503,4.91,23.358,4.295,33.179-1.375l204.705-118.148c6.6-3.811,9.225-8.932,7.669-13.373
				C1194.574,172.25,1192.01,175.156,1187.873,177.545z"/>
			<g>
				<path style="fill:#143B75;" d="M777.223,71.188l-13.604-7.854c-1.092-0.631-0.956-1.732,0.305-2.459l16.057-9.27
					c1.262-0.729,3.169-0.809,4.262-0.178l13.601,7.854c1.092,0.631,0.956,1.732-0.305,2.461l-16.055,9.27
					C780.223,71.738,778.314,71.818,777.223,71.188z"/>
				<path style="fill:#143B75;" d="M798.227,83.316l-13.603-7.854c-1.09-0.631-0.954-1.732,0.307-2.461l16.058-9.27
					c1.258-0.729,3.166-0.807,4.258-0.176l13.604,7.852c1.092,0.633,0.954,1.734-0.307,2.461l-16.055,9.27
					C801.227,83.867,799.319,83.947,798.227,83.316z"/>
				<path style="fill:#143B75;" d="M819.234,95.443l-13.604-7.854c-1.092-0.631-0.954-1.732,0.307-2.459l16.055-9.27
					c1.262-0.729,3.169-0.809,4.262-0.178l13.603,7.854c1.09,0.631,0.954,1.732-0.307,2.461l-16.055,9.27
					C822.234,95.994,820.326,96.074,819.234,95.443z"/>
				<path style="fill:#143B75;" d="M848.285,85.429l-13.602-7.854c-1.092-0.63-0.956-1.731,0.305-2.458l13.479-7.781
					c1.261-0.729,3.169-0.809,4.261-0.179l13.601,7.854c1.093,0.63,0.956,1.731-0.305,2.458l-13.479,7.781
					C851.285,85.979,849.377,86.059,848.285,85.429z"/>
				<path style="fill:#143B75;" d="M869.292,97.555l-13.604-7.852c-1.092-0.633-0.954-1.734,0.308-2.461l13.477-7.781
					c1.261-0.729,3.168-0.806,4.261-0.178l13.603,7.854c1.093,0.631,0.954,1.732-0.307,2.461l-13.477,7.781
					C872.292,98.107,870.384,98.186,869.292,97.555z"/>
				<path style="fill:#143B75;" d="M890.297,109.684l-13.602-7.854c-1.092-0.631-0.956-1.732,0.305-2.461l13.479-7.781
					c1.261-0.727,3.169-0.807,4.261-0.176l13.601,7.854c1.093,0.631,0.956,1.732-0.305,2.461l-13.479,7.781
					C893.297,110.234,891.389,110.314,890.297,109.684z"/>
				<path style="fill:#143B75;" d="M911.304,121.811l-13.604-7.854c-1.092-0.629-0.954-1.73,0.308-2.459l13.477-7.781
					c1.261-0.729,3.168-0.809,4.261-0.176l13.603,7.852c1.093,0.631,0.954,1.732-0.307,2.461l-13.477,7.781
					C914.304,122.361,912.396,122.441,911.304,121.811z"/>
				<path style="fill:#143B75;" d="M932.309,133.939l-13.602-7.854c-1.092-0.631-0.956-1.732,0.305-2.459l13.479-7.781
					c1.261-0.729,3.169-0.809,4.261-0.178l13.601,7.854c1.093,0.631,0.956,1.732-0.305,2.459l-13.479,7.781
					C935.309,134.49,933.4,134.57,932.309,133.939z"/>
				<path style="fill:#143B75;" d="M953.315,146.066l-13.604-7.852c-1.092-0.633-0.954-1.734,0.308-2.461l13.477-7.781
					c1.261-0.729,3.168-0.807,4.261-0.178l13.603,7.854c1.093,0.631,0.954,1.732-0.307,2.461l-13.477,7.781
					C956.315,146.619,954.407,146.699,953.315,146.066z"/>
				<path style="fill:#143B75;" d="M974.32,158.195l-13.602-7.854c-1.092-0.631-0.956-1.732,0.305-2.461l13.479-7.781
					c1.261-0.727,3.169-0.807,4.261-0.176l13.601,7.854c1.093,0.631,0.956,1.732-0.305,2.461l-13.479,7.781
					C977.32,158.746,975.412,158.826,974.32,158.195z"/>
				<path style="fill:#143B75;" d="M995.327,170.322l-13.604-7.855c-1.092-0.627-0.954-1.729,0.308-2.457l13.477-7.781
					c1.261-0.73,3.168-0.809,4.261-0.176l13.603,7.852c1.093,0.633,0.954,1.73-0.307,2.461l-13.477,7.781
					C998.327,170.873,996.419,170.951,995.327,170.322z"/>
				<path style="fill:#143B75;" d="M1016.332,182.451l-13.602-7.855c-1.092-0.629-0.956-1.73,0.305-2.457l13.479-7.781
					c1.261-0.73,3.169-0.809,4.261-0.18l13.601,7.855c1.093,0.629,0.956,1.73-0.305,2.457l-13.479,7.781
					C1019.332,183.002,1017.424,183.08,1016.332,182.451z"/>
				<path style="fill:#143B75;" d="M1037.339,194.576l-13.604-7.852c-1.092-0.633-0.954-1.73,0.308-2.461l13.477-7.781
					c1.261-0.729,3.168-0.805,4.261-0.178l13.603,7.854c1.093,0.631,0.954,1.732-0.307,2.461L1041.6,194.4
					C1040.339,195.131,1038.431,195.207,1037.339,194.576z"/>
				<path style="fill:#3867A1;" d="M879.236,79.687l-13.604-7.854c-1.092-0.63-0.953-1.731,0.308-2.458l13.477-7.781
					c1.261-0.729,3.171-0.806,4.261-0.179l13.604,7.854c1.092,0.63,0.953,1.731-0.308,2.458l-13.477,7.781
					C882.236,80.237,880.328,80.316,879.236,79.687z"/>
				<path style="fill:#3867A1;" d="M857.918,67.377l-13.604-7.852c-1.092-0.633-0.954-1.734,0.307-2.461l13.477-7.781
					c1.262-0.729,3.169-0.807,4.262-0.178l13.603,7.854c1.093,0.631,0.954,1.732-0.307,2.461l-13.477,7.781
					C860.918,67.93,859.01,68.008,857.918,67.377z"/>
				<path style="fill:#143B75;" d="M836.563,55.049l-29.297-16.914c-1.092-0.631-0.954-1.732,0.308-2.459l13.477-7.782
					c1.261-0.729,3.168-0.809,4.261-0.178l29.297,16.915c1.092,0.631,0.954,1.732-0.308,2.459l-13.479,7.781
					C839.562,55.6,837.653,55.68,836.563,55.049z"/>
				<path style="fill:#143B75;" d="M851.488,40.057l-23.772-13.728c-1.092-0.631-0.956-1.73,0.305-2.459l13.479-7.781
					c1.261-0.729,3.166-0.809,4.258-0.178l23.775,13.727c1.092,0.631,0.956,1.732-0.305,2.461l-13.479,7.779
					C854.488,40.607,852.581,40.687,851.488,40.057z"/>
				<path style="fill:#3867A1;" d="M900.241,91.813l-13.601-7.852c-1.093-0.63-0.957-1.731,0.307-2.461l13.477-7.781
					c1.261-0.727,3.169-0.806,4.261-0.176l13.604,7.854c1.09,0.628,0.954,1.729-0.308,2.458l-13.477,7.781
					C903.241,92.366,901.333,92.445,900.241,91.813z"/>
				<path style="fill:#143B75;" d="M921.248,103.941l-13.601-7.854c-1.095-0.631-0.956-1.732,0.305-2.461l13.477-7.779
					c1.261-0.729,3.169-0.809,4.261-0.178l13.604,7.854c1.092,0.631,0.956,1.732-0.305,2.461l-13.479,7.781
					C924.248,104.492,922.34,104.572,921.248,103.941z"/>
				<path style="fill:#143B75;" d="M942.255,116.07l-13.603-7.854c-1.093-0.631-0.957-1.732,0.305-2.461l13.479-7.781
					c1.261-0.729,3.169-0.807,4.261-0.176l13.604,7.852c1.09,0.633,0.954,1.734-0.308,2.461l-13.477,7.781
					C945.253,116.621,943.348,116.699,942.255,116.07z"/>
				<path style="fill:#143B75;" d="M963.26,128.197l-13.604-7.854c-1.092-0.631-0.953-1.732,0.308-2.459l13.477-7.781
					c1.261-0.729,3.169-0.809,4.261-0.178l13.604,7.854c1.092,0.631,0.953,1.732-0.305,2.461l-13.479,7.779
					C966.26,128.748,964.352,128.828,963.26,128.197z"/>
				<path style="fill:#143B75;" d="M984.265,140.324l-13.601-7.852c-1.093-0.631-0.957-1.732,0.307-2.461l13.477-7.781
					c1.261-0.727,3.169-0.807,4.261-0.176l13.604,7.854c1.09,0.629,0.954,1.73-0.308,2.459l-13.477,7.781
					C987.265,140.877,985.359,140.957,984.265,140.324z"/>
				<path style="fill:#143B75;" d="M1005.271,152.453l-13.601-7.854c-1.093-0.631-0.956-1.732,0.305-2.459l13.477-7.781
					c1.261-0.729,3.169-0.809,4.261-0.178l13.604,7.854c1.092,0.631,0.956,1.732-0.305,2.461l-13.479,7.781
					C1008.271,153.004,1006.363,153.084,1005.271,152.453z"/>
				<path style="fill:#143B75;" d="M1026.278,164.582l-13.603-7.854c-1.093-0.631-0.957-1.732,0.305-2.461l13.479-7.779
					c1.261-0.732,3.169-0.809,4.261-0.178l13.601,7.852c1.093,0.633,0.957,1.734-0.305,2.461l-13.477,7.781
					C1029.278,165.133,1027.371,165.209,1026.278,164.582z"/>
				<path style="fill:#143B75;" d="M1047.283,176.709l-13.604-7.855c-1.092-0.629-0.953-1.73,0.308-2.457l13.479-7.781
					c1.261-0.73,3.167-0.809,4.261-0.18l13.602,7.855c1.092,0.629,0.953,1.73-0.308,2.461l-13.477,7.781
					C1050.283,177.26,1048.375,177.338,1047.283,176.709z"/>
				<path style="fill:#143B75;" d="M1068.29,188.834l-13.603-7.852c-1.093-0.629-0.957-1.73,0.307-2.461l13.477-7.781
					c1.261-0.727,3.169-0.805,4.261-0.176l13.604,7.855c1.092,0.627,0.954,1.729-0.308,2.457l-13.477,7.781
					C1071.288,189.389,1069.383,189.467,1068.29,188.834z"/>
				<path style="fill:#143B75;" d="M1105.633,210.396l-29.679-17.135c-1.092-0.631-0.954-1.732,0.308-2.461l13.477-7.781
					c1.261-0.729,3.168-0.807,4.261-0.176l29.679,17.135c1.092,0.631,0.954,1.732-0.307,2.459l-13.477,7.781
					C1108.633,210.947,1106.726,211.027,1105.633,210.396z"/>
				<path style="fill:#143B75;" d="M1146.529,186.787l-25.05-14.465c-1.093-0.629-0.956-1.73,0.305-2.461l13.479-7.781
					c1.261-0.729,3.169-0.805,4.261-0.176l25.051,14.461c1.092,0.633,0.953,1.734-0.308,2.461l-13.477,7.781
					C1149.529,187.338,1147.621,187.416,1146.529,186.787z"/>
				<path style="fill:#143B75;" d="M937.028,89.441l-13.603-7.854c-1.093-0.631-0.954-1.732,0.307-2.459l13.477-7.781
					c1.261-0.729,3.169-0.809,4.261-0.178l13.604,7.854c1.092,0.631,0.954,1.732-0.308,2.461l-13.477,7.779
					C940.028,89.994,938.121,90.072,937.028,89.441z"/>
				<path style="fill:#143B75;" d="M915.499,77.012l-13.601-7.854c-1.093-0.631-0.957-1.732,0.305-2.461l13.479-7.781
					c1.261-0.727,3.169-0.807,4.261-0.176l13.601,7.854c1.093,0.631,0.957,1.732-0.305,2.461l-13.479,7.781
					C918.499,77.563,916.591,77.643,915.499,77.012z"/>
				<path style="fill:#3867A1;" d="M893.972,64.584l-13.604-7.854c-1.092-0.63-0.954-1.731,0.308-2.461l13.477-7.778
					c1.261-0.732,3.168-0.809,4.261-0.179l13.603,7.852c1.093,0.633,0.954,1.734-0.307,2.461l-13.477,7.781
					C896.972,65.135,895.063,65.211,893.972,64.584z"/>
				<path style="fill:#143B75;" d="M872.441,52.152l-13.601-7.852c-1.092-0.633-0.956-1.732,0.305-2.461l13.479-7.782
					c1.261-0.729,3.168-0.806,4.261-0.176l13.601,7.853c1.092,0.631,0.956,1.732-0.305,2.461l-13.479,7.781
					C875.441,52.705,873.536,52.785,872.441,52.152z"/>
				<path style="fill:#143B75;" d="M958.033,101.568l-13.601-7.852c-1.093-0.631-0.956-1.732,0.305-2.461l13.479-7.781
					c1.261-0.727,3.169-0.807,4.261-0.176l13.602,7.854c1.092,0.628,0.956,1.729-0.305,2.459l-13.479,7.781
					C961.033,102.121,959.125,102.201,958.033,101.568z"/>
				<path style="fill:#143B75;" d="M979.04,113.697l-13.603-7.855c-1.093-0.629-0.954-1.73,0.307-2.457l13.477-7.781
					c1.261-0.73,3.169-0.809,4.261-0.18l13.604,7.855c1.092,0.629,0.954,1.73-0.308,2.461l-13.477,7.781
					C982.04,114.248,980.133,114.326,979.04,113.697z"/>
				<path style="fill:#143B75;" d="M1000.045,125.826l-13.601-7.855c-1.093-0.629-0.956-1.73,0.305-2.461l13.479-7.781
					c1.261-0.729,3.169-0.805,4.261-0.176l13.602,7.852c1.092,0.633,0.956,1.734-0.305,2.461l-13.479,7.781
					C1003.045,126.377,1001.137,126.453,1000.045,125.826z"/>
				<path style="fill:#143B75;" d="M1021.052,137.951l-13.603-7.852c-1.093-0.633-0.954-1.734,0.307-2.461l13.477-7.781
					c1.261-0.729,3.169-0.809,4.261-0.178l13.604,7.854c1.092,0.631,0.954,1.732-0.308,2.461l-13.477,7.781
					C1024.052,138.502,1022.145,138.582,1021.052,137.951z"/>
				<path style="fill:#143B75;" d="M1042.057,150.078l-13.601-7.852c-1.093-0.631-0.956-1.732,0.305-2.461l13.479-7.781
					c1.261-0.727,3.169-0.807,4.261-0.176l13.602,7.854c1.092,0.629,0.956,1.73-0.305,2.459l-13.479,7.781
					C1045.057,150.631,1043.148,150.711,1042.057,150.078z"/>
				<path style="fill:#143B75;" d="M1063.063,162.207l-13.603-7.854c-1.093-0.631-0.954-1.73,0.307-2.459l13.477-7.781
					c1.261-0.729,3.169-0.809,4.261-0.178l13.604,7.854c1.092,0.631,0.954,1.732-0.308,2.461l-13.477,7.781
					C1066.063,162.758,1064.156,162.838,1063.063,162.207z"/>
				<path style="fill:#143B75;" d="M1084.068,174.336l-13.601-7.854c-1.093-0.631-0.956-1.732,0.305-2.461l13.479-7.781
					c1.261-0.729,3.169-0.807,4.261-0.176l13.602,7.854c1.092,0.631,0.956,1.732-0.305,2.459l-13.479,7.781
					C1087.068,174.887,1085.16,174.965,1084.068,174.336z"/>
				<path style="fill:#143B75;" d="M1105.075,186.463l-13.603-7.854c-1.093-0.631-0.954-1.732,0.307-2.459l13.477-7.781
					c1.261-0.729,3.169-0.809,4.261-0.178l13.604,7.854c1.092,0.631,0.954,1.732-0.308,2.461l-13.477,7.781
					C1108.075,187.016,1106.168,187.094,1105.075,186.463z"/>
				<path style="fill:#143B75;" d="M1126.08,198.59l-13.601-7.852c-1.093-0.631-0.956-1.732,0.305-2.461l13.479-7.781
					c1.261-0.727,3.169-0.807,4.261-0.176l13.602,7.854c1.092,0.629,0.956,1.73-0.305,2.459l-13.479,7.781
					C1129.08,199.143,1127.172,199.223,1126.08,198.59z"/>
				<path style="fill:#143B75;" d="M925.966,59.443l-13.601-7.854c-1.092-0.629-0.956-1.73,0.305-2.459l13.479-7.781
					c1.262-0.729,3.169-0.809,4.262-0.176l13.601,7.852c1.092,0.631,0.956,1.732-0.305,2.461l-13.479,7.781
					C928.966,59.994,927.059,60.074,925.966,59.443z"/>
				<path style="fill:#143B75;" d="M905.064,47.375l-13.601-7.852c-1.093-0.63-0.956-1.731,0.307-2.461l13.477-7.78
					c1.261-0.727,3.169-0.807,4.261-0.176l13.604,7.854c1.09,0.628,0.954,1.729-0.307,2.458l-13.477,7.781
					C908.064,47.929,906.159,48.008,905.064,47.375z"/>
				<path style="fill:#143B75;" d="M884.165,35.311l-13.603-7.854c-1.093-0.631-0.954-1.732,0.307-2.459l13.477-7.783
					c1.261-0.727,3.169-0.807,4.261-0.176l13.604,7.854c1.092,0.631,0.954,1.732-0.308,2.459l-13.477,7.781
					C887.163,35.861,885.258,35.94,884.165,35.311z"/>
				<path style="fill:#143B75;" d="M863.264,23.241l-13.604-7.854c-1.092-0.631-0.953-1.732,0.308-2.459l13.477-7.782
					c1.261-0.728,3.169-0.808,4.261-0.177l13.604,7.853c1.092,0.631,0.953,1.732-0.308,2.461l-13.477,7.781
					C866.264,23.792,864.355,23.872,863.264,23.241z"/>
				<path style="fill:#143B75;" d="M884.756,10.833L871.152,2.98c-1.092-0.63-0.953-1.732,0.308-2.461l4.455-2.572
					c1.261-0.728,3.169-0.807,4.261-0.177l13.602,7.854c1.092,0.63,0.956,1.732-0.305,2.459l-4.456,2.572
					C887.756,11.385,885.848,11.464,884.756,10.833z"/>
				<path style="fill:#143B75;" d="M912.032,26.581l-13.603-7.854c-1.093-0.631-0.954-1.732,0.307-2.461l4.455-2.57
					c1.262-0.729,3.169-0.809,4.262-0.179l13.601,7.854c1.092,0.63,0.956,1.731-0.305,2.461l-4.456,2.57
					C915.032,27.132,913.125,27.21,912.032,26.581z"/>
				<path style="fill:#143B75;" d="M932.848,38.598l-13.604-7.854c-1.092-0.63-0.954-1.731,0.307-2.461l4.456-2.571
					c1.261-0.729,3.169-0.809,4.261-0.176l13.601,7.852c1.093,0.631,0.956,1.732-0.305,2.462l-4.455,2.572
					C935.848,39.148,933.939,39.229,932.848,38.598z"/>
				<path style="fill:#143B75;" d="M953.66,50.615l-13.602-7.852c-1.092-0.633-0.956-1.734,0.305-2.461l4.456-2.574
					c1.261-0.727,3.169-0.807,4.261-0.176l13.604,7.854c1.092,0.631,0.956,1.732-0.308,2.459l-4.455,2.574
					C956.66,51.168,954.752,51.245,953.66,50.615z"/>
				<path style="fill:#143B75;" d="M974.475,62.633l-13.601-7.854c-1.093-0.631-0.956-1.732,0.305-2.461l4.455-2.57
					c1.261-0.729,3.169-0.809,4.261-0.179l13.604,7.854c1.092,0.63,0.954,1.731-0.307,2.458l-4.456,2.573
					C977.475,63.184,975.566,63.262,974.475,62.633z"/>
				<path style="fill:#143B75;" d="M1090.678,129.721l-13.601-7.852c-1.093-0.631-0.956-1.732,0.305-2.461l4.455-2.574
					c1.261-0.727,3.169-0.805,4.261-0.176l13.604,7.855c1.092,0.629,0.954,1.73-0.307,2.461l-4.456,2.57
					C1093.678,130.273,1091.77,130.354,1090.678,129.721z"/>
				<path style="fill:#143B75;" d="M1111.492,141.74l-13.603-7.855c-1.093-0.629-0.954-1.73,0.307-2.457l4.456-2.574
					c1.261-0.729,3.168-0.807,4.261-0.178l13.601,7.854c1.092,0.631,0.956,1.732-0.305,2.461l-4.455,2.57
					C1114.492,142.291,1112.585,142.369,1111.492,141.74z"/>
				<path style="fill:#143B75;" d="M1132.308,153.756l-13.604-7.854c-1.092-0.631-0.954-1.732,0.308-2.459l4.453-2.574
					c1.263-0.729,3.168-0.805,4.263-0.176l13.601,7.855c1.093,0.629,0.957,1.73-0.305,2.457l-4.455,2.574
					C1135.308,154.307,1133.399,154.387,1132.308,153.756z"/>
				<path style="fill:#143B75;" d="M1153.12,165.771l-13.601-7.852c-1.093-0.629-0.957-1.73,0.305-2.461l4.455-2.572
					c1.261-0.727,3.169-0.807,4.261-0.176l13.604,7.854c1.092,0.631,0.956,1.732-0.308,2.461l-4.455,2.57
					C1156.12,166.326,1154.212,166.404,1153.12,165.771z"/>
				<path style="fill:#143B75;" d="M946.973,71.572l-13.603-7.854c-1.093-0.631-0.954-1.732,0.307-2.461l13.477-7.781
					c1.261-0.727,3.169-0.807,4.261-0.176l13.604,7.854c1.092,0.631,0.954,1.732-0.307,2.459l-13.477,7.781
					C949.973,72.123,948.065,72.203,946.973,71.572z"/>
				<path style="fill:#143B75;" d="M967.98,83.699l-13.604-7.852c-1.092-0.633-0.956-1.732,0.305-2.461l13.479-7.781
					c1.262-0.729,3.169-0.807,4.262-0.178l13.601,7.854c1.092,0.631,0.956,1.732-0.305,2.461l-13.477,7.781
					C970.978,84.252,969.072,84.33,967.98,83.699z"/>
				<path style="fill:#143B75;" d="M988.984,95.828l-13.603-7.854c-1.093-0.631-0.954-1.732,0.307-2.461l13.477-7.781
					c1.261-0.727,3.169-0.807,4.261-0.176l13.604,7.854c1.092,0.631,0.954,1.732-0.307,2.459l-13.477,7.781
					C991.984,96.379,990.077,96.459,988.984,95.828z"/>
				<path style="fill:#143B75;" d="M1009.989,107.955l-13.601-7.855c-1.092-0.627-0.956-1.729,0.307-2.457l13.477-7.781
					c1.262-0.729,3.169-0.809,4.262-0.176l13.603,7.852c1.09,0.629,0.954,1.73-0.307,2.461l-13.479,7.781
					C1012.989,108.506,1011.082,108.584,1009.989,107.955z"/>
				<path style="fill:#143B75;" d="M1030.996,120.084l-13.601-7.855c-1.095-0.629-0.956-1.73,0.305-2.461l13.477-7.777
					c1.261-0.73,3.169-0.809,4.261-0.18l13.604,7.855c1.092,0.629,0.956,1.73-0.305,2.457l-13.479,7.781
					C1033.996,120.635,1032.089,120.713,1030.996,120.084z"/>
				<path style="fill:#143B75;" d="M1052.004,132.209l-13.604-7.852c-1.092-0.633-0.956-1.734,0.305-2.461l13.479-7.781
					c1.262-0.727,3.169-0.805,4.262-0.178l13.601,7.857c1.092,0.627,0.956,1.729-0.305,2.457l-13.477,7.781
					C1055.001,132.764,1053.096,132.84,1052.004,132.209z"/>
				<path style="fill:#143B75;" d="M1073.008,144.338l-13.603-7.854c-1.093-0.631-0.954-1.732,0.307-2.461l13.479-7.781
					c1.261-0.727,3.166-0.807,4.258-0.176l13.604,7.854c1.092,0.631,0.954,1.732-0.307,2.459l-13.477,7.781
					C1076.008,144.889,1074.101,144.969,1073.008,144.338z"/>
				<path style="fill:#143B75;" d="M1094.013,156.465l-13.601-7.854c-1.092-0.629-0.954-1.73,0.307-2.459l13.477-7.781
					c1.262-0.729,3.169-0.809,4.262-0.176l13.603,7.852c1.093,0.631,0.954,1.732-0.307,2.461l-13.479,7.781
					C1097.013,157.018,1095.107,157.096,1094.013,156.465z"/>
				<path style="fill:#143B75;" d="M1115.02,168.594l-13.601-7.854c-1.092-0.631-0.956-1.732,0.305-2.459l13.477-7.781
					c1.261-0.729,3.169-0.809,4.261-0.178l13.604,7.854c1.092,0.631,0.956,1.732-0.305,2.459l-13.479,7.781
					C1118.02,169.145,1116.112,169.225,1115.02,168.594z"/>
				<path style="fill:#143B75;" d="M826.879,73.068L786.82,49.939c-1.093-0.631-0.957-1.729,0.305-2.459l13.479-7.781
					c1.261-0.729,3.169-0.809,4.261-0.176l40.06,23.129c1.092,0.628,0.954,1.729-0.307,2.459l-13.477,7.781
					C829.879,73.621,827.972,73.701,826.879,73.068z"/>
				<path style="fill:#143B75;" d="M1084.942,222.063l-40.062-23.131c-1.092-0.629-0.954-1.73,0.307-2.459l13.477-7.781
					c1.262-0.729,3.169-0.809,4.262-0.176l40.059,23.129c1.093,0.631,0.957,1.729-0.305,2.459l-13.479,7.781
					C1087.94,222.613,1086.032,222.693,1084.942,222.063z"/>
				<path style="fill:#143B75;" d="M1000.936,200.35l-13.601-7.854c-1.093-0.631-0.956-1.732,0.305-2.461l16.055-9.268
					c1.261-0.729,3.169-0.809,4.261-0.178l13.604,7.854c1.092,0.631,0.953,1.732-0.308,2.459l-16.055,9.271
					C1003.936,200.9,1002.027,200.98,1000.936,200.35z"/>
				<path style="fill:#143B75;" d="M848.391,112.279l-21.753-12.561c-1.092-0.631-0.956-1.732,0.305-2.461l16.055-9.27
					c1.261-0.727,3.169-0.807,4.261-0.176l21.755,12.561c1.093,0.629,0.956,1.729-0.305,2.457l-16.057,9.27
					C851.391,112.83,849.482,112.908,848.391,112.279z"/>
				<path style="fill:#143B75;" d="M980.697,188.664l-21.755-12.561c-1.092-0.629-0.956-1.73,0.308-2.459l16.055-9.27
					c1.261-0.729,3.168-0.807,4.261-0.178l21.752,12.561c1.093,0.631,0.956,1.732-0.305,2.461l-16.055,9.27
					C983.697,189.217,981.789,189.295,980.697,188.664z"/>
				<path style="fill:#143B75;" d="M878.697,129.775l-21.755-12.559c-1.09-0.631-0.954-1.732,0.308-2.461l16.055-9.27
					c1.263-0.729,3.168-0.807,4.261-0.178l21.755,12.561c1.092,0.629,0.953,1.73-0.308,2.461l-16.055,9.27
					C881.697,130.326,879.789,130.404,878.697,129.775z"/>
				<path style="fill:#143B75;" d="M877.713,105.395L972.293,160c1.172,0.678,1.174,1.775,0,2.453l-16.374,9.453
					c-1.172,0.678-3.075,0.678-4.249,0l-94.577-54.605L877.713,105.395z"/>
				<path style="fill:#143B75;" d="M1059.645,222.338l15.149,8.75c0.896,0.516,0.785,1.418-0.248,2.016l-6.569,3.793
					c-1.034,0.594-2.598,0.66-3.492,0.143l-15.152-8.748c-0.894-0.518-0.783-1.42,0.253-2.018l6.567-3.789
					C1057.186,221.887,1058.749,221.82,1059.645,222.338z"/>
				<path style="fill:#143B75;" d="M1038.464,210.111l15.152,8.746c0.896,0.516,0.782,1.422-0.251,2.016l-6.569,3.793
					c-1.034,0.598-2.597,0.66-3.492,0.145l-15.15-8.746c-0.896-0.518-0.782-1.42,0.251-2.018l6.567-3.793
					C1036.005,209.658,1037.568,209.594,1038.464,210.111z"/>
				<path style="fill:#143B75;" d="M1017.459,197.982l15.15,8.746c0.895,0.52,0.782,1.422-0.251,2.02l-6.567,3.791
					c-1.033,0.596-2.597,0.662-3.492,0.143l-15.152-8.746c-0.896-0.518-0.783-1.42,0.251-2.016l6.567-3.793
					C1015,197.529,1016.563,197.465,1017.459,197.982z"/>
				<path style="fill:#143B75;" d="M1050.063,203.412l15.152,8.748c0.896,0.518,0.783,1.42-0.25,2.018l-6.567,3.789
					c-1.034,0.598-2.597,0.664-3.492,0.146l-15.152-8.748c-0.896-0.516-0.783-1.42,0.251-2.016l6.566-3.791
					C1047.604,202.961,1049.168,202.896,1050.063,203.412z"/>
			</g>
		</g>
	</g>
	<g>
		<path style="opacity:0.4;fill:#D2E8F8;" d="M1019.098-80.86l-99.725-57.577c-2.451-1.413-4.437-5.209-4.437-8.475v-78.464
			c0-3.267,1.985-4.767,4.437-3.354l99.725,57.577c2.449,1.415,4.434,5.209,4.434,8.476v78.463
			C1023.531-80.947,1021.547-79.446,1019.098-80.86z"/>
		<g>
			<path style="fill:#B0CFE4;" d="M949.53-133.85l-0.703-0.406c-2.6-1.501-4.706-5.526-4.706-8.993v-37.393
				c0-3.465,2.106-5.058,4.706-3.558l0.703,0.405c2.599,1.501,4.706,5.528,4.706,8.993v37.392
				C954.236-133.943,952.129-132.35,949.53-133.85z"/>
			<path style="fill:#B0CFE4;" d="M969.586-122.27l-0.703-0.405c-2.6-1.502-4.707-5.528-4.707-8.993v-21.886
				c0-3.466,2.107-5.058,4.707-3.558l0.703,0.405c2.599,1.5,4.706,5.526,4.706,8.993v21.885
				C974.292-122.364,972.185-120.77,969.586-122.27z"/>
			<path style="fill:#3867A1;" d="M989.641-110.692l-0.7-0.405c-2.6-1.5-4.706-5.526-4.706-8.993v-52.091
				c0-3.466,2.106-5.059,4.706-3.559l0.7,0.406c2.602,1.501,4.709,5.527,4.709,8.993v52.092
				C994.35-110.783,992.242-109.189,989.641-110.692z"/>
		</g>
	</g>
	<g>
		<path style="fill:#B0CFE4;" d="M1114.176-101.959l-61.957-35.77c-2.297-1.327-4.16-4.886-4.16-7.948l0,0
			c0-3.063,1.863-4.472,4.16-3.146l61.957,35.771c2.297,1.327,4.16,4.885,4.16,7.949l0,0
			C1118.336-102.041,1116.473-100.632,1114.176-101.959z"/>
		<path style="fill:#B0CFE4;" d="M1074.32-103.18l-22.102-12.76c-2.297-1.327-4.16-4.886-4.16-7.949l0,0
			c0-3.063,1.863-4.47,4.16-3.145l22.102,12.761c2.297,1.327,4.16,4.884,4.16,7.948l0,0
			C1078.48-103.262,1076.617-101.854,1074.32-103.18z"/>
		<path style="fill:#3867A1;" d="M1111.41-81.765l-22.102-12.762c-2.297-1.327-4.16-4.884-4.16-7.948l0,0
			c0-3.063,1.863-4.471,4.16-3.144l22.102,12.761c2.297,1.326,4.16,4.884,4.16,7.947l0,0
			C1115.57-81.847,1113.707-80.44,1111.41-81.765z"/>
		<path style="fill:#B0CFE4;" d="M1158.019-54.772l-31.617-18.34c-2.3-1.327-4.16-4.885-4.16-7.948l0,0
			c0-3.063,1.86-4.472,4.16-3.146l31.617,18.34c2.297,1.327,4.16,4.884,4.16,7.948l0,0
			C1162.179-54.854,1160.315-53.447,1158.019-54.772z"/>
		<path style="fill:#B0CFE4;" d="M1129.631-49.457l-77.412-44.695c-2.297-1.325-4.16-4.884-4.16-7.948l0,0
			c0-3.063,1.863-4.471,4.16-3.144l77.412,44.694c2.297,1.326,4.16,4.884,4.16,7.947l0,0
			C1133.791-49.539,1131.928-48.13,1129.631-49.457z"/>
		<path style="fill:#3867A1;" d="M1162.179-9.126l-109.96-63.235c-2.297-1.327-4.16-4.885-4.16-7.948l0,0
			c0-3.063,1.863-4.472,4.16-3.146l109.96,63.237c2.297,1.325,4.16,4.884,4.16,7.948l0,0
			C1166.339-9.208,1164.476-7.8,1162.179-9.126z"/>
		<path style="fill:#B0CFE4;" d="M1171.479-68.973l-40.197-23.11c-2.297-1.327-4.16-4.886-4.16-7.949l0,0
			c0-3.062,1.863-4.47,4.16-3.143l40.197,23.11c2.297,1.326,4.16,4.886,4.16,7.948l0,0
			C1175.639-69.054,1173.775-67.646,1171.479-68.973z"/>
	</g>
	<g>
		<polygon style="fill:#3867A1;" points="934.239,-67.302 914.679,-78.594 914.679,-56.008 934.239,-44.715 		"/>
		<polygon style="fill:#D2E8F8;" points="965.14,-68.12 945.578,-79.412 945.578,-38.169 965.14,-26.875 		"/>
		<polygon style="fill:#D2E8F8;" points="996.039,-38.495 976.479,-49.788 976.479,-20.329 996.039,-9.035 		"/>
		<polygon style="fill:#D2E8F8;" points="1026.939,-29.166 1007.379,-40.459 1007.379,-2.488 1026.939,8.806 		"/>
		<polygon style="fill:#3867A1;" points="1057.84,-9.034 1038.278,-20.327 1038.278,15.353 1057.84,26.646 		"/>
		<polygon style="fill:#143B75;" points="1088.739,-0.174 1069.179,-11.469 1069.179,33.19 1088.739,44.486 		"/>
		<polygon style="fill:#D2E8F8;" points="1119.64,12.899 1100.078,1.605 1100.078,51.031 1119.64,62.326 		"/>
		<polygon style="fill:#3867A1;" points="1150.539,18.686 1130.979,7.392 1130.979,68.873 1150.539,80.167 		"/>
	</g>
	<g>
		
			<rect x="1278.715" y="-81.989" transform="matrix(0.248 0.9687 -0.9687 0.248 889.9991 -1297.7195)" style="fill:#558BC2;" width="4.421" height="12.845"/>
		
			<rect x="1272.368" y="-75.797" transform="matrix(0.2482 0.9687 -0.9687 0.2482 891.0652 -1286.8643)" style="fill:#558BC2;" width="4.423" height="12.845"/>
		
			<rect x="1266.019" y="-69.605" transform="matrix(0.2484 0.9687 -0.9687 0.2484 891.997 -1275.9685)" style="fill:#558BC2;" width="4.423" height="12.845"/>
		
			<rect x="1259.672" y="-63.413" transform="matrix(0.248 0.9688 -0.9688 0.248 893.7413 -1265.3232)" style="fill:#558BC2;" width="4.422" height="12.845"/>
	</g>
	<polygon style="fill:#264C83;" points="1025.992,184.326 986.575,161.568 947.158,184.326 986.575,207.084 	"/>
	<polygon style="fill:#264C83;" points="901.743,188.299 862.326,165.541 822.909,188.299 862.326,211.053 	"/>
	<polygon style="fill:#264C83;" points="818.327,140.512 778.91,117.754 739.492,140.512 778.91,163.27 	"/>
	<g>
		<g>
			<g>
				<polygon style="fill:#B83F21;" points="862.326,188.299 862.326,66.922 901.743,44.164 901.743,165.541 				"/>
				<polygon style="fill:#E35E31;" points="901.743,44.164 862.326,21.407 822.909,44.164 862.326,66.922 				"/>
				<polygon style="fill:#558BC2;" points="862.326,66.922 822.909,44.164 822.909,165.541 862.326,188.299 				"/>
				<polygon style="fill:#3867A1;" points="862.326,188.299 862.326,66.922 901.743,44.164 901.743,165.541 				"/>
				<polygon style="fill:#D2E8F8;" points="901.743,44.164 862.326,21.407 822.909,44.164 862.326,66.922 				"/>
			</g>
			<g>
				<polygon style="fill:#143B75;" points="945.996,237.252 945.996,168.979 985.415,146.221 985.415,214.494 				"/>
				<polygon style="fill:#3867A1;" points="945.996,168.979 906.578,146.221 906.578,214.494 945.996,237.252 				"/>
				<polygon style="fill:#D2E8F8;" points="985.415,146.221 945.996,123.463 906.578,146.221 945.996,168.979 				"/>
			</g>
			<g>
				<polygon style="fill:#D2E8F8;" points="778.91,140.512 778.91,-26.379 818.327,-49.137 818.327,117.754 				"/>
				<polygon style="fill:#3867A1;" points="778.91,-26.379 739.492,-49.137 739.492,117.754 778.91,140.512 				"/>
				<polygon style="fill:#558BC2;" points="818.327,-49.137 778.91,-71.895 739.492,-49.137 778.91,-26.379 				"/>
			</g>
		</g>
	</g>
	<g>
		<g>
			<path style="fill:#558BC2;" d="M755.43,45.21c0,0-6.508-3.284-10.504,1.603c-3.996,4.89-9.711,16.426-9.889,24.223
				c-0.176,7.796,6.171,7.269,9.942,5.424c3.773-1.844,14.794-17.831,15.459-20.963c0.668-3.133-0.785-7.368-1.847-8.195
				C757.532,46.471,755.43,45.21,755.43,45.21z"/>
			<path style="fill:#D2E8F8;" d="M756.851,43.64l0.302,6.745c0.063,1.432-0.658,2.799-1.905,3.506
				c-1.137,0.647-2.789,1.14-5.021,0.781c-4.902-0.787-5.341-2.188-5.69-8.93C744.185,39.002,756.851,43.64,756.851,43.64z"/>
			<g>
				<path style="fill:#558BC2;" d="M731.608,32.244c0,0-6.511-3.281-10.507,1.605s-9.711,16.423-9.889,24.221
					c-0.176,7.795,6.169,7.268,9.942,5.426c3.773-1.848,14.794-17.832,15.459-20.965c0.668-3.134-0.785-7.369-1.847-8.196
					C733.708,33.505,731.608,32.244,731.608,32.244z"/>
				<path style="fill:#D2E8F8;" d="M733.026,30.677l0.302,6.743c0.063,1.434-0.656,2.798-1.905,3.506
					c-1.137,0.646-2.789,1.139-5.021,0.783c-4.902-0.791-5.341-2.189-5.69-8.933C720.36,26.036,733.026,30.677,733.026,30.677z"/>
				<path style="fill:#143B75;" d="M791.102-93.121c-1.926-31.343-33.944,4.611-33.944,4.611L735.246-67.03l-19.734,21.677
					c-3.854,4.233-5.646,9.949-4.901,15.625l7.983,60.782c0.394,3.002,2.962,5.218,5.99,5.194c0.855-0.008,1.835-0.085,2.955-0.261
					c7.123-1.109,6.596-7.88,6.596-7.88l-1.458-56.85l41.44-24.979C774.117-53.722,793.028-61.778,791.102-93.121z"/>
			</g>
			<path style="fill:#143B75;" d="M814.926-81.179c-1.926-31.343-33.944,4.612-33.944,4.612L759.07-55.088l-19.734,21.677
				c-3.854,4.233-5.646,9.949-4.901,15.625l7.983,60.784c0.394,3,2.962,5.215,5.99,5.191c0.854-0.008,1.835-0.085,2.955-0.261
				c7.123-1.108,6.596-7.88,6.596-7.88L756.501-16.8l41.44-24.981C797.941-41.781,816.853-49.836,814.926-81.179z"/>
			<path style="fill:#558BC2;" d="M795.984-181.791c24.273,10.064,23.786,24.413,23.786,24.413s-4.753,52.604-3.131,87.735
				c0.68,14.686-78.028,15.807-66.291-23.375c13.84-46.198,8.653-83.597,15.132-89.238
				C771.958-187.896,789.705-184.393,795.984-181.791z"/>
			
				<ellipse transform="matrix(0.9684 0.2495 -0.2495 0.9684 -17.9258 -202.94)" style="fill:#F7BEAE;" cx="791.67" cy="-172.19" rx="12.519" ry="9.215"/>
			<path style="fill:#FFFFFF;" d="M793.467-161.579c-1.423,0-2.899-0.181-4.388-0.565c-7.301-1.88-12.084-7.917-10.659-13.457
				c1.43-5.54,8.526-8.523,15.839-6.636c3.476,0.895,6.497,2.744,8.508,5.21c2.096,2.57,2.859,5.5,2.149,8.25
				C803.779-164.366,799.04-161.579,793.467-161.579z M789.813-180.491c-4.507,0-8.275,2.098-9.145,5.468
				c-1.106,4.301,2.927,9.07,8.992,10.634c6.059,1.556,11.902-0.666,13.011-4.968c0.518-2.017-0.085-4.22-1.702-6.203
				c-1.701-2.083-4.289-3.658-7.291-4.432C792.365-180.329,791.06-180.491,789.813-180.491z"/>
			<path style="fill:#F7BEAE;" d="M786.253-182.884c0,0,0.208,0.973-0.211,8.665c-0.132,2.418,8.334,4.677,10.523,2.488
				c2.188-2.188,1.313-4.465,1.84-12.695C798.93-192.655,786.253-182.884,786.253-182.884z"/>
			<path style="fill:#E2988E;" d="M798.405-184.426c0,0-2.086,7.631-12.366,10.558l0.157-6.935L798.405-184.426z"/>
			<circle style="fill:#F7BEAE;" cx="786.826" cy="-199.136" r="18.685"/>
			<path style="fill:#E2988E;" d="M791.116-198.451c0,0-10.287,4.406-17.409,4.458c-7.123,0.051-5.555-5.916-5.555-5.916
				l21.145-3.055L791.116-198.451z"/>
			<path style="fill:#E7388E;" d="M771.583-197.29c0,0,8.96-3.804,16.823-2.219c1.848,0.373,3.561,1.362,4.751,2.824
				c0.39,0.479,0.879,0.914,1.437,1.041c1.395,0.314,3.678-5.468,6.387-5.601c2.71-0.132,4.517,1.787,2.295,5.343
				c-2.222,3.558-1.47,7.539-0.447,8.109c1.021,0.57,11.866-7.733,2.301-26.682c-9.564-18.947-33.859-8.741-37.638-4.9
				c0,0-3.982,3.467-7.219,0.382C760.272-218.992,756.645-191.81,771.583-197.29z"/>
			<path style="fill:#F7BEAE;" d="M806.153-118.946v14.215c0,1.629-0.685,3.183-1.889,4.28l-29.198,26.62l3.316,5.074l38.562-27.967
				c1.8-1.304,2.96-3.313,3.194-5.525l2.606-24.789L806.153-118.946z"/>
			<path style="fill:#558BC2;" d="M817.718-164.485c0,0,8.856,13.322,12.157,48.389c0,0-15.132,4.895-23.722,2.116
				C797.566-116.757,817.718-164.485,817.718-164.485z"/>
			<path style="fill:#3867A1;" d="M804.536-147.641c0,0-3.466,18.561-3.663,27.284c-0.054,2.398,1.408,4.563,3.663,5.378l0,0
				V-147.641z"/>
		</g>
		<g>
			<path style="fill:#558BC2;" d="M796.961-55.349l-6.454-0.851l-41.66-24.054c-1.334-0.771-3.668-0.674-5.21,0.217l-29.52,17.038
				l-3.902-0.516v3.885l0.002,0.001c-0.025,0.511,0.268,1.003,0.897,1.366l47.213,27.26c1.336,0.771,3.668,0.673,5.21-0.217
				l32.149-18.554c0.867-0.501,1.301-1.146,1.274-1.753l0,0V-55.349z"/>
			<path style="fill:#3867A1;" d="M765.658-70.545l-2.958-1.71h-32.543l-16.04,9.257l-3.902-0.516v3.885l0.002,0.001
				c-0.025,0.511,0.268,1.003,0.897,1.366l47.213,27.26c0.705,0.407,1.689,0.57,2.688,0.504L765.658-70.545z"/>
			<path style="fill:#558BC2;" d="M711.946-63.286l-1.731-0.229v3.885l0.002,0.001c-0.025,0.511,0.268,1.003,0.897,1.366l0.832,0.48
				V-63.286z"/>
			<path style="fill:#FFFFFF;" d="M758.803-30.782c1.266,0.48,3.075,0.375,4.428-0.275v-6.609h-4.428V-30.782z"/>
			<path style="fill:#FFFFFF;" d="M758.327-34.885l-47.213-27.258c-1.336-0.771-1.169-2.119,0.373-3.01l32.149-18.554
				c1.542-0.891,3.876-0.988,5.21-0.217l47.215,27.259c1.336,0.771,1.167,2.117-0.375,3.008l-32.149,18.556
				C761.995-34.21,759.663-34.114,758.327-34.885z"/>
			<path style="fill:#D2E8F8;" d="M757.527-39.018L718.27-61.682c-1.11-0.642-0.97-1.762,0.313-2.502l17.227-9.688
				c1.284-0.74,3.223-0.82,4.333-0.18l39.258,22.667c1.111,0.641,0.973,1.761-0.312,2.5l-17.227,9.689
				C760.579-38.456,758.639-38.375,757.527-39.018z"/>
		</g>
		<path style="fill:#F7BEAE;" d="M745.462-84.602l-0.489,3.258c-0.415,2.776-0.343,5.603,0.213,8.353l0.581,2.87
			c0.328,1.62,1.61,2.876,3.234,3.171l0,0c1.271,0.232,2.471-0.66,2.613-1.943l0.778-6.963c0,0,1.781,2.334,2.644,2.334
			c0.858,0-0.963-6.975-2.908-10.922C750.18-88.391,745.462-84.602,745.462-84.602z"/>
		<path style="fill:#F7BEAE;" d="M761.465-136.377L756.4-126.35c-1.197,2.371-1.903,4.959-2.074,7.61l-2.198,34.296l-6.666-0.158
			l-3.025-38.515c-0.094-1.189-0.035-2.385,0.173-3.559l3.455-19.531L761.465-136.377z"/>
		<g>
			<path style="fill:#143B75;" d="M756.729-32.268l-3.959-5.168l-41.632-24.103c-1.333-0.772-2.414-2.843-2.411-4.623l0.035-34.084
				l-2.394-3.125l2.248-1.302l0.002,0.002c0.432-0.277,1.003-0.27,1.634,0.094l47.18,27.316c1.336,0.773,2.414,2.843,2.414,4.624
				l-0.04,37.119c-0.002,1.002-0.345,1.698-0.884,1.979l0,0L756.729-32.268z"/>
			<path style="fill:#3867A1;" d="M727.938-51.812l-2.957-1.712l-16.235-28.201l0.017-18.521l-2.394-3.125l2.248-1.302l0.002,0.002
				c0.432-0.277,1.003-0.27,1.634,0.094l47.18,27.316c0.705,0.409,1.338,1.181,1.779,2.079L727.938-51.812z"/>
			<path style="fill:#558BC2;" d="M707.43-101.985l-1.062-1.386l2.248-1.302l0.002,0.002c0.432-0.277,1.003-0.27,1.634,0.094
				l0.832,0.482L707.43-101.985z"/>
			<path style="fill:#264C83;" d="M757.86-76.958c1.048,0.858,1.861,2.479,1.972,3.974l-4.61,2.663l-2.21-3.838L757.86-76.958z"/>
			<path style="fill:#558BC2;" d="M755.187-75.959l-47.183-27.315c-1.333-0.772-2.418,0.044-2.421,1.825l-0.04,37.12
				c-0.002,1.78,1.078,3.851,2.414,4.623l47.18,27.316c1.334,0.772,2.419-0.044,2.422-1.825l0.039-37.12
				C757.601-73.117,756.52-75.186,755.187-75.959z"/>
		</g>
		<path style="fill:#F7BEAE;" d="M778.383-68.757l-0.755,1.567c-0.872,1.803-2.238,3.32-3.944,4.371l-4.686,2.889
			c-1.458,0.899-3.305,0.973-4.786,0.11c-0.052-0.03-0.105-0.063-0.159-0.096c-1.488-0.933-1.624-3.072-0.398-4.332l4.898-5.034
			c0,0-2.752,2.107-3.522,1.258c-0.565-0.622,2.667-3.658,5.151-3.757c2.482-0.101,4.885-2.051,4.885-2.051L778.383-68.757z"/>
		<path style="fill:#558BC2;" d="M765.965-182.329c0,0-17.953,19.534-25.195,37.456c0,0,6.139,11.06,21.167,15.4
			C776.965-125.134,765.965-182.329,765.965-182.329z"/>
		<path style="fill:#3867A1;" d="M758.557-130.632l2.908-28.11l-6.855,26.337C755.831-131.769,757.155-131.176,758.557-130.632z"/>
		<path style="fill:#FFFFFF;" d="M779.411-186.271l-4.823-1.326c0,0,2.304,3.623,5.665,4.546c3.363,0.925,3.886-1.922,3.886-1.922
			L779.411-186.271z"/>
	</g>
	<g>
		<path style="fill:#D2E8F8;" d="M737.078,310.504c-32.449-18.736-85.061-18.736-117.51,0
			c-32.447,18.732-32.447,49.107,0.003,67.842c32.45,18.736,85.061,18.736,117.51,0.002
			C769.53,359.615,769.527,329.24,737.078,310.504z M705.332,360.018c-14.915,8.611-39.098,8.611-54.015,0
			c-14.916-8.611-14.917-22.574-0.001-31.186s39.101-8.611,54.016,0C720.248,337.443,720.248,351.406,705.332,360.018z"/>
		<g>
			<g>
				<path style="fill:#143B75;" d="M607.313,299.404l29.64,0.461c2.194-2.855,5.308-5.531,9.361-7.873
					c16.299-9.408,41.93-10.137,59.686-2.193l17.613-16.566l27.12,0.426c-1.341-0.877-2.717-1.742-4.167-2.582
					c-37.69-21.758-98.795-21.758-136.482,0c-6.931,4.002-12.577,8.465-16.959,13.211L607.313,299.404z"/>
				<polygon style="fill:#558BC2;" points="750.733,230.615 750.733,273.658 723.613,273.232 723.613,230.193 				"/>
				<polygon style="fill:#143B75;" points="706,246.756 706,289.799 723.613,273.232 723.613,230.193 				"/>
				<path style="fill:#143B75;" d="M636.953,256.822v43.043l38.991-31.773L706,289.799v-43.043l-27.675-13.426
					c0,0-38.1,11.664-40.08,12.158C636.265,245.984,636.953,256.822,636.953,256.822z"/>
				<polygon style="fill:#143B75;" points="607.313,256.361 607.313,299.404 636.953,299.865 636.953,256.822 				"/>
				<polygon style="fill:#558BC2;" points="593.125,241.246 593.125,284.287 607.313,299.404 607.313,256.361 				"/>
				<path style="fill:#D2E8F8;" d="M607.313,256.361l29.64,0.461c2.194-2.855,5.308-5.531,9.361-7.871
					c16.299-9.412,41.93-10.137,59.686-2.195l17.613-16.563l27.12,0.422c-1.341-0.877-2.717-1.742-4.167-2.582
					c-37.69-21.758-98.795-21.758-136.482,0c-6.931,4.002-12.577,8.465-16.959,13.213L607.313,256.361z"/>
			</g>
			<g>
				<path style="fill:#558BC2;" d="M714.928,252.051v39.566l25.657-6.145c0,0-1.505-23.154-2.054-23.773
					C737.988,261.08,714.928,252.051,714.928,252.051z"/>
				<g>
					<path style="fill:#143B75;" d="M695.512,291.617v43.043l2.773,2.953l18.086-10.428c0,0-2.805-32.859-3.133-33.518
						C712.907,293.008,695.512,291.617,695.512,291.617z"/>
					<path style="fill:#3867A1;" d="M730.438,280.506l-15.511,14.588c12.921,10.223,11.393,24.635-4.592,33.865
						c-4.378,2.525-9.431,4.426-14.824,5.701l16.031,17.08l-14.205,13.361c18.037-2.084,35.245-7.154,49.229-15.229
						c32.399-18.705,36.918-47.395,13.612-68.902L730.438,280.506z"/>
					<polygon style="fill:#3867A1;" points="697.338,322.059 697.338,365.102 732.513,351.52 774.815,311.158 774.658,265.451 
						729.902,300.928 					"/>
					<path style="fill:#D2E8F8;" d="M730.438,237.463l-15.511,14.588c12.921,10.223,11.393,24.635-4.592,33.865
						c-4.378,2.527-9.431,4.426-14.824,5.701l16.031,17.082l-14.205,13.359c18.037-2.082,35.245-7.154,49.229-15.225
						c32.399-18.707,36.918-47.396,13.612-68.906L730.438,237.463z"/>
				</g>
			</g>
			<g>
				<path style="fill:#3867A1;" d="M697.223,351.518l-14.13-15.055c-13.118,0.797-26.724-1.701-36.778-7.508
					c-10.384-5.994-14.661-14.176-12.845-21.979l-33.65-0.525l-12.94-13.783c-11.317,19.422-3.595,41.732,23.207,57.205
					c19.694,11.371,45.783,16.787,71.582,16.275L697.223,351.518z"/>
				<polygon style="fill:#3867A1;" points="681.668,323.104 681.668,366.148 581.843,310.826 581.843,267.766 596.418,273.658 				
					"/>
				<polygon style="fill:#143B75;" points="697.223,308.475 697.223,351.518 681.668,366.148 681.668,323.104 				"/>
				<path style="fill:none;" d="M697.223,308.475l-14.13-15.055c-13.118,0.799-26.724-1.701-36.778-7.508
					c-10.384-5.994-14.661-14.176-12.845-21.979l-33.65-0.525l-12.94-13.783c-11.317,19.422-3.595,41.73,23.207,57.205
					c19.694,11.371,45.783,16.789,71.582,16.273L697.223,308.475z"/>
			</g>
		</g>
	</g>
	<g>
		<path style="fill:#558BC2;" d="M755.533-274.381l2.566-4.355c0,0,2.143,1.181,4.443,0.459c1.838-0.581,3.43-2.241,4.732-4.936
			c4.584-9.504,13.053-10.223,16.887-9.276l-1.209,4.908l0.604-2.454l-0.586,2.458c-0.736-0.168-7.296-1.413-11.145,6.559
			c-1.952,4.048-4.599,6.603-7.866,7.594C759.593-272.104,755.937-274.145,755.533-274.381z"/>
	</g>
	<path style="fill:#D2E8F8;" d="M675.173-108.583c-12.773,0-23.163-10.39-23.163-23.163s10.39-23.163,23.163-23.163
		s23.163,10.39,23.163,23.163S687.946-108.583,675.173-108.583z M675.173-149.856c-9.986,0-18.11,8.124-18.11,18.11
		s8.124,18.11,18.11,18.11c9.987,0,18.11-8.124,18.11-18.11S685.16-149.856,675.173-149.856z"/>
	<path style="fill:#558BC2;" d="M539.254,211.428c-9.056,0-16.425-7.367-16.425-16.424s7.369-16.426,16.425-16.426
		c9.057,0,16.426,7.369,16.426,16.426S548.311,211.428,539.254,211.428z M539.254,183.631c-6.27,0-11.371,5.104-11.371,11.373
		s5.102,11.371,11.371,11.371s11.372-5.102,11.372-11.371S545.523,183.631,539.254,183.631z"/>
	<path style="fill:#558BC2;" d="M641.252,26.94L630.105,4.263l22.676-11.15l11.148,22.678L641.252,26.94z M636.869,6.568
		l6.689,13.608l13.607-6.691l-6.691-13.608L636.869,6.568z"/>
	
		<rect x="1191.469" y="-219.549" transform="matrix(0.8974 -0.4412 0.4412 0.8974 217.1206 506.2954)" style="fill:#558BC2;" width="11.619" height="11.618"/>
	<g>
		
			<rect x="988.167" y="-356.371" transform="matrix(0.7072 0.7071 -0.7071 0.7072 46.6315 -801.3236)" style="fill:#D2E8F8;" width="5.052" height="24.008"/>
		
			<rect x="978.688" y="-346.893" transform="matrix(0.7071 0.7071 -0.7071 0.7071 46.6496 -801.361)" style="fill:#D2E8F8;" width="24.008" height="5.052"/>
	</g>
	<circle style="fill:#D2E8F8;" cx="1159.477" cy="-335.877" r="11.921"/>
	<circle style="fill:#D2E8F8;" cx="843.578" cy="331.984" r="6.929"/>
	<circle style="fill:#D2E8F8;" cx="1116.832" cy="331.164" r="14.208"/>
	<g>
		<g>
			<path style="fill:#C31683;" d="M620.998,60.866l-50.733-29.293c-1.005-0.578-1.911-0.6-2.623-0.211
				c0-0.002,0.004-0.029,0.004-0.029l-4.921,2.842c0,0,2.179,0.795,3.458,1.265v36.943c0,3.008,1.827,6.5,4.082,7.801l48.492,27.998
				v4.334l4.971-2.861l-0.026-0.01c0.84-0.514,1.379-1.639,1.379-3.256V68.666C625.08,65.659,623.252,62.167,620.998,60.866z"/>
			<path style="fill:#E7388E;" d="M615.986,112.363l-50.732-29.29c-2.255-1.304-4.083-4.793-4.083-7.8V37.551
				c0-3.007,1.828-4.388,4.083-3.087l50.732,29.29c2.255,1.303,4.083,4.795,4.083,7.8v37.726
				C620.069,112.283,618.241,113.666,615.986,112.363z"/>
		</g>
		<g>
			<path style="fill:#FFFFFF;" d="M582.313,70.072c0,2.185-1.531,3.068-3.423,1.977c-1.891-1.09-3.423-3.746-3.423-5.928
				c0-2.185,1.532-3.068,3.423-1.979C580.782,65.234,582.313,67.891,582.313,70.072z"/>
			<path style="fill:#FFFFFF;" d="M592.685,76.061c0,2.182-1.532,3.068-3.424,1.977c-1.891-1.093-3.423-3.746-3.423-5.93
				c0-2.183,1.532-3.068,3.423-1.977C591.152,71.223,592.685,73.877,592.685,76.061z"/>
			<path style="fill:#FFFFFF;" d="M603.055,82.047c0,2.182-1.533,3.068-3.423,1.976c-1.892-1.09-3.423-3.745-3.423-5.927
				c0-2.186,1.531-3.068,3.423-1.977C601.521,77.209,603.055,79.865,603.055,82.047z"/>
		</g>
	</g>
	<g>
		<g>
			<path style="fill:#558BC2;" d="M1107.548-285.703l-50.735-29.291c-1.003-0.579-1.91-0.602-2.622-0.211
				c0.002-0.003,0.005-0.033,0.005-0.033l-4.922,2.843c0,0,2.18,0.795,3.459,1.265v36.946c0,3.007,1.826,6.499,4.08,7.8
				l48.492,27.996v4.336l4.972-2.864l-0.026-0.01c0.84-0.512,1.379-1.636,1.379-3.253v-37.725
				C1111.629-280.909,1109.803-284.401,1107.548-285.703z"/>
			<path style="fill:#D2E8F8;" d="M1102.535-234.205l-50.733-29.292c-2.255-1.301-4.083-4.793-4.083-7.799v-37.724
				c0-3.006,1.828-4.387,4.083-3.085l50.733,29.291c2.254,1.301,4.082,4.793,4.082,7.8v37.723
				C1106.617-234.285,1104.789-232.904,1102.535-234.205z"/>
		</g>
		<g>
			<path style="fill:#FFFFFF;" d="M1068.864-276.496c0,2.182-1.532,3.068-3.424,1.976c-1.892-1.092-3.425-3.745-3.425-5.93
				c0-2.182,1.533-3.066,3.425-1.976C1067.332-281.333,1068.864-278.68,1068.864-276.496z"/>
			<path style="fill:#FFFFFF;" d="M1079.233-270.508c0,2.183-1.533,3.066-3.422,1.976c-1.892-1.091-3.425-3.747-3.425-5.929
				c0-2.183,1.533-3.068,3.425-1.977C1077.7-275.347,1079.233-272.692,1079.233-270.508z"/>
			<path style="fill:#FFFFFF;" d="M1089.604-264.521c0,2.182-1.533,3.068-3.425,1.976c-1.889-1.092-3.422-3.746-3.422-5.93
				c0-2.182,1.533-3.067,3.422-1.976C1088.071-269.359,1089.604-266.705,1089.604-264.521z"/>
		</g>
	</g>
	<g>
		<polyline style="fill:#D2E8F8;" points="1132.849,365.822 1103.064,348.627 1132.849,331.432 1162.633,348.627 		"/>
		<polygon style="fill:#D2E8F8;" points="1166.289,311.635 1196.074,294.439 1225.858,311.635 1196.074,328.832 		"/>
		<polygon style="fill:#D2E8F8;" points="1229.32,275.527 1259.106,258.332 1288.891,275.527 1259.106,292.725 		"/>
		<g>
			<g>
				<g>
					<polygon style="fill:#B83F21;" points="1196.074,311.635 1196.074,219.922 1166.289,202.727 1166.289,294.439 					"/>
					<polygon style="fill:#C31683;" points="1196.074,219.922 1225.858,202.727 1225.858,294.439 1196.074,311.635 					"/>
					<polygon style="fill:#E7388E;" points="1196.074,311.635 1196.074,219.922 1166.289,202.727 1166.289,294.439 					"/>
				</g>
				<g>
					<polygon style="fill:#E7388E;" points="1132.849,348.627 1132.849,297.039 1103.064,279.842 1103.064,331.432 					"/>
					<polygon style="fill:#C31683;" points="1132.849,297.039 1162.633,279.842 1162.633,331.432 1132.849,348.627 					"/>
					<polygon style="fill:#E7388E;" points="1103.064,279.842 1132.849,262.645 1162.633,279.842 1132.849,297.039 					"/>
				</g>
				<g>
					<polygon style="fill:#E7388E;" points="1259.106,275.527 1259.106,149.422 1229.32,132.225 1229.32,258.332 					"/>
					<polygon style="fill:#C31683;" points="1259.106,149.422 1288.891,132.225 1288.891,258.332 1259.106,275.527 					"/>
					<polygon style="fill:#E7388E;" points="1229.32,132.225 1259.106,115.029 1288.891,132.225 1259.106,149.422 					"/>
				</g>
			</g>
			<polygon style="fill:#E7388E;" points="1166.289,202.727 1196.074,185.529 1225.858,202.727 1196.074,219.922 			"/>
		</g>
	</g>
</g>
<linearGradient id="SVGID_2_" gradientUnits="userSpaceOnUse" x1="177.7051" y1="-230.4033" x2="879.5742" y2="-230.4033" gradientTransform="matrix(1 0 0 -1 0.002 81.7598)">
	<stop  offset="2.100000e-007" style="stop-color:#62C4DE"/>
	<stop  offset="1" style="stop-color:#544A9C"/>
</linearGradient>
<path style="opacity:0.7;fill:url(#SVGID_2_);" d="M424.669,311.518l-6.204,1.291C420.387,312.523,422.465,312.086,424.669,311.518z
	"/>
<g>
	<text transform="matrix(1 0 0 1 -379.2065 -59.2134)" style="fill:#143B75; font-family:'Helvetica-Bold'; font-size:66.7645;">Front-End Developer</text>
	<text transform="matrix(1 0 0 1 -379.207 10.875)"><tspan x="0" y="0" style="fill:#558BC2; font-family:'AdobeMyungjoStd-Medium-KSCpc-EUC-H'; font-size:20.5321;">Hello.</tspan><tspan x="0" y="32.531" style="fill:#558BC2; font-family:'AdobeMyungjoStd-Medium-KSCpc-EUC-H'; font-size:20.5321;">&#xD504;&#xB860;&#xD2B8;&#xC5D4;&#xB4DC; &#xAC1C;&#xBC1C;&#xC790; &#xACFD;&#xC0C1;&#xADFC;&#xC785;&#xB2C8;&#xB2E4;.</tspan></text>
</g>
<path style="fill:#E7388E;" d="M-134.364,165.134c0,6.628-5.373,12-12,12h-221.988c-6.627,0-12-5.372-12-12v-28.33
	c0-6.628,5.373-12,12-12h221.988c6.627,0,12,5.372,12,12V165.134z"/>
<g>
	<path style="fill:#FFFFFF;" d="M-290.598,140.845h2.673v17.386h9.997v2.353h-12.67V140.845z"/>
	<path style="fill:#FFFFFF;" d="M-266.656,146.588c0.958,0.479,1.688,1.1,2.19,1.862c0.483,0.726,0.806,1.571,0.967,2.539
		c0.143,0.662,0.215,1.72,0.215,3.171h-10.547c0.045,1.461,0.39,2.632,1.035,3.514c0.645,0.881,1.644,1.323,2.996,1.323
		c1.263,0,2.271-0.417,3.023-1.25c0.431-0.484,0.735-1.044,0.914-1.68h2.378c-0.063,0.529-0.271,1.118-0.625,1.768
		c-0.354,0.649-0.75,1.18-1.189,1.592c-0.735,0.717-1.644,1.201-2.728,1.451c-0.583,0.144-1.241,0.215-1.975,0.215
		c-1.792,0-3.31-0.652-4.555-1.955c-1.245-1.303-1.868-3.128-1.868-5.476c0-2.311,0.626-4.188,1.881-5.628
		c1.254-1.443,2.893-2.164,4.917-2.164C-268.604,145.87-267.614,146.11-266.656,146.588z M-265.769,152.239
		c-0.099-1.049-0.327-1.886-0.685-2.513c-0.663-1.164-1.769-1.748-3.318-1.748c-1.111,0-2.042,0.402-2.795,1.204
		c-0.752,0.801-1.151,1.819-1.196,3.057H-265.769z"/>
	<path style="fill:#FFFFFF;" d="M-252.601,151.862c0.555-0.071,0.927-0.304,1.115-0.699c0.107-0.215,0.161-0.524,0.161-0.926
		c0-0.824-0.293-1.424-0.88-1.795c-0.587-0.371-1.426-0.558-2.52-0.558c-1.263,0-2.158,0.342-2.687,1.022
		c-0.296,0.375-0.488,0.936-0.578,1.679h-2.257c0.044-1.773,0.62-3.008,1.726-3.701c1.106-0.694,2.389-1.042,3.85-1.042
		c1.693,0,3.068,0.322,4.125,0.968c1.048,0.646,1.572,1.647,1.572,3.01v8.289c0,0.252,0.051,0.453,0.155,0.604
		c0.103,0.153,0.32,0.229,0.651,0.229c0.107,0,0.228-0.007,0.363-0.02c0.134-0.015,0.277-0.034,0.43-0.061v1.787
		c-0.376,0.106-0.664,0.174-0.86,0.201c-0.197,0.026-0.466,0.04-0.806,0.04c-0.833,0-1.438-0.297-1.813-0.887
		c-0.197-0.313-0.336-0.757-0.417-1.33c-0.493,0.646-1.201,1.205-2.124,1.679c-0.922,0.476-1.939,0.713-3.049,0.713
		c-1.335,0-2.426-0.406-3.272-1.217c-0.847-0.811-1.27-1.824-1.27-3.042c0-1.336,0.417-2.369,1.25-3.104
		c0.833-0.734,1.926-1.187,3.278-1.357L-252.601,151.862z M-257.693,158.406c0.511,0.401,1.115,0.604,1.813,0.604
		c0.851,0,1.675-0.197,2.472-0.592c1.344-0.654,2.016-1.725,2.016-3.212v-1.947c-0.295,0.188-0.677,0.345-1.142,0.47
		c-0.466,0.127-0.923,0.215-1.371,0.269l-1.464,0.188c-0.878,0.117-1.536,0.301-1.975,0.551c-0.744,0.421-1.115,1.093-1.115,2.016
		C-258.459,157.451-258.204,158.003-257.693,158.406z"/>
	<path style="fill:#FFFFFF;" d="M-244.943,146.191h2.297v2.486c0.188-0.483,0.649-1.073,1.384-1.767
		c0.734-0.694,1.581-1.041,2.54-1.041c0.044,0,0.121,0.004,0.229,0.014c0.107,0.009,0.291,0.026,0.551,0.054v2.553
		c-0.144-0.027-0.276-0.045-0.396-0.055c-0.121-0.008-0.253-0.013-0.396-0.013c-1.219,0-2.155,0.391-2.809,1.176
		c-0.654,0.783-0.98,1.686-0.98,2.707v8.277h-2.418V146.191z"/>
	<path style="fill:#FFFFFF;" d="M-235.847,146.191h2.298v2.043c0.68-0.842,1.401-1.446,2.163-1.813
		c0.761-0.367,1.607-0.551,2.54-0.551c2.042,0,3.421,0.713,4.138,2.136c0.394,0.78,0.591,1.896,0.591,3.346v9.231h-2.458v-9.069
		c0-0.879-0.13-1.586-0.39-2.123c-0.43-0.896-1.209-1.345-2.338-1.345c-0.573,0-1.044,0.06-1.411,0.175
		c-0.663,0.198-1.245,0.592-1.747,1.183c-0.403,0.475-0.665,0.966-0.786,1.472c-0.121,0.507-0.182,1.229-0.182,2.17v7.538h-2.418
		V146.191z"/>
</g>
<polygon style="fill:#E7388E;" points="-326.922,312.081 -246.127,205.642 -113.553,222.395 -61.771,345.583 -142.566,452.022 
	-275.142,435.271 "/>
<polygon style="fill:#E7388E;" points="0,106.439 80.795,0 213.369,16.753 265.151,139.941 184.356,246.381 51.78,229.629 "/>
</svg>
