<?xml version="1.0" encoding="iso-8859-1"?>
<!-- Generator: Adobe Illustrator 16.0.0, SVG Export Plug-In . SVG Version: 6.00 Build 0)  -->
<!DOCTYPE svg PUBLIC "-//W3C//DTD SVG 1.1//EN" "http://www.w3.org/Graphics/SVG/1.1/DTD/svg11.dtd">
<svg version="1.1" id="&#xB808;&#xC774;&#xC5B4;_1" xmlns="http://www.w3.org/2000/svg" xmlns:xlink="http://www.w3.org/1999/xlink"
	 x="0px" y="0px" width="1920px" height="960px" viewBox="0 0 1920 960" style="enable-background:new 0 0 1920 960;"
	 xml:space="preserve">
<linearGradient id="SVGID_1_" gradientUnits="userSpaceOnUse" x1="1089.6504" y1="739.332" x2="1813.2781" y2="-93.1064">
	<stop  offset="2.100000e-007" style="stop-color:#62C4DE"/>
	<stop  offset="1" style="stop-color:#544A9C"/>
</linearGradient>
<path style="opacity:0.8;fill:url(#SVGID_1_);" d="M1920.385,0H709.78c219.897,87.782,166.693,191.277,253.845,252.922
	c98.016,69.328,163.327-26.958,272.938,46.913c98.086,66.098-89.026,288.389,309.183,393.944
	c159.807,42.355,148.06,150.393,65.578,266.221h309.061V0z"/>
<g>
	<g>
		<g>
			<path style="fill:#D2E8F8;" d="M1296.962,812.632L996.333,639.065c-8.505-4.91-7.438-13.488,2.382-19.156l204.706-118.147
				c9.82-5.67,24.675-6.287,33.178-1.377l300.628,173.569c8.506,4.91,7.438,13.486-2.381,19.156l-204.705,118.145
				C1320.32,816.925,1305.465,817.542,1296.962,812.632z"/>
			<g>
				<path style="fill:#143B75;" d="M1548.348,332.528l-305.587-176.283c-3.936-2.271-7.552-2.62-10.463-1.406l0.012-0.036
					l-0.501,0.232c-0.04,0.02-0.082,0.036-0.122,0.057l-9.949,4.681l10.802,5.376c-0.004,0.202-0.023,0.392-0.023,0.598
					l0.094,250.992c0.005,12.56,7.779,27.225,17.365,32.754l297.438,171.584l1.689,13.998l10.861-5.182
					c3.579-2.1,5.843-6.85,5.841-13.619l-0.094-250.992C1565.706,352.722,1557.934,338.057,1548.348,332.528z"/>
				<path style="fill:#3867A1;" d="M1548.348,332.528l-305.587-176.283c-3.936-2.271-7.552-2.62-10.463-1.406l0.012-0.036
					l-0.501,0.232c-0.04,0.02-0.082,0.036-0.122,0.057l-9.949,4.681l10.802,5.376c-0.004,0.202-0.023,0.392-0.023,0.598
					l0.062,165.418l139.075,109.883l188.829-95.03C1557.351,340.202,1553.07,335.254,1548.348,332.528z"/>
				<path style="fill:#264C83;" d="M1553.453,336.478l-29.949,12.598l22.613,17.421l18.881-8.039
					C1563.357,350.205,1559,341.911,1553.453,336.478z"/>
				<path style="fill:#D2E8F8;" d="M1538.398,633.747l-305.587-176.285c-9.586-5.529-17.36-20.194-17.365-32.754l-0.094-250.992
					c-0.005-12.56,7.763-18.261,17.349-12.732l305.588,176.284c9.583,5.529,17.357,20.194,17.362,32.754l0.094,250.991
					C1555.75,633.573,1547.982,639.274,1538.398,633.747z"/>
				<path style="fill:#FFFFFF;" d="M1528.231,615.077l-285.403-164.562c-8.77-5.059-15.883-18.478-15.888-29.972l-0.087-229.68
					c-0.002-11.495,7.104-16.711,15.874-11.65l285.403,164.561c8.772,5.06,15.886,18.478,15.891,29.973l0.084,229.676
					C1544.11,614.919,1537.004,620.134,1528.231,615.077z"/>
				<path style="fill:#FFFFFF;" d="M1528.231,615.077l-285.403-164.562c-8.77-5.059-15.883-18.478-15.888-29.972l-0.087-229.68
					c-0.002-11.495,7.104-16.711,15.874-11.65l285.403,164.561c8.772,5.06,15.886,18.478,15.891,29.973l0.084,229.676
					C1544.11,614.919,1537.004,620.134,1528.231,615.077z"/>
			</g>
			<path style="fill:#143B75;" d="M1542.962,641.542l-41.095-5.428l-265.269-153.152c-8.503-4.91-23.357-4.293-33.178,1.376
				l-187.969,108.483l-24.849-3.281v14.1l0.024,0.002c-0.163,3.26,1.692,6.395,5.705,8.709l300.629,173.568
				c8.503,4.91,23.358,4.295,33.179-1.375l204.705-118.148c5.524-3.188,8.278-7.299,8.116-11.156l0,0V641.542z"/>
			<path style="fill:#3867A1;" d="M1343.647,544.767l-18.847-10.882H1117.6l-102.147,58.937l-24.849-3.281v14.1l0.024,0.002
				c-0.163,3.26,1.692,6.395,5.705,8.709l300.629,173.568c4.493,2.596,10.761,3.631,17.121,3.209L1343.647,544.767z"/>
			<path style="fill:#558BC2;" d="M1001.631,590.997l-11.027-1.457v14.1l0.024,0.002c-0.163,3.26,1.692,6.395,5.705,8.709
				l5.298,3.059V590.997z"/>
			<path style="fill:#264C83;" d="M1299.988,787.325c8.06,3.057,19.586,2.391,28.192-1.75v-31.449h-28.192V787.325z"/>
			<path style="fill:#D2E8F8;" d="M1296.962,771.837L996.333,598.271c-8.505-4.91-7.438-13.488,2.382-19.156l204.706-118.148
				c9.82-5.669,24.675-6.286,33.178-1.375l300.628,173.569c8.506,4.91,7.438,13.486-2.381,19.154L1330.141,770.46
				C1320.32,776.13,1305.465,776.747,1296.962,771.837z"/>
			<path style="fill:#FFFFFF;" d="M1534.846,647.165l-204.705,118.146c-9.82,5.67-24.676,6.285-33.179,1.375L996.333,593.12
				c-2.788-1.609-4.527-3.615-5.286-5.783c-1.332,4.021,0.365,8.09,5.286,10.934l300.629,173.566
				c8.503,4.91,23.358,4.295,33.179-1.375l204.705-118.148c6.6-3.811,9.225-8.932,7.669-13.373
				C1541.547,641.87,1538.982,644.776,1534.846,647.165z"/>
			<g>
				<path style="fill:#143B75;" d="M1124.195,540.808l-13.604-7.854c-1.092-0.631-0.956-1.732,0.305-2.459l16.057-9.27
					c1.262-0.729,3.169-0.809,4.262-0.178l13.601,7.854c1.092,0.631,0.956,1.732-0.305,2.461l-16.055,9.27
					C1127.195,541.358,1125.287,541.438,1124.195,540.808z"/>
				<path style="fill:#143B75;" d="M1145.199,552.937l-13.603-7.854c-1.09-0.631-0.954-1.732,0.307-2.461l16.058-9.27
					c1.258-0.729,3.166-0.807,4.258-0.176l13.604,7.852c1.092,0.633,0.954,1.734-0.307,2.461l-16.055,9.27
					C1148.199,553.487,1146.292,553.567,1145.199,552.937z"/>
				<path style="fill:#143B75;" d="M1166.207,565.063l-13.604-7.854c-1.092-0.631-0.954-1.732,0.307-2.459l16.055-9.27
					c1.262-0.729,3.169-0.809,4.262-0.178l13.603,7.854c1.09,0.631,0.954,1.732-0.307,2.461l-16.055,9.27
					C1169.207,565.614,1167.299,565.694,1166.207,565.063z"/>
				<path style="fill:#143B75;" d="M1195.258,555.049l-13.602-7.854c-1.092-0.63-0.956-1.731,0.305-2.458l13.479-7.781
					c1.261-0.729,3.169-0.809,4.261-0.179l13.601,7.854c1.093,0.63,0.956,1.731-0.305,2.458l-13.479,7.781
					C1198.258,555.6,1196.35,555.679,1195.258,555.049z"/>
				<path style="fill:#143B75;" d="M1216.265,567.175l-13.604-7.852c-1.092-0.633-0.954-1.734,0.308-2.461l13.477-7.781
					c1.261-0.729,3.168-0.806,4.261-0.178l13.603,7.854c1.093,0.631,0.954,1.732-0.307,2.461l-13.477,7.781
					C1219.265,567.728,1217.356,567.806,1216.265,567.175z"/>
				<path style="fill:#143B75;" d="M1237.27,579.304l-13.602-7.854c-1.092-0.631-0.956-1.732,0.305-2.461l13.479-7.781
					c1.261-0.727,3.169-0.807,4.261-0.176l13.601,7.854c1.093,0.631,0.956,1.732-0.305,2.461l-13.479,7.781
					C1240.27,579.854,1238.361,579.935,1237.27,579.304z"/>
				<path style="fill:#143B75;" d="M1258.276,591.431l-13.604-7.854c-1.092-0.629-0.954-1.73,0.308-2.459l13.477-7.781
					c1.261-0.729,3.168-0.809,4.261-0.176l13.603,7.852c1.093,0.631,0.954,1.732-0.307,2.461l-13.477,7.781
					C1261.276,591.981,1259.368,592.062,1258.276,591.431z"/>
				<path style="fill:#143B75;" d="M1279.281,603.56l-13.602-7.854c-1.092-0.631-0.956-1.732,0.305-2.459l13.479-7.781
					c1.261-0.729,3.169-0.809,4.261-0.178l13.601,7.854c1.093,0.631,0.956,1.732-0.305,2.459l-13.479,7.781
					C1282.281,604.11,1280.373,604.19,1279.281,603.56z"/>
				<path style="fill:#143B75;" d="M1300.288,615.687l-13.604-7.852c-1.092-0.633-0.954-1.734,0.308-2.461l13.477-7.781
					c1.261-0.729,3.168-0.807,4.261-0.178l13.603,7.854c1.093,0.631,0.954,1.732-0.307,2.461l-13.477,7.781
					C1303.288,616.239,1301.38,616.319,1300.288,615.687z"/>
				<path style="fill:#143B75;" d="M1321.293,627.815l-13.602-7.854c-1.092-0.631-0.956-1.732,0.305-2.461l13.479-7.781
					c1.261-0.727,3.169-0.807,4.261-0.176l13.601,7.854c1.093,0.631,0.956,1.732-0.305,2.461l-13.479,7.781
					C1324.293,628.366,1322.385,628.446,1321.293,627.815z"/>
				<path style="fill:#143B75;" d="M1342.3,639.942l-13.604-7.855c-1.092-0.627-0.954-1.729,0.308-2.457l13.477-7.781
					c1.261-0.73,3.168-0.809,4.261-0.176l13.603,7.852c1.093,0.633,0.954,1.73-0.307,2.461l-13.477,7.781
					C1345.3,640.493,1343.392,640.571,1342.3,639.942z"/>
				<path style="fill:#143B75;" d="M1363.305,652.071l-13.602-7.855c-1.092-0.629-0.956-1.73,0.305-2.457l13.479-7.781
					c1.261-0.73,3.169-0.809,4.261-0.18l13.601,7.855c1.093,0.629,0.956,1.73-0.305,2.457l-13.479,7.781
					C1366.305,652.622,1364.396,652.7,1363.305,652.071z"/>
				<path style="fill:#143B75;" d="M1384.312,664.196l-13.604-7.852c-1.092-0.633-0.954-1.73,0.308-2.461l13.477-7.781
					c1.261-0.729,3.168-0.805,4.261-0.178l13.603,7.854c1.093,0.631,0.954,1.732-0.307,2.461l-13.477,7.781
					C1387.312,664.751,1385.403,664.827,1384.312,664.196z"/>
				<path style="fill:#3867A1;" d="M1226.209,549.307l-13.604-7.854c-1.092-0.63-0.953-1.731,0.308-2.458l13.477-7.781
					c1.261-0.729,3.171-0.806,4.261-0.179l13.604,7.854c1.092,0.63,0.953,1.731-0.308,2.458l-13.477,7.781
					C1229.209,549.857,1227.301,549.937,1226.209,549.307z"/>
				<path style="fill:#3867A1;" d="M1204.891,536.997l-13.604-7.852c-1.092-0.633-0.954-1.734,0.307-2.461l13.477-7.781
					c1.262-0.729,3.169-0.807,4.262-0.178l13.603,7.854c1.093,0.631,0.954,1.732-0.307,2.461l-13.477,7.781
					C1207.891,537.55,1205.982,537.628,1204.891,536.997z"/>
				<path style="fill:#143B75;" d="M1183.536,524.669l-29.297-16.914c-1.092-0.631-0.954-1.732,0.308-2.459l13.477-7.782
					c1.261-0.729,3.168-0.809,4.261-0.178l29.297,16.915c1.092,0.631,0.954,1.732-0.308,2.459l-13.479,7.781
					C1186.534,525.22,1184.626,525.3,1183.536,524.669z"/>
				<path style="fill:#143B75;" d="M1198.461,509.677l-23.772-13.728c-1.092-0.631-0.956-1.73,0.305-2.459l13.479-7.781
					c1.261-0.729,3.166-0.809,4.258-0.178l23.775,13.727c1.092,0.631,0.956,1.732-0.305,2.461l-13.479,7.779
					C1201.461,510.228,1199.554,510.307,1198.461,509.677z"/>
				<path style="fill:#3867A1;" d="M1247.214,561.433l-13.601-7.852c-1.093-0.63-0.957-1.731,0.307-2.461l13.477-7.781
					c1.261-0.727,3.169-0.806,4.261-0.176l13.604,7.854c1.09,0.628,0.954,1.729-0.308,2.458l-13.477,7.781
					C1250.214,561.986,1248.306,562.065,1247.214,561.433z"/>
				<path style="fill:#143B75;" d="M1268.221,573.562l-13.601-7.854c-1.095-0.631-0.956-1.732,0.305-2.461l13.477-7.779
					c1.261-0.729,3.169-0.809,4.261-0.178l13.604,7.854c1.092,0.631,0.956,1.732-0.305,2.461l-13.479,7.781
					C1271.221,574.112,1269.313,574.192,1268.221,573.562z"/>
				<path style="fill:#143B75;" d="M1289.228,585.69l-13.603-7.854c-1.093-0.631-0.957-1.732,0.305-2.461l13.479-7.781
					c1.261-0.729,3.169-0.807,4.261-0.176l13.604,7.852c1.09,0.633,0.954,1.734-0.308,2.461l-13.477,7.781
					C1292.226,586.241,1290.32,586.319,1289.228,585.69z"/>
				<path style="fill:#143B75;" d="M1310.232,597.817l-13.604-7.854c-1.092-0.631-0.953-1.732,0.308-2.459l13.477-7.781
					c1.261-0.729,3.169-0.809,4.261-0.178l13.604,7.854c1.092,0.631,0.953,1.732-0.305,2.461l-13.479,7.779
					C1313.232,598.368,1311.324,598.448,1310.232,597.817z"/>
				<path style="fill:#143B75;" d="M1331.237,609.944l-13.601-7.852c-1.093-0.631-0.957-1.732,0.307-2.461l13.477-7.781
					c1.261-0.727,3.169-0.807,4.261-0.176l13.604,7.854c1.09,0.629,0.954,1.73-0.308,2.459l-13.477,7.781
					C1334.237,610.497,1332.332,610.577,1331.237,609.944z"/>
				<path style="fill:#143B75;" d="M1352.244,622.073l-13.601-7.854c-1.093-0.631-0.956-1.732,0.305-2.459l13.477-7.781
					c1.261-0.729,3.169-0.809,4.261-0.178l13.604,7.854c1.092,0.631,0.956,1.732-0.305,2.461l-13.479,7.781
					C1355.244,622.624,1353.336,622.704,1352.244,622.073z"/>
				<path style="fill:#143B75;" d="M1373.251,634.202l-13.603-7.854c-1.093-0.631-0.957-1.732,0.305-2.461l13.479-7.779
					c1.261-0.732,3.169-0.809,4.261-0.178l13.601,7.852c1.093,0.633,0.957,1.734-0.305,2.461l-13.477,7.781
					C1376.251,634.753,1374.344,634.829,1373.251,634.202z"/>
				<path style="fill:#143B75;" d="M1394.256,646.329l-13.604-7.855c-1.092-0.629-0.953-1.73,0.308-2.457l13.479-7.781
					c1.261-0.73,3.167-0.809,4.261-0.18l13.602,7.855c1.092,0.629,0.953,1.73-0.308,2.461l-13.477,7.781
					C1397.256,646.88,1395.348,646.958,1394.256,646.329z"/>
				<path style="fill:#143B75;" d="M1415.263,658.454l-13.603-7.852c-1.093-0.629-0.957-1.73,0.307-2.461l13.477-7.781
					c1.261-0.727,3.169-0.805,4.261-0.176l13.604,7.855c1.092,0.627,0.954,1.729-0.308,2.457l-13.477,7.781
					C1418.261,659.009,1416.355,659.087,1415.263,658.454z"/>
				<path style="fill:#143B75;" d="M1452.605,680.017l-29.679-17.135c-1.092-0.631-0.954-1.732,0.308-2.461l13.477-7.781
					c1.261-0.729,3.168-0.807,4.261-0.176l29.679,17.135c1.092,0.631,0.954,1.732-0.307,2.459l-13.477,7.781
					C1455.605,680.567,1453.698,680.647,1452.605,680.017z"/>
				<path style="fill:#143B75;" d="M1493.502,656.407l-25.05-14.465c-1.093-0.629-0.956-1.73,0.305-2.461l13.479-7.781
					c1.261-0.729,3.169-0.805,4.261-0.176l25.051,14.461c1.092,0.633,0.953,1.734-0.308,2.461l-13.477,7.781
					C1496.502,656.958,1494.594,657.036,1493.502,656.407z"/>
				<path style="fill:#143B75;" d="M1284.001,559.062l-13.603-7.854c-1.093-0.631-0.954-1.732,0.307-2.459l13.477-7.781
					c1.261-0.729,3.169-0.809,4.261-0.178l13.604,7.854c1.092,0.631,0.954,1.732-0.308,2.461l-13.477,7.779
					C1287.001,559.614,1285.094,559.692,1284.001,559.062z"/>
				<path style="fill:#143B75;" d="M1262.472,546.632l-13.601-7.854c-1.093-0.631-0.957-1.732,0.305-2.461l13.479-7.781
					c1.261-0.727,3.169-0.807,4.261-0.176l13.601,7.854c1.093,0.631,0.957,1.732-0.305,2.461l-13.479,7.781
					C1265.472,547.183,1263.563,547.263,1262.472,546.632z"/>
				<path style="fill:#3867A1;" d="M1240.944,534.204l-13.604-7.854c-1.092-0.63-0.954-1.731,0.308-2.461l13.477-7.778
					c1.261-0.732,3.168-0.809,4.261-0.179l13.603,7.852c1.093,0.633,0.954,1.734-0.307,2.461l-13.477,7.781
					C1243.944,534.755,1242.036,534.831,1240.944,534.204z"/>
				<path style="fill:#143B75;" d="M1219.414,521.772l-13.601-7.852c-1.092-0.633-0.956-1.732,0.305-2.461l13.479-7.782
					c1.261-0.729,3.168-0.806,4.261-0.176l13.601,7.853c1.092,0.631,0.956,1.732-0.305,2.461l-13.479,7.781
					C1222.414,522.325,1220.509,522.405,1219.414,521.772z"/>
				<path style="fill:#143B75;" d="M1305.006,571.188l-13.601-7.852c-1.093-0.631-0.956-1.732,0.305-2.461l13.479-7.781
					c1.261-0.727,3.169-0.807,4.261-0.176l13.602,7.854c1.092,0.628,0.956,1.729-0.305,2.459l-13.479,7.781
					C1308.006,571.741,1306.098,571.821,1305.006,571.188z"/>
				<path style="fill:#143B75;" d="M1326.013,583.317l-13.603-7.855c-1.093-0.629-0.954-1.73,0.307-2.457l13.477-7.781
					c1.261-0.73,3.169-0.809,4.261-0.18l13.604,7.855c1.092,0.629,0.954,1.73-0.308,2.461l-13.477,7.781
					C1329.013,583.868,1327.105,583.946,1326.013,583.317z"/>
				<path style="fill:#143B75;" d="M1347.018,595.446l-13.601-7.855c-1.093-0.629-0.956-1.73,0.305-2.461l13.479-7.781
					c1.261-0.729,3.169-0.805,4.261-0.176l13.602,7.852c1.092,0.633,0.956,1.734-0.305,2.461l-13.479,7.781
					C1350.018,595.997,1348.109,596.073,1347.018,595.446z"/>
				<path style="fill:#143B75;" d="M1368.024,607.571l-13.603-7.852c-1.093-0.633-0.954-1.734,0.307-2.461l13.477-7.781
					c1.261-0.729,3.169-0.809,4.261-0.178l13.604,7.854c1.092,0.631,0.954,1.732-0.308,2.461l-13.477,7.781
					C1371.024,608.122,1369.117,608.202,1368.024,607.571z"/>
				<path style="fill:#143B75;" d="M1389.029,619.698l-13.601-7.852c-1.093-0.631-0.956-1.732,0.305-2.461l13.479-7.781
					c1.261-0.727,3.169-0.807,4.261-0.176l13.602,7.854c1.092,0.629,0.956,1.73-0.305,2.459l-13.479,7.781
					C1392.029,620.251,1390.121,620.331,1389.029,619.698z"/>
				<path style="fill:#143B75;" d="M1410.036,631.827l-13.603-7.854c-1.093-0.631-0.954-1.73,0.307-2.459l13.477-7.781
					c1.261-0.729,3.169-0.809,4.261-0.178l13.604,7.854c1.092,0.631,0.954,1.732-0.308,2.461l-13.477,7.781
					C1413.036,632.378,1411.129,632.458,1410.036,631.827z"/>
				<path style="fill:#143B75;" d="M1431.041,643.956l-13.601-7.854c-1.093-0.631-0.956-1.732,0.305-2.461l13.479-7.781
					c1.261-0.729,3.169-0.807,4.261-0.176l13.602,7.854c1.092,0.631,0.956,1.732-0.305,2.459l-13.479,7.781
					C1434.041,644.507,1432.133,644.585,1431.041,643.956z"/>
				<path style="fill:#143B75;" d="M1452.048,656.083l-13.603-7.854c-1.093-0.631-0.954-1.732,0.307-2.459l13.477-7.781
					c1.261-0.729,3.169-0.809,4.261-0.178l13.604,7.854c1.092,0.631,0.954,1.732-0.308,2.461l-13.477,7.781
					C1455.048,656.636,1453.141,656.714,1452.048,656.083z"/>
				<path style="fill:#143B75;" d="M1473.053,668.21l-13.601-7.852c-1.093-0.631-0.956-1.732,0.305-2.461l13.479-7.781
					c1.261-0.727,3.169-0.807,4.261-0.176l13.602,7.854c1.092,0.629,0.956,1.73-0.305,2.459l-13.479,7.781
					C1476.053,668.763,1474.145,668.843,1473.053,668.21z"/>
				<path style="fill:#143B75;" d="M1272.938,529.063l-13.601-7.854c-1.092-0.629-0.956-1.73,0.305-2.459l13.479-7.781
					c1.262-0.729,3.169-0.809,4.262-0.176l13.601,7.852c1.092,0.631,0.956,1.732-0.305,2.461l-13.479,7.781
					C1275.938,529.614,1274.031,529.694,1272.938,529.063z"/>
				<path style="fill:#143B75;" d="M1252.037,516.995l-13.601-7.852c-1.093-0.63-0.956-1.731,0.307-2.461l13.477-7.78
					c1.261-0.727,3.169-0.807,4.261-0.176l13.604,7.854c1.09,0.628,0.954,1.729-0.307,2.458l-13.477,7.781
					C1255.037,517.549,1253.132,517.628,1252.037,516.995z"/>
				<path style="fill:#143B75;" d="M1231.138,504.931l-13.603-7.854c-1.093-0.631-0.954-1.732,0.307-2.459l13.477-7.783
					c1.261-0.727,3.169-0.807,4.261-0.176l13.604,7.854c1.092,0.631,0.954,1.732-0.308,2.459l-13.477,7.781
					C1234.136,505.481,1232.23,505.561,1231.138,504.931z"/>
				<path style="fill:#143B75;" d="M1210.236,492.861l-13.604-7.854c-1.092-0.631-0.953-1.732,0.308-2.459l13.477-7.782
					c1.261-0.728,3.169-0.808,4.261-0.177l13.604,7.853c1.092,0.631,0.953,1.732-0.308,2.461l-13.477,7.781
					C1213.236,493.412,1211.328,493.492,1210.236,492.861z"/>
				<path style="fill:#143B75;" d="M1231.729,480.453l-13.604-7.853c-1.092-0.63-0.953-1.732,0.308-2.461l4.455-2.572
					c1.261-0.728,3.169-0.807,4.261-0.177l13.602,7.854c1.092,0.63,0.956,1.732-0.305,2.459l-4.456,2.572
					C1234.729,481.005,1232.82,481.084,1231.729,480.453z"/>
				<path style="fill:#143B75;" d="M1259.005,496.201l-13.603-7.854c-1.093-0.631-0.954-1.732,0.307-2.461l4.455-2.57
					c1.262-0.729,3.169-0.809,4.262-0.179l13.601,7.854c1.092,0.63,0.956,1.731-0.305,2.461l-4.456,2.57
					C1262.005,496.752,1260.098,496.83,1259.005,496.201z"/>
				<path style="fill:#143B75;" d="M1279.82,508.218l-13.604-7.854c-1.092-0.63-0.954-1.731,0.307-2.461l4.456-2.571
					c1.261-0.729,3.169-0.809,4.261-0.176l13.601,7.852c1.093,0.631,0.956,1.732-0.305,2.462l-4.455,2.572
					C1282.82,508.769,1280.912,508.849,1279.82,508.218z"/>
				<path style="fill:#143B75;" d="M1300.633,520.235l-13.602-7.852c-1.092-0.633-0.956-1.734,0.305-2.461l4.456-2.574
					c1.261-0.727,3.169-0.807,4.261-0.176l13.604,7.854c1.092,0.631,0.956,1.732-0.308,2.459l-4.455,2.574
					C1303.633,520.788,1301.725,520.865,1300.633,520.235z"/>
				<path style="fill:#143B75;" d="M1321.447,532.253l-13.601-7.854c-1.093-0.631-0.956-1.732,0.305-2.461l4.455-2.57
					c1.261-0.729,3.169-0.809,4.261-0.179l13.604,7.854c1.092,0.63,0.954,1.731-0.307,2.458l-4.456,2.573
					C1324.447,532.804,1322.539,532.882,1321.447,532.253z"/>
				<path style="fill:#143B75;" d="M1437.65,599.341l-13.601-7.852c-1.093-0.631-0.956-1.732,0.305-2.461l4.455-2.574
					c1.261-0.727,3.169-0.805,4.261-0.176l13.604,7.855c1.092,0.629,0.954,1.73-0.307,2.461l-4.456,2.57
					C1440.65,599.894,1438.742,599.974,1437.65,599.341z"/>
				<path style="fill:#143B75;" d="M1458.465,611.36l-13.603-7.855c-1.093-0.629-0.954-1.73,0.307-2.457l4.456-2.574
					c1.261-0.729,3.168-0.807,4.261-0.178l13.601,7.854c1.092,0.631,0.956,1.732-0.305,2.461l-4.455,2.57
					C1461.465,611.911,1459.558,611.989,1458.465,611.36z"/>
				<path style="fill:#143B75;" d="M1479.28,623.376l-13.604-7.854c-1.092-0.631-0.954-1.732,0.308-2.459l4.453-2.574
					c1.263-0.729,3.168-0.805,4.263-0.176l13.601,7.855c1.093,0.629,0.957,1.73-0.305,2.457l-4.455,2.574
					C1482.28,623.927,1480.372,624.007,1479.28,623.376z"/>
				<path style="fill:#143B75;" d="M1500.093,635.392l-13.601-7.852c-1.093-0.629-0.957-1.73,0.305-2.461l4.455-2.572
					c1.261-0.727,3.169-0.807,4.261-0.176l13.604,7.854c1.092,0.631,0.956,1.732-0.308,2.461l-4.455,2.57
					C1503.093,635.946,1501.185,636.024,1500.093,635.392z"/>
				<path style="fill:#143B75;" d="M1293.945,541.192l-13.603-7.854c-1.093-0.631-0.954-1.732,0.307-2.461l13.477-7.781
					c1.261-0.727,3.169-0.807,4.261-0.176l13.604,7.854c1.092,0.631,0.954,1.732-0.307,2.459l-13.477,7.781
					C1296.945,541.743,1295.038,541.823,1293.945,541.192z"/>
				<path style="fill:#143B75;" d="M1314.953,553.319l-13.604-7.852c-1.092-0.633-0.956-1.732,0.305-2.461l13.479-7.781
					c1.262-0.729,3.169-0.807,4.262-0.178l13.601,7.854c1.092,0.631,0.956,1.732-0.305,2.461l-13.477,7.781
					C1317.95,553.872,1316.045,553.95,1314.953,553.319z"/>
				<path style="fill:#143B75;" d="M1335.957,565.448l-13.603-7.854c-1.093-0.631-0.954-1.732,0.307-2.461l13.477-7.781
					c1.261-0.727,3.169-0.807,4.261-0.176l13.604,7.854c1.092,0.631,0.954,1.732-0.307,2.459l-13.477,7.781
					C1338.957,565.999,1337.05,566.079,1335.957,565.448z"/>
				<path style="fill:#143B75;" d="M1356.962,577.575l-13.601-7.855c-1.092-0.627-0.956-1.729,0.307-2.457l13.477-7.781
					c1.262-0.729,3.169-0.809,4.262-0.176l13.603,7.852c1.09,0.629,0.954,1.73-0.307,2.461l-13.479,7.781
					C1359.962,578.126,1358.055,578.204,1356.962,577.575z"/>
				<path style="fill:#143B75;" d="M1377.969,589.704l-13.601-7.855c-1.095-0.629-0.956-1.73,0.305-2.461l13.477-7.777
					c1.261-0.73,3.169-0.809,4.261-0.18l13.604,7.855c1.092,0.629,0.956,1.73-0.305,2.457l-13.479,7.781
					C1380.969,590.255,1379.062,590.333,1377.969,589.704z"/>
				<path style="fill:#143B75;" d="M1398.977,601.829l-13.604-7.852c-1.092-0.633-0.956-1.734,0.305-2.461l13.479-7.781
					c1.262-0.727,3.169-0.805,4.262-0.178l13.601,7.857c1.092,0.627,0.956,1.729-0.305,2.457l-13.477,7.781
					C1401.974,602.384,1400.068,602.46,1398.977,601.829z"/>
				<path style="fill:#143B75;" d="M1419.98,613.958l-13.603-7.854c-1.093-0.631-0.954-1.732,0.307-2.461l13.479-7.781
					c1.261-0.727,3.166-0.807,4.258-0.176l13.604,7.854c1.092,0.631,0.954,1.732-0.307,2.459l-13.477,7.781
					C1422.98,614.509,1421.073,614.589,1419.98,613.958z"/>
				<path style="fill:#143B75;" d="M1440.985,626.085l-13.601-7.854c-1.092-0.629-0.954-1.73,0.307-2.459l13.477-7.781
					c1.262-0.729,3.169-0.809,4.262-0.176l13.603,7.852c1.093,0.631,0.954,1.732-0.307,2.461l-13.479,7.781
					C1443.985,626.638,1442.08,626.716,1440.985,626.085z"/>
				<path style="fill:#143B75;" d="M1461.992,638.214l-13.601-7.854c-1.092-0.631-0.956-1.732,0.305-2.459l13.477-7.781
					c1.261-0.729,3.169-0.809,4.261-0.178l13.604,7.854c1.092,0.631,0.956,1.732-0.305,2.459l-13.479,7.781
					C1464.992,638.765,1463.085,638.845,1461.992,638.214z"/>
				<path style="fill:#143B75;" d="M1173.852,542.688l-40.059-23.129c-1.093-0.631-0.957-1.729,0.305-2.459l13.479-7.781
					c1.261-0.729,3.169-0.809,4.261-0.176l40.06,23.129c1.092,0.628,0.954,1.729-0.307,2.459l-13.477,7.781
					C1176.852,543.241,1174.944,543.321,1173.852,542.688z"/>
				<path style="fill:#143B75;" d="M1431.915,691.683l-40.062-23.131c-1.092-0.629-0.954-1.73,0.307-2.459l13.477-7.781
					c1.262-0.729,3.169-0.809,4.262-0.176l40.059,23.129c1.093,0.631,0.957,1.729-0.305,2.459l-13.479,7.781
					C1434.913,692.233,1433.005,692.313,1431.915,691.683z"/>
				<path style="fill:#143B75;" d="M1347.908,669.97l-13.601-7.854c-1.093-0.631-0.956-1.732,0.305-2.461l16.055-9.268
					c1.261-0.729,3.169-0.809,4.261-0.178l13.604,7.854c1.092,0.631,0.953,1.732-0.308,2.459l-16.055,9.271
					C1350.908,670.521,1349,670.601,1347.908,669.97z"/>
				<path style="fill:#143B75;" d="M1195.363,581.899l-21.753-12.561c-1.092-0.631-0.956-1.732,0.305-2.461l16.055-9.27
					c1.261-0.727,3.169-0.807,4.261-0.176l21.755,12.561c1.093,0.629,0.956,1.729-0.305,2.457l-16.057,9.27
					C1198.363,582.45,1196.455,582.528,1195.363,581.899z"/>
				<path style="fill:#143B75;" d="M1327.67,658.284l-21.755-12.561c-1.092-0.629-0.956-1.73,0.308-2.459l16.055-9.27
					c1.261-0.729,3.168-0.807,4.261-0.178l21.752,12.561c1.093,0.631,0.956,1.732-0.305,2.461l-16.055,9.27
					C1330.67,658.837,1328.762,658.915,1327.67,658.284z"/>
				<path style="fill:#143B75;" d="M1225.67,599.396l-21.755-12.559c-1.09-0.631-0.954-1.732,0.308-2.461l16.055-9.27
					c1.263-0.729,3.168-0.807,4.261-0.178l21.755,12.561c1.092,0.629,0.953,1.73-0.308,2.461l-16.055,9.27
					C1228.67,599.946,1226.762,600.024,1225.67,599.396z"/>
				<path style="fill:#143B75;" d="M1224.686,575.015l94.58,54.605c1.172,0.678,1.174,1.775,0,2.453l-16.374,9.453
					c-1.172,0.678-3.075,0.678-4.249,0l-94.577-54.605L1224.686,575.015z"/>
				<path style="fill:#143B75;" d="M1406.617,691.958l15.149,8.75c0.896,0.516,0.785,1.418-0.248,2.016l-6.569,3.793
					c-1.034,0.594-2.598,0.66-3.492,0.143l-15.152-8.748c-0.894-0.518-0.783-1.42,0.253-2.018l6.567-3.789
					C1404.158,691.507,1405.722,691.44,1406.617,691.958z"/>
				<path style="fill:#143B75;" d="M1385.437,679.731l15.152,8.746c0.896,0.516,0.782,1.422-0.251,2.016l-6.569,3.793
					c-1.034,0.598-2.597,0.66-3.492,0.145l-15.15-8.746c-0.896-0.518-0.782-1.42,0.251-2.018l6.567-3.793
					C1382.978,679.278,1384.541,679.214,1385.437,679.731z"/>
				<path style="fill:#143B75;" d="M1364.432,667.603l15.15,8.746c0.895,0.52,0.782,1.422-0.251,2.02l-6.567,3.791
					c-1.033,0.596-2.597,0.662-3.492,0.143l-15.152-8.746c-0.896-0.518-0.783-1.42,0.251-2.016l6.567-3.793
					C1361.973,667.149,1363.536,667.085,1364.432,667.603z"/>
				<path style="fill:#143B75;" d="M1397.035,673.032l15.152,8.748c0.896,0.518,0.783,1.42-0.25,2.018l-6.567,3.789
					c-1.034,0.598-2.597,0.664-3.492,0.146l-15.152-8.748c-0.896-0.516-0.783-1.42,0.251-2.016l6.566-3.791
					C1394.577,672.581,1396.141,672.517,1397.035,673.032z"/>
			</g>
		</g>
	</g>
	<g>
		<path style="opacity:0.4;fill:#D2E8F8;" d="M1366.07,388.76l-99.725-57.577c-2.451-1.413-4.437-5.209-4.437-8.475v-78.464
			c0-3.267,1.985-4.767,4.437-3.354l99.725,57.577c2.449,1.415,4.434,5.209,4.434,8.476v78.463
			C1370.504,388.673,1368.52,390.174,1366.07,388.76z"/>
		<g>
			<path style="fill:#B0CFE4;" d="M1296.503,335.77l-0.703-0.406c-2.6-1.501-4.706-5.526-4.706-8.993v-37.393
				c0-3.465,2.106-5.058,4.706-3.558l0.703,0.405c2.599,1.501,4.706,5.528,4.706,8.993v37.392
				C1301.209,335.677,1299.102,337.27,1296.503,335.77z"/>
			<path style="fill:#B0CFE4;" d="M1316.559,347.35l-0.703-0.405c-2.6-1.502-4.707-5.528-4.707-8.993v-21.886
				c0-3.466,2.107-5.058,4.707-3.558l0.703,0.405c2.599,1.5,4.706,5.526,4.706,8.993v21.885
				C1321.265,347.256,1319.157,348.85,1316.559,347.35z"/>
			<path style="fill:#3867A1;" d="M1336.613,358.928l-0.7-0.405c-2.6-1.5-4.706-5.526-4.706-8.993v-52.091
				c0-3.466,2.106-5.059,4.706-3.559l0.7,0.406c2.602,1.501,4.709,5.527,4.709,8.993v52.092
				C1341.322,358.837,1339.215,360.431,1336.613,358.928z"/>
		</g>
	</g>
	<g>
		<path style="fill:#B0CFE4;" d="M1461.148,367.661l-61.957-35.77c-2.297-1.327-4.16-4.886-4.16-7.948l0,0
			c0-3.063,1.863-4.472,4.16-3.146l61.957,35.771c2.297,1.327,4.16,4.885,4.16,7.949l0,0
			C1465.309,367.579,1463.445,368.988,1461.148,367.661z"/>
		<path style="fill:#B0CFE4;" d="M1421.293,366.44l-22.102-12.76c-2.297-1.327-4.16-4.886-4.16-7.949l0,0
			c0-3.063,1.863-4.47,4.16-3.145l22.102,12.761c2.297,1.327,4.16,4.884,4.16,7.948l0,0
			C1425.453,366.358,1423.59,367.767,1421.293,366.44z"/>
		<path style="fill:#3867A1;" d="M1458.383,387.855l-22.102-12.762c-2.297-1.327-4.16-4.884-4.16-7.948l0,0
			c0-3.063,1.863-4.471,4.16-3.144l22.102,12.761c2.297,1.326,4.16,4.884,4.16,7.947l0,0
			C1462.543,387.773,1460.68,389.18,1458.383,387.855z"/>
		<path style="fill:#B0CFE4;" d="M1504.991,414.848l-31.617-18.34c-2.3-1.327-4.16-4.885-4.16-7.948l0,0
			c0-3.063,1.86-4.472,4.16-3.146l31.617,18.34c2.297,1.327,4.16,4.884,4.16,7.948l0,0
			C1509.151,414.766,1507.288,416.173,1504.991,414.848z"/>
		<path style="fill:#B0CFE4;" d="M1476.604,420.164l-77.412-44.695c-2.297-1.325-4.16-4.884-4.16-7.948l0,0
			c0-3.063,1.863-4.471,4.16-3.144l77.412,44.694c2.297,1.326,4.16,4.884,4.16,7.947l0,0
			C1480.764,420.082,1478.9,421.49,1476.604,420.164z"/>
		<path style="fill:#3867A1;" d="M1509.151,460.494l-109.96-63.235c-2.297-1.327-4.16-4.885-4.16-7.948l0,0
			c0-3.063,1.863-4.472,4.16-3.146l109.96,63.237c2.297,1.325,4.16,4.884,4.16,7.948l0,0
			C1513.312,460.413,1511.448,461.82,1509.151,460.494z"/>
		<path style="fill:#B0CFE4;" d="M1518.451,400.647l-40.197-23.11c-2.297-1.327-4.16-4.886-4.16-7.949l0,0
			c0-3.062,1.863-4.47,4.16-3.143l40.197,23.11c2.297,1.326,4.16,4.886,4.16,7.948l0,0
			C1522.611,400.566,1520.748,401.974,1518.451,400.647z"/>
	</g>
	<g>
		<polygon style="fill:#3867A1;" points="1281.212,402.318 1261.651,391.026 1261.651,413.612 1281.212,424.905 		"/>
		<polygon style="fill:#D2E8F8;" points="1312.112,401.5 1292.551,390.208 1292.551,431.451 1312.112,442.746 		"/>
		<polygon style="fill:#D2E8F8;" points="1343.012,431.125 1323.451,419.832 1323.451,449.292 1343.012,460.585 		"/>
		<polygon style="fill:#D2E8F8;" points="1373.912,440.455 1354.352,429.161 1354.352,467.132 1373.912,478.426 		"/>
		<polygon style="fill:#3867A1;" points="1404.813,460.586 1385.251,449.293 1385.251,484.973 1404.813,496.266 		"/>
		<polygon style="fill:#143B75;" points="1435.712,469.446 1416.151,458.151 1416.151,502.811 1435.712,514.106 		"/>
		<polygon style="fill:#D2E8F8;" points="1466.612,482.52 1447.051,471.226 1447.051,520.651 1466.612,531.946 		"/>
		<polygon style="fill:#3867A1;" points="1497.512,488.306 1477.951,477.012 1477.951,538.493 1497.512,549.787 		"/>
	</g>
	<g>
		
			<rect x="1625.688" y="387.631" transform="matrix(0.248 0.9687 -0.9687 0.248 1605.8528 -1280.7137)" style="fill:#558BC2;" width="4.421" height="12.845"/>
		
			<rect x="1619.34" y="393.823" transform="matrix(0.2482 0.9687 -0.9687 0.2482 1606.8593 -1269.9071)" style="fill:#558BC2;" width="4.423" height="12.845"/>
		
			<rect x="1612.992" y="400.015" transform="matrix(0.2484 0.9687 -0.9687 0.2484 1607.6818 -1259.1005)" style="fill:#558BC2;" width="4.423" height="12.845"/>
		
			<rect x="1606.644" y="406.207" transform="matrix(0.248 0.9688 -0.9688 0.248 1609.6199 -1248.2974)" style="fill:#558BC2;" width="4.422" height="12.845"/>
	</g>
	<polygon style="fill:#264C83;" points="1372.965,653.946 1333.548,631.188 1294.131,653.946 1333.548,676.704 	"/>
	<polygon style="fill:#264C83;" points="1248.716,657.919 1209.299,635.161 1169.882,657.919 1209.299,680.673 	"/>
	<polygon style="fill:#264C83;" points="1165.3,610.132 1125.883,587.374 1086.465,610.132 1125.883,632.89 	"/>
	<g>
		<g>
			<g>
				<polygon style="fill:#B83F21;" points="1209.299,657.919 1209.299,536.542 1248.716,513.784 1248.716,635.161 				"/>
				<polygon style="fill:#E35E31;" points="1248.716,513.784 1209.299,491.027 1169.882,513.784 1209.299,536.542 				"/>
				<polygon style="fill:#558BC2;" points="1209.299,536.542 1169.882,513.784 1169.882,635.161 1209.299,657.919 				"/>
				<polygon style="fill:#3867A1;" points="1209.299,657.919 1209.299,536.542 1248.716,513.784 1248.716,635.161 				"/>
				<polygon style="fill:#D2E8F8;" points="1248.716,513.784 1209.299,491.027 1169.882,513.784 1209.299,536.542 				"/>
			</g>
			<g>
				<polygon style="fill:#143B75;" points="1292.969,706.872 1292.969,638.599 1332.388,615.841 1332.388,684.114 				"/>
				<polygon style="fill:#3867A1;" points="1292.969,638.599 1253.551,615.841 1253.551,684.114 1292.969,706.872 				"/>
				<polygon style="fill:#D2E8F8;" points="1332.388,615.841 1292.969,593.083 1253.551,615.841 1292.969,638.599 				"/>
			</g>
			<g>
				<polygon style="fill:#D2E8F8;" points="1125.883,610.132 1125.883,443.241 1165.3,420.483 1165.3,587.374 				"/>
				<polygon style="fill:#3867A1;" points="1125.883,443.241 1086.465,420.483 1086.465,587.374 1125.883,610.132 				"/>
				<polygon style="fill:#558BC2;" points="1165.3,420.483 1125.883,397.726 1086.465,420.483 1125.883,443.241 				"/>
			</g>
		</g>
	</g>
	<g>
		<g>
			<path style="fill:#558BC2;" d="M1102.402,514.83c0,0-6.508-3.284-10.504,1.603c-3.996,4.89-9.711,16.426-9.889,24.223
				c-0.176,7.796,6.171,7.269,9.942,5.424c3.773-1.844,14.794-17.831,15.459-20.963c0.668-3.133-0.785-7.368-1.847-8.195
				C1104.505,516.091,1102.402,514.83,1102.402,514.83z"/>
			<path style="fill:#D2E8F8;" d="M1103.823,513.26l0.302,6.745c0.063,1.432-0.658,2.799-1.905,3.506
				c-1.137,0.647-2.789,1.14-5.021,0.781c-4.902-0.787-5.341-2.188-5.69-8.93C1091.157,508.622,1103.823,513.26,1103.823,513.26z"/>
			<g>
				<path style="fill:#558BC2;" d="M1078.581,501.864c0,0-6.511-3.281-10.507,1.605s-9.711,16.423-9.889,24.221
					c-0.176,7.795,6.169,7.268,9.942,5.426c3.773-1.848,14.794-17.832,15.459-20.965c0.668-3.134-0.785-7.369-1.847-8.196
					C1080.681,503.125,1078.581,501.864,1078.581,501.864z"/>
				<path style="fill:#D2E8F8;" d="M1079.999,500.297l0.302,6.743c0.063,1.434-0.656,2.798-1.905,3.506
					c-1.137,0.646-2.789,1.139-5.021,0.783c-4.902-0.791-5.341-2.189-5.69-8.933
					C1067.333,495.656,1079.999,500.297,1079.999,500.297z"/>
				<path style="fill:#143B75;" d="M1138.074,376.5c-1.926-31.343-33.944,4.611-33.944,4.611l-21.911,21.479l-19.734,21.677
					c-3.854,4.233-5.646,9.949-4.901,15.625l7.983,60.782c0.394,3.002,2.962,5.218,5.99,5.194c0.855-0.008,1.835-0.085,2.955-0.261
					c7.123-1.109,6.596-7.88,6.596-7.88l-1.458-56.85l41.44-24.979C1121.09,415.898,1140.001,407.842,1138.074,376.5z"/>
			</g>
			<path style="fill:#143B75;" d="M1161.898,388.441c-1.926-31.343-33.944,4.612-33.944,4.612l-21.911,21.479l-19.734,21.677
				c-3.854,4.233-5.646,9.949-4.901,15.625l7.983,60.784c0.394,3,2.962,5.215,5.99,5.191c0.854-0.008,1.835-0.085,2.955-0.261
				c7.123-1.108,6.596-7.88,6.596-7.88l-1.458-56.849l41.44-24.981C1144.914,427.839,1163.825,419.784,1161.898,388.441z"/>
			<path style="fill:#558BC2;" d="M1142.957,287.83c24.273,10.064,23.786,24.413,23.786,24.413s-4.753,52.604-3.131,87.735
				c0.68,14.686-78.028,15.807-66.291-23.375c13.84-46.198,8.653-83.597,15.132-89.238
				C1118.931,281.724,1136.678,285.227,1142.957,287.83z"/>
			
				<ellipse transform="matrix(0.9684 0.2495 -0.2495 0.9684 110.1992 -274.6505)" style="fill:#F7BEAE;" cx="1138.643" cy="297.43" rx="12.519" ry="9.215"/>
			<path style="fill:#FFFFFF;" d="M1140.439,308.041c-1.423,0-2.899-0.181-4.388-0.565c-7.301-1.88-12.084-7.917-10.659-13.457
				c1.43-5.54,8.526-8.523,15.839-6.636c3.476,0.895,6.497,2.744,8.508,5.21c2.096,2.57,2.859,5.5,2.149,8.25
				C1150.752,305.254,1146.013,308.041,1140.439,308.041z M1136.785,289.129c-4.507,0-8.275,2.098-9.145,5.468
				c-1.106,4.301,2.927,9.07,8.992,10.634c6.059,1.556,11.902-0.666,13.011-4.968c0.518-2.017-0.085-4.22-1.702-6.203
				c-1.701-2.083-4.289-3.658-7.291-4.432C1139.338,289.291,1138.032,289.129,1136.785,289.129z"/>
			<path style="fill:#F7BEAE;" d="M1133.226,286.736c0,0,0.208,0.973-0.211,8.665c-0.132,2.418,8.334,4.677,10.523,2.488
				c2.188-2.188,1.313-4.465,1.84-12.695C1145.902,276.965,1133.226,286.736,1133.226,286.736z"/>
			<path style="fill:#E2988E;" d="M1145.378,285.194c0,0-2.086,7.631-12.366,10.558l0.157-6.935L1145.378,285.194z"/>
			<circle style="fill:#F7BEAE;" cx="1133.798" cy="270.484" r="18.685"/>
			<path style="fill:#E2988E;" d="M1138.089,271.169c0,0-10.287,4.406-17.409,4.458c-7.123,0.051-5.555-5.916-5.555-5.916
				l21.145-3.055L1138.089,271.169z"/>
			<path style="fill:#E7388E;" d="M1118.556,272.331c0,0,8.96-3.804,16.823-2.219c1.848,0.373,3.561,1.362,4.751,2.824
				c0.39,0.479,0.879,0.914,1.437,1.041c1.395,0.314,3.678-5.468,6.387-5.601c2.71-0.132,4.517,1.787,2.295,5.343
				c-2.222,3.558-1.47,7.539-0.447,8.109c1.021,0.57,11.866-7.733,2.301-26.682c-9.564-18.947-33.859-8.741-37.638-4.9
				c0,0-3.982,3.467-7.219,0.382C1107.245,250.628,1103.617,277.81,1118.556,272.331z"/>
			<path style="fill:#F7BEAE;" d="M1153.126,350.674v14.215c0,1.629-0.685,3.183-1.889,4.28l-29.198,26.62l3.316,5.074
				l38.562-27.967c1.8-1.304,2.96-3.313,3.194-5.525l2.606-24.789L1153.126,350.674z"/>
			<path style="fill:#558BC2;" d="M1164.69,305.135c0,0,8.856,13.322,12.157,48.389c0,0-15.132,4.895-23.722,2.116
				C1144.539,352.863,1164.69,305.135,1164.69,305.135z"/>
			<path style="fill:#3867A1;" d="M1151.509,321.979c0,0-3.466,18.561-3.663,27.284c-0.054,2.398,1.408,4.563,3.663,5.378l0,0
				V321.979z"/>
		</g>
		<g>
			<path style="fill:#558BC2;" d="M1143.934,414.271l-6.454-0.851l-41.66-24.054c-1.334-0.771-3.668-0.674-5.21,0.217l-29.52,17.038
				l-3.902-0.516v3.885l0.002,0.001c-0.025,0.511,0.268,1.003,0.897,1.366l47.213,27.26c1.336,0.771,3.668,0.673,5.21-0.217
				l32.149-18.554c0.867-0.501,1.301-1.146,1.274-1.753l0,0V414.271z"/>
			<path style="fill:#3867A1;" d="M1112.631,399.075l-2.958-1.71h-32.543l-16.04,9.257l-3.902-0.516v3.885l0.002,0.001
				c-0.025,0.511,0.268,1.003,0.897,1.366l47.213,27.26c0.705,0.407,1.689,0.57,2.688,0.504L1112.631,399.075z"/>
			<path style="fill:#558BC2;" d="M1058.919,406.334l-1.731-0.229v3.885l0.002,0.001c-0.025,0.511,0.268,1.003,0.897,1.366
				l0.832,0.48V406.334z"/>
			<path style="fill:#FFFFFF;" d="M1105.775,438.838c1.266,0.48,3.075,0.375,4.428-0.275v-6.609h-4.428V438.838z"/>
			<path style="fill:#FFFFFF;" d="M1105.3,434.735l-47.213-27.258c-1.336-0.771-1.169-2.119,0.373-3.01l32.149-18.554
				c1.542-0.891,3.876-0.988,5.21-0.217l47.215,27.259c1.336,0.771,1.167,2.117-0.375,3.008l-32.149,18.556
				C1108.968,435.41,1106.636,435.506,1105.3,434.735z"/>
			<path style="fill:#D2E8F8;" d="M1104.5,430.603l-39.258-22.664c-1.11-0.642-0.97-1.762,0.313-2.502l17.227-9.688
				c1.284-0.74,3.223-0.82,4.333-0.18l39.258,22.667c1.111,0.641,0.973,1.761-0.312,2.5l-17.227,9.689
				C1107.552,431.164,1105.611,431.245,1104.5,430.603z"/>
		</g>
		<path style="fill:#F7BEAE;" d="M1092.435,385.018l-0.489,3.258c-0.415,2.776-0.343,5.603,0.213,8.353l0.581,2.87
			c0.328,1.62,1.61,2.876,3.234,3.171l0,0c1.271,0.232,2.471-0.66,2.613-1.943l0.778-6.963c0,0,1.781,2.334,2.644,2.334
			c0.858,0-0.963-6.975-2.908-10.922C1097.152,381.229,1092.435,385.018,1092.435,385.018z"/>
		<path style="fill:#F7BEAE;" d="M1108.438,333.243l-5.064,10.027c-1.197,2.371-1.903,4.959-2.074,7.61l-2.198,34.296l-6.666-0.158
			l-3.025-38.515c-0.094-1.189-0.035-2.385,0.173-3.559l3.455-19.531L1108.438,333.243z"/>
		<g>
			<path style="fill:#143B75;" d="M1103.701,437.353l-3.959-5.168l-41.632-24.103c-1.333-0.772-2.414-2.843-2.411-4.623
				l0.035-34.084l-2.394-3.125l2.248-1.302l0.002,0.002c0.432-0.277,1.003-0.27,1.634,0.094l47.18,27.316
				c1.336,0.773,2.414,2.843,2.414,4.624l-0.04,37.119c-0.002,1.002-0.345,1.698-0.884,1.979l0,0L1103.701,437.353z"/>
			<path style="fill:#3867A1;" d="M1074.91,417.808l-2.957-1.712l-16.235-28.201l0.017-18.521l-2.394-3.125l2.248-1.302l0.002,0.002
				c0.432-0.277,1.003-0.27,1.634,0.094l47.18,27.316c0.705,0.409,1.338,1.181,1.779,2.079L1074.91,417.808z"/>
			<path style="fill:#558BC2;" d="M1054.402,367.635l-1.062-1.386l2.248-1.302l0.002,0.002c0.432-0.277,1.003-0.27,1.634,0.094
				l0.832,0.482L1054.402,367.635z"/>
			<path style="fill:#264C83;" d="M1104.833,392.662c1.048,0.858,1.861,2.479,1.972,3.974l-4.61,2.663l-2.21-3.838L1104.833,392.662
				z"/>
			<path style="fill:#558BC2;" d="M1102.159,393.661l-47.183-27.315c-1.333-0.772-2.418,0.044-2.421,1.825l-0.04,37.12
				c-0.002,1.78,1.078,3.851,2.414,4.623l47.18,27.316c1.334,0.772,2.419-0.044,2.422-1.825l0.039-37.12
				C1104.573,396.503,1103.492,394.434,1102.159,393.661z"/>
		</g>
		<path style="fill:#F7BEAE;" d="M1125.355,400.863l-0.755,1.567c-0.872,1.803-2.238,3.32-3.944,4.371l-4.686,2.889
			c-1.458,0.899-3.305,0.973-4.786,0.11c-0.052-0.03-0.105-0.063-0.159-0.096c-1.488-0.933-1.624-3.072-0.398-4.332l4.898-5.034
			c0,0-2.752,2.107-3.522,1.258c-0.565-0.622,2.667-3.658,5.151-3.757c2.482-0.101,4.885-2.051,4.885-2.051L1125.355,400.863z"/>
		<path style="fill:#558BC2;" d="M1112.938,287.292c0,0-17.953,19.534-25.195,37.456c0,0,6.139,11.06,21.167,15.4
			C1123.938,344.486,1112.938,287.292,1112.938,287.292z"/>
		<path style="fill:#3867A1;" d="M1105.529,338.988l2.908-28.11l-6.855,26.337C1102.804,337.851,1104.128,338.444,1105.529,338.988z
			"/>
		<path style="fill:#FFFFFF;" d="M1126.384,283.35l-4.823-1.326c0,0,2.304,3.623,5.665,4.546c3.363,0.925,3.886-1.922,3.886-1.922
			L1126.384,283.35z"/>
	</g>
	<g>
		<path style="fill:#D2E8F8;" d="M1084.051,780.124c-32.449-18.736-85.061-18.736-117.51,0
			c-32.447,18.732-32.447,49.107,0.003,67.842c32.45,18.736,85.061,18.736,117.51,0.002
			C1116.503,829.235,1116.5,798.86,1084.051,780.124z M1052.305,829.638c-14.915,8.611-39.098,8.611-54.015,0
			c-14.916-8.611-14.917-22.574-0.001-31.186s39.101-8.611,54.016,0C1067.221,807.063,1067.221,821.026,1052.305,829.638z"/>
		<g>
			<g>
				<path style="fill:#143B75;" d="M954.286,769.024l29.64,0.461c2.194-2.855,5.308-5.531,9.361-7.873
					c16.299-9.408,41.93-10.137,59.686-2.193l17.613-16.566l27.12,0.426c-1.341-0.877-2.717-1.742-4.167-2.582
					c-37.69-21.758-98.795-21.758-136.482,0c-6.931,4.002-12.577,8.465-16.959,13.211L954.286,769.024z"/>
				<polygon style="fill:#558BC2;" points="1097.706,700.235 1097.706,743.278 1070.586,742.853 1070.586,699.813 				"/>
				<polygon style="fill:#143B75;" points="1052.973,716.376 1052.973,759.419 1070.586,742.853 1070.586,699.813 				"/>
				<path style="fill:#143B75;" d="M983.926,726.442v43.043l38.991-31.773l30.056,21.707v-43.043l-27.675-13.426
					c0,0-38.1,11.664-40.08,12.158C983.237,715.604,983.926,726.442,983.926,726.442z"/>
				<polygon style="fill:#143B75;" points="954.286,725.981 954.286,769.024 983.926,769.485 983.926,726.442 				"/>
				<polygon style="fill:#558BC2;" points="940.098,710.866 940.098,753.907 954.286,769.024 954.286,725.981 				"/>
				<path style="fill:#D2E8F8;" d="M954.286,725.981l29.64,0.461c2.194-2.855,5.308-5.531,9.361-7.871
					c16.299-9.412,41.93-10.137,59.686-2.195l17.613-16.563l27.12,0.422c-1.341-0.877-2.717-1.742-4.167-2.582
					c-37.69-21.758-98.795-21.758-136.482,0c-6.931,4.002-12.577,8.465-16.959,13.213L954.286,725.981z"/>
			</g>
			<g>
				<path style="fill:#558BC2;" d="M1061.9,721.671v39.566l25.657-6.145c0,0-1.505-23.154-2.054-23.773
					C1084.961,730.7,1061.9,721.671,1061.9,721.671z"/>
				<g>
					<path style="fill:#143B75;" d="M1042.484,761.237v43.043l2.773,2.953l18.086-10.428c0,0-2.805-32.859-3.133-33.518
						C1059.88,762.628,1042.484,761.237,1042.484,761.237z"/>
					<path style="fill:#3867A1;" d="M1077.411,750.126l-15.511,14.588c12.921,10.223,11.393,24.635-4.592,33.865
						c-4.378,2.525-9.431,4.426-14.824,5.701l16.031,17.08l-14.205,13.361c18.037-2.084,35.245-7.154,49.229-15.229
						c32.399-18.705,36.918-47.395,13.612-68.902L1077.411,750.126z"/>
					<polygon style="fill:#3867A1;" points="1044.311,791.679 1044.311,834.722 1079.485,821.14 1121.788,780.778 1121.631,735.071 
						1076.875,770.548 					"/>
					<path style="fill:#D2E8F8;" d="M1077.411,707.083l-15.511,14.588c12.921,10.223,11.393,24.635-4.592,33.865
						c-4.378,2.527-9.431,4.426-14.824,5.701l16.031,17.082l-14.205,13.359c18.037-2.082,35.245-7.154,49.229-15.225
						c32.399-18.707,36.918-47.396,13.612-68.906L1077.411,707.083z"/>
				</g>
			</g>
			<g>
				<path style="fill:#3867A1;" d="M1044.195,821.138l-14.13-15.055c-13.118,0.797-26.724-1.701-36.778-7.508
					c-10.384-5.994-14.661-14.176-12.845-21.979l-33.65-0.525l-12.94-13.783c-11.317,19.422-3.595,41.732,23.207,57.205
					c19.694,11.371,45.783,16.787,71.582,16.275L1044.195,821.138z"/>
				<polygon style="fill:#3867A1;" points="1028.641,792.724 1028.641,835.769 928.815,780.446 928.815,737.386 943.391,743.278 
									"/>
				<polygon style="fill:#143B75;" points="1044.195,778.095 1044.195,821.138 1028.641,835.769 1028.641,792.724 				"/>
				<path style="fill:#558BC2;" d="M1044.195,778.095l-14.13-15.055c-13.118,0.799-26.724-1.701-36.778-7.508
					c-10.384-5.994-14.661-14.176-12.845-21.979l-33.65-0.525l-12.94-13.783c-11.317,19.422-3.595,41.73,23.207,57.205
					c19.694,11.371,45.783,16.789,71.582,16.273L1044.195,778.095z"/>
			</g>
		</g>
	</g>
	<g>
		<path style="fill:#558BC2;" d="M1102.506,195.239l2.566-4.355c0,0,2.143,1.181,4.443,0.459c1.838-0.581,3.43-2.241,4.732-4.936
			c4.584-9.504,13.053-10.223,16.887-9.276l-1.209,4.908l0.604-2.454l-0.586,2.458c-0.736-0.168-7.296-1.413-11.145,6.559
			c-1.952,4.048-4.599,6.603-7.866,7.594C1106.565,197.517,1102.909,195.475,1102.506,195.239z"/>
	</g>
	<path style="fill:#D2E8F8;" d="M1022.146,361.038c-12.773,0-23.163-10.39-23.163-23.163s10.39-23.163,23.163-23.163
		s23.163,10.39,23.163,23.163S1034.919,361.038,1022.146,361.038z M1022.146,319.764c-9.986,0-18.11,8.124-18.11,18.11
		s8.124,18.11,18.11,18.11c9.987,0,18.11-8.124,18.11-18.11S1032.133,319.764,1022.146,319.764z"/>
	<path style="fill:#558BC2;" d="M886.227,681.048c-9.056,0-16.425-7.367-16.425-16.424s7.369-16.426,16.425-16.426
		c9.057,0,16.426,7.369,16.426,16.426S895.283,681.048,886.227,681.048z M886.227,653.251c-6.27,0-11.371,5.104-11.371,11.373
		s5.102,11.371,11.371,11.371s11.372-5.102,11.372-11.371S892.496,653.251,886.227,653.251z"/>
	<path style="fill:#558BC2;" d="M988.225,496.561l-11.146-22.677l22.676-11.15l11.148,22.678L988.225,496.561z M983.842,476.188
		l6.689,13.608l13.607-6.691l-6.691-13.608L983.842,476.188z"/>
	
		<rect x="1538.442" y="250.071" transform="matrix(0.8974 -0.4412 0.4412 0.8974 45.5248 707.5502)" style="fill:#558BC2;" width="11.619" height="11.618"/>
	<g>
		
			<rect x="1335.139" y="113.249" transform="matrix(0.7072 0.7071 -0.7071 0.7072 480.2896 -909.1277)" style="fill:#D2E8F8;" width="5.052" height="24.008"/>
		
			<rect x="1325.661" y="122.727" transform="matrix(0.7071 0.7071 -0.7071 0.7071 480.3305 -909.1616)" style="fill:#D2E8F8;" width="24.008" height="5.052"/>
	</g>
	<circle style="fill:#D2E8F8;" cx="1506.45" cy="133.743" r="11.921"/>
	<circle style="fill:#D2E8F8;" cx="1190.55" cy="801.604" r="6.929"/>
	<circle style="fill:#D2E8F8;" cx="1463.804" cy="800.784" r="14.208"/>
	<g>
		<g>
			<path style="fill:#C31683;" d="M967.971,530.486l-50.733-29.293c-1.005-0.578-1.911-0.6-2.623-0.211
				c0-0.002,0.004-0.029,0.004-0.029l-4.921,2.842c0,0,2.179,0.795,3.458,1.265v36.943c0,3.008,1.827,6.5,4.082,7.801l48.492,27.998
				v4.334l4.971-2.861l-0.026-0.01c0.84-0.514,1.379-1.639,1.379-3.256v-37.723C972.053,535.279,970.225,531.787,967.971,530.486z"
				/>
			<path style="fill:#E7388E;" d="M962.959,581.983l-50.732-29.29c-2.255-1.304-4.083-4.793-4.083-7.8v-37.723
				c0-3.007,1.828-4.388,4.083-3.087l50.732,29.29c2.255,1.303,4.083,4.795,4.083,7.8v37.726
				C967.042,581.903,965.214,583.286,962.959,581.983z"/>
		</g>
		<g>
			<path style="fill:#FFFFFF;" d="M929.286,539.692c0,2.185-1.531,3.068-3.423,1.977c-1.891-1.09-3.423-3.746-3.423-5.928
				c0-2.185,1.532-3.068,3.423-1.979C927.755,534.854,929.286,537.511,929.286,539.692z"/>
			<path style="fill:#FFFFFF;" d="M939.657,545.681c0,2.182-1.532,3.068-3.424,1.977c-1.891-1.093-3.423-3.746-3.423-5.93
				c0-2.183,1.532-3.068,3.423-1.977C938.125,540.843,939.657,543.497,939.657,545.681z"/>
			<path style="fill:#FFFFFF;" d="M950.027,551.667c0,2.182-1.533,3.068-3.423,1.976c-1.892-1.09-3.423-3.745-3.423-5.927
				c0-2.186,1.531-3.068,3.423-1.977C948.494,546.829,950.027,549.485,950.027,551.667z"/>
		</g>
	</g>
	<g>
		<g>
			<path style="fill:#558BC2;" d="M1454.521,183.917l-50.735-29.291c-1.003-0.579-1.91-0.602-2.622-0.211
				c0.002-0.003,0.005-0.033,0.005-0.033l-4.922,2.843c0,0,2.18,0.795,3.459,1.265v36.946c0,3.007,1.826,6.499,4.08,7.8
				l48.492,27.996v4.336l4.972-2.864l-0.026-0.01c0.84-0.512,1.379-1.636,1.379-3.253v-37.725
				C1458.602,188.711,1456.775,185.219,1454.521,183.917z"/>
			<path style="fill:#D2E8F8;" d="M1449.508,235.415l-50.733-29.292c-2.255-1.301-4.083-4.793-4.083-7.799V160.6
				c0-3.006,1.828-4.387,4.083-3.085l50.733,29.291c2.254,1.301,4.082,4.793,4.082,7.8v37.723
				C1453.59,235.335,1451.762,236.716,1449.508,235.415z"/>
		</g>
		<g>
			<path style="fill:#FFFFFF;" d="M1415.837,193.125c0,2.182-1.532,3.068-3.424,1.976c-1.892-1.092-3.425-3.745-3.425-5.93
				c0-2.182,1.533-3.066,3.425-1.976C1414.305,188.287,1415.837,190.94,1415.837,193.125z"/>
			<path style="fill:#FFFFFF;" d="M1426.206,199.112c0,2.183-1.533,3.066-3.422,1.976c-1.892-1.091-3.425-3.747-3.425-5.929
				c0-2.183,1.533-3.068,3.425-1.977C1424.673,194.273,1426.206,196.928,1426.206,199.112z"/>
			<path style="fill:#FFFFFF;" d="M1436.577,205.099c0,2.182-1.533,3.068-3.425,1.976c-1.889-1.092-3.422-3.746-3.422-5.93
				c0-2.182,1.533-3.067,3.422-1.976C1435.044,200.261,1436.577,202.916,1436.577,205.099z"/>
		</g>
	</g>
	<g>
		<polyline style="fill:#D2E8F8;" points="1479.821,835.442 1450.037,818.247 1479.821,801.052 1509.605,818.247 		"/>
		<polygon style="fill:#D2E8F8;" points="1513.262,781.255 1543.047,764.06 1572.831,781.255 1543.047,798.452 		"/>
		<polygon style="fill:#D2E8F8;" points="1576.293,745.147 1606.079,727.952 1635.863,745.147 1606.079,762.345 		"/>
		<g>
			<g>
				<g>
					<polygon style="fill:#B83F21;" points="1543.047,781.255 1543.047,689.542 1513.262,672.347 1513.262,764.06 					"/>
					<polygon style="fill:#C31683;" points="1543.047,689.542 1572.831,672.347 1572.831,764.06 1543.047,781.255 					"/>
					<polygon style="fill:#E7388E;" points="1543.047,781.255 1543.047,689.542 1513.262,672.347 1513.262,764.06 					"/>
				</g>
				<g>
					<polygon style="fill:#E7388E;" points="1479.821,818.247 1479.821,766.659 1450.037,749.462 1450.037,801.052 					"/>
					<polygon style="fill:#C31683;" points="1479.821,766.659 1509.605,749.462 1509.605,801.052 1479.821,818.247 					"/>
					<polygon style="fill:#E7388E;" points="1450.037,749.462 1479.821,732.265 1509.605,749.462 1479.821,766.659 					"/>
				</g>
				<g>
					<polygon style="fill:#E7388E;" points="1606.079,745.147 1606.079,619.042 1576.293,601.845 1576.293,727.952 					"/>
					<polygon style="fill:#C31683;" points="1606.079,619.042 1635.863,601.845 1635.863,727.952 1606.079,745.147 					"/>
					<polygon style="fill:#E7388E;" points="1576.293,601.845 1606.079,584.649 1635.863,601.845 1606.079,619.042 					"/>
				</g>
			</g>
			<polygon style="fill:#E7388E;" points="1513.262,672.347 1543.047,655.149 1572.831,672.347 1543.047,689.542 			"/>
		</g>
	</g>
</g>
<linearGradient id="SVGID_2_" gradientUnits="userSpaceOnUse" x1="711.543" y1="239.2168" x2="1413.4121" y2="239.2168" gradientTransform="matrix(1 0 0 -1 0.002 1021)">
	<stop  offset="2.100000e-007" style="stop-color:#62C4DE"/>
	<stop  offset="1" style="stop-color:#544A9C"/>
</linearGradient>
<path style="opacity:0.7;fill:url(#SVGID_2_);" d="M958.507,781.138l-6.204,1.291C954.225,782.144,956.303,781.706,958.507,781.138z
	"/>
<path style="fill:#FFFFFF;stroke:#040000;stroke-width:3;stroke-miterlimit:10;" d="M1159.321,198.472
	c0-15.401-12.485-27.885-27.887-27.885c-15.399,0-27.885,12.484-27.885,27.885c0,14.144,10.533,25.82,24.181,27.633l3.705,6.418
	l3.705-6.418C1148.789,224.292,1159.321,212.616,1159.321,198.472z"/>
<g>
	<path style="fill:#040000;" d="M1120.671,189.092h2.614v7.892h9.934v-7.892h2.613v19.1h-2.613v-8.933h-9.934v8.933h-2.614V189.092z
		"/>
	<path style="fill:#040000;" d="M1139.524,189.092h2.38v2.653h-2.38V189.092z M1139.524,194.332h2.38v13.86h-2.38V194.332z"/>
</g>
</svg>
