<?xml version="1.0" encoding="utf-8"?>
<!-- Generator: Adobe Illustrator 16.0.0, SVG Export Plug-In . SVG Version: 6.00 Build 0)  -->
<!DOCTYPE svg PUBLIC "-//W3C//DTD SVG 1.1//EN" "http://www.w3.org/Graphics/SVG/1.1/DTD/svg11.dtd">
<svg version="1.1" id="레이어_1" xmlns="http://www.w3.org/2000/svg" xmlns:xlink="http://www.w3.org/1999/xlink" x="0px"
	 y="0px" width="212.723px" height="249.793px" viewBox="0 0 212.723 249.793" enable-background="new 0 0 212.723 249.793"
	 xml:space="preserve">
<g>
	<g>
		<g>
			<g>
				<path fill="#558BC2" d="M24.367,107c0,1.72,0,1.72,0,1.72c0.103,1.866,0.604,3.393,1.114,3.393c0.513,0,2.817,0,5.127,0
					c2.311,0,6.366,0,9.018,0H86.2c2.648,0,4.817,2.168,4.817,4.818v51.956c0,2.65-1.928,3.825-4.282,2.61l-47.908-45.009
					c-1.352-2.28-4.623-4.147-7.272-4.147H30.71c-2.65,0-3.685,1.848-2.296,4.106l68.358,56.642
					c2.461,0.981,4.477,1.101,4.477,0.263c0-0.836,0-3.138,0-5.111c0-1.977,0-5.762,0-8.409v-52.9c0-2.65,0-5.969,0-7.375
					c0-1.406,0-3.708,0-5.115c0-1.407-2.168-2.558-4.818-2.558H39.627c-2.65,0-3.841-1.935-2.646-4.301l59.853-56.3
					c2.429-1.063,4.415-4.101,4.415-6.75V33.94c0-2.65-1.973-3.915-4.38-2.81C96.866,31.132,24.367,64.387,24.367,107z"/>
			</g>
			<g>
				<path fill="#558BC2" d="M188.356,105.279c-0.104-1.868-2.354-3.395-5.007-3.395h-0.617c-2.648,0-6.985,0-9.637,0h-31.659
					c-2.648,0-4.816,2.168-4.816,4.819v0.59c0,2.65,2.168,4.818,4.816,4.818h31.659c2.649,0,3.916,1.971,2.813,4.381l-50.012,54.846
					c-2.308,1.305-4.194,0.202-4.194-2.447V45.112c0-2.65,1.928-3.824,4.281-2.61l47.899,45.008c1.35,2.28,4.622,4.146,7.272,4.146
					h0.824c2.65,0,3.686-1.848,2.298-4.106l-68.329-56.641c-2.463-0.982-4.477-0.449-4.477,1.184c0,1.632,0,3.935,0,5.114
					c0,1.18,0,4.313,0,6.963v125.66c0,2.648,0,5.771,0,6.939c0,1.164,0,3.467,0,5.11c0,1.646,1.985,2.121,4.412,1.058
					c0,0,69.659-30.582,72.281-70.826c0.11-1.691,0.188-3.393,0.188-5.113C188.356,105.279,188.356,105.279,188.356,105.279z"/>
			</g>
		</g>
	</g>
	<path fill="#558BC2" d="M106.362,209.465c-13.681,0-26.505-5.292-36.112-14.9l-51.451-51.449
		c-19.913-19.913-19.913-52.314,0-72.229l51.451-51.452c9.606-9.608,22.434-14.899,36.112-14.899
		c13.684,0,26.509,5.291,36.114,14.899l51.452,51.452c19.912,19.913,19.912,52.316,0,72.229l-51.452,51.451
		C132.868,204.173,120.043,209.465,106.362,209.465z M106.362,7.509c-12.886,0-24.963,4.982-34.011,14.029L20.9,72.99
		c-18.753,18.752-18.753,49.268,0,68.02l51.451,51.452c9.048,9.047,21.125,14.028,34.011,14.028
		c12.889,0,24.968-4.981,34.013-14.028l51.451-51.452c18.753-18.752,18.753-49.268,0-68.02l-51.451-51.452
		C131.327,12.491,119.247,7.509,106.362,7.509z"/>
	<g>
		<path fill="#558BC2" d="M22.893,240.043l1.876,0.475c-0.393,1.541-1.101,2.717-2.123,3.527s-2.271,1.214-3.75,1.214
			c-1.527,0-2.771-0.312-3.729-0.934c-0.958-0.623-1.688-1.524-2.188-2.705c-0.501-1.183-0.75-2.448-0.75-3.804
			c0-1.479,0.282-2.767,0.848-3.866c0.564-1.101,1.366-1.935,2.407-2.507c1.042-0.57,2.189-0.856,3.44-0.856
			c1.419,0,2.612,0.361,3.58,1.084c0.967,0.724,1.642,1.739,2.021,3.049l-1.848,0.438c-0.329-1.032-0.807-1.784-1.431-2.257
			c-0.626-0.471-1.413-0.705-2.361-0.705c-1.09,0-2.002,0.262-2.733,0.783c-0.73,0.521-1.245,1.225-1.544,2.104
			c-0.296,0.881-0.443,1.789-0.443,2.726c0,1.207,0.176,2.26,0.525,3.158c0.354,0.899,0.899,1.573,1.643,2.02
			c0.743,0.445,1.545,0.666,2.409,0.666c1.052,0,1.94-0.301,2.671-0.907C22.141,242.136,22.633,241.236,22.893,240.043z"/>
		<path fill="#558BC2" d="M40.544,245.018v-14.187h6.29c1.264,0,2.226,0.127,2.884,0.381c0.658,0.256,1.184,0.705,1.577,1.351
			c0.393,0.646,0.591,1.357,0.591,2.14c0,1.006-0.326,1.854-0.978,2.546c-0.652,0.691-1.658,1.129-3.021,1.314
			c0.497,0.237,0.875,0.476,1.132,0.705c0.549,0.504,1.067,1.133,1.561,1.888l2.468,3.86h-2.361l-1.877-2.951
			c-0.548-0.853-1-1.504-1.354-1.953c-0.354-0.45-0.672-0.771-0.953-0.948c-0.281-0.183-0.566-0.308-0.857-0.377
			c-0.212-0.046-0.562-0.068-1.044-0.068h-2.178v6.302h-1.88V245.018z M42.422,237.092h4.036c0.855,0,1.526-0.089,2.012-0.266
			c0.484-0.178,0.854-0.461,1.104-0.852c0.251-0.393,0.378-0.814,0.378-1.272c0-0.671-0.244-1.224-0.731-1.654
			c-0.486-0.432-1.256-0.647-2.307-0.647h-4.491L42.422,237.092L42.422,237.092z"/>
		<path fill="#558BC2" d="M68.299,245.018v-14.187h10.257v1.674h-8.38v4.345h7.849v1.664h-7.849v4.829h8.709v1.675H68.299z"/>
		<path fill="#558BC2" d="M92.26,245.018l5.448-14.187h2.021l5.809,14.187h-2.141l-1.653-4.297h-5.933l-1.559,4.297H92.26z
			 M96.354,239.191h4.812l-1.481-3.928c-0.451-1.193-0.786-2.177-1.006-2.941c-0.181,0.908-0.436,1.813-0.764,2.71L96.354,239.191z"
			/>
		<path fill="#558BC2" d="M122.627,245.018v-12.513h-4.674v-1.673h11.244v1.673h-4.694v12.513H122.627z"/>
		<path fill="#558BC2" d="M144.519,245.018v-14.187h1.877v14.187H144.519z"/>
		<path fill="#558BC2" d="M167.192,245.018l-5.493-14.187h2.03l3.688,10.306c0.296,0.824,0.544,1.6,0.743,2.321
			c0.222-0.774,0.475-1.548,0.767-2.321l3.832-10.306h1.915l-5.556,14.187H167.192z"/>
		<path fill="#558BC2" d="M189.828,245.018v-14.187h10.26v1.674h-8.381v4.345h7.848v1.664h-7.848v4.829h8.71v1.675H189.828z"/>
	</g>
</g>
</svg>
